<?xml version="1.0" encoding="UTF-8" standalone="no"?>
<!DOCTYPE svg PUBLIC "-//W3C//DTD SVG 1.1//EN"
 "http://www.w3.org/Graphics/SVG/1.1/DTD/svg11.dtd">
<!-- Generated by graphviz version 2.40.1 (20161225.0304)
 -->
<!-- Title: XStake Pages: 1 -->
<svg width="423pt" height="606pt"
 viewBox="0.00 0.00 422.60 605.60" xmlns="http://www.w3.org/2000/svg" xmlns:xlink="http://www.w3.org/1999/xlink">
<g id="graph0" class="graph" transform="scale(1 1) rotate(0) translate(28.8 576.8)">
<title>XStake</title>
<polygon fill="#ffffff" stroke="transparent" points="-28.8,28.8 -28.8,-576.8 393.8,-576.8 393.8,28.8 -28.8,28.8"/>
<text text-anchor="middle" x="182.5" y="-533.6" font-family="Arial Bold" font-size="13.00" fill="#000000">XStake domain model</text>
<!-- m_AdminUser -->
<g id="node1" class="node">
<title>m_AdminUser</title>
<path fill="none" stroke="#000000" d="M12,-.5C12,-.5 149,-.5 149,-.5 155,-.5 161,-6.5 161,-12.5 161,-12.5 161,-83.5 161,-83.5 161,-89.5 155,-95.5 149,-95.5 149,-95.5 12,-95.5 12,-95.5 6,-95.5 0,-89.5 0,-83.5 0,-83.5 0,-12.5 0,-12.5 0,-6.5 6,-.5 12,-.5"/>
<text text-anchor="start" x="48.5" y="-82.7" font-family="Arial Bold" font-size="11.00" fill="#000000">AdminUser</text>
<polyline fill="none" stroke="#000000" points="0,-75.5 161,-75.5 "/>
<text text-anchor="start" x="7.5" y="-62" font-family="Arial" font-size="10.00" fill="#000000">email </text>
<text text-anchor="start" x="34.5" y="-62" font-family="Arial Italic" font-size="10.00" fill="#999999">string ∗ U</text>
<text text-anchor="start" x="7.5" y="-49" font-family="Arial" font-size="10.00" fill="#000000">encrypted_password </text>
<text text-anchor="start" x="100.5" y="-49" font-family="Arial Italic" font-size="10.00" fill="#999999">string ∗</text>
<text text-anchor="start" x="7.5" y="-36" font-family="Arial" font-size="10.00" fill="#000000">remember_created_at </text>
<text text-anchor="start" x="105.5" y="-36" font-family="Arial Italic" font-size="10.00" fill="#999999">datetime</text>
<text text-anchor="start" x="7.5" y="-23" font-family="Arial" font-size="10.00" fill="#000000">reset_password_sent_at </text>
<text text-anchor="start" x="116.5" y="-23" font-family="Arial Italic" font-size="10.00" fill="#999999">datetime</text>
<text text-anchor="start" x="7.5" y="-10" font-family="Arial" font-size="10.00" fill="#000000">reset_password_token </text>
<text text-anchor="start" x="108.5" y="-10" font-family="Arial Italic" font-size="10.00" fill="#999999">string</text>
</g>
<!-- m_Balance -->
<g id="node2" class="node">
<title>m_Balance</title>
<path fill="none" stroke="#000000" d="M221,-441.5C221,-441.5 341,-441.5 341,-441.5 347,-441.5 353,-447.5 353,-453.5 353,-453.5 353,-498.5 353,-498.5 353,-504.5 347,-510.5 341,-510.5 341,-510.5 221,-510.5 221,-510.5 215,-510.5 209,-504.5 209,-498.5 209,-498.5 209,-453.5 209,-453.5 209,-447.5 215,-441.5 221,-441.5"/>
<text text-anchor="start" x="257.5" y="-497.7" font-family="Arial Bold" font-size="11.00" fill="#000000">Balance</text>
<polyline fill="none" stroke="#000000" points="209,-490.5 353,-490.5 "/>
<text text-anchor="start" x="216" y="-477" font-family="Arial" font-size="10.00" fill="#000000">amount </text>
<text text-anchor="start" x="252" y="-477" font-family="Arial Italic" font-size="10.00" fill="#999999">decimal (20,10) ∗</text>
<text text-anchor="start" x="216" y="-464" font-family="Arial" font-size="10.00" fill="#000000">currency_id </text>
<text text-anchor="start" x="270" y="-464" font-family="Arial Italic" font-size="10.00" fill="#999999">integer (8) ∗ FK</text>
<text text-anchor="start" x="216" y="-451" font-family="Arial" font-size="10.00" fill="#000000">user_id </text>
<text text-anchor="start" x="251" y="-451" font-family="Arial Italic" font-size="10.00" fill="#999999">integer (8) ∗ FK</text>
</g>
<!-- m_BuyCryptoOrder -->
<g id="node3" class="node">
<title>m_BuyCryptoOrder</title>
<path fill="none" stroke="#000000" d="M209,-316.5C209,-316.5 353,-316.5 353,-316.5 359,-316.5 365,-322.5 365,-328.5 365,-328.5 365,-399.5 365,-399.5 365,-405.5 359,-411.5 353,-411.5 353,-411.5 209,-411.5 209,-411.5 203,-411.5 197,-405.5 197,-399.5 197,-399.5 197,-328.5 197,-328.5 197,-322.5 203,-316.5 209,-316.5"/>
<text text-anchor="start" x="235" y="-398.7" font-family="Arial Bold" font-size="11.00" fill="#000000">BuyCryptoOrder</text>
<polyline fill="none" stroke="#000000" points="197,-391.5 365,-391.5 "/>
<text text-anchor="start" x="204" y="-378" font-family="Arial" font-size="10.00" fill="#000000">currency_id </text>
<text text-anchor="start" x="258" y="-378" font-family="Arial Italic" font-size="10.00" fill="#999999">integer (8) ∗ FK</text>
<text text-anchor="start" x="204" y="-365" font-family="Arial" font-size="10.00" fill="#000000">paid_amount_cents </text>
<text text-anchor="start" x="292" y="-365" font-family="Arial Italic" font-size="10.00" fill="#999999">integer ∗</text>
<text text-anchor="start" x="204" y="-352" font-family="Arial" font-size="10.00" fill="#000000">received_amount </text>
<text text-anchor="start" x="282" y="-352" font-family="Arial Italic" font-size="10.00" fill="#999999">decimal (20,10) ∗</text>
<text text-anchor="start" x="204" y="-339" font-family="Arial" font-size="10.00" fill="#000000">status </text>
<text text-anchor="start" x="235" y="-339" font-family="Arial Italic" font-size="10.00" fill="#999999">string ∗</text>
<text text-anchor="start" x="204" y="-326" font-family="Arial" font-size="10.00" fill="#000000">user_id </text>
<text text-anchor="start" x="239" y="-326" font-family="Arial Italic" font-size="10.00" fill="#999999">integer (8) ∗ FK</text>
</g>
<!-- m_Currency -->
<g id="node4" class="node">
<title>m_Currency</title>
<path fill="none" stroke="#000000" d="M20.5,-342.5C20.5,-342.5 140.5,-342.5 140.5,-342.5 146.5,-342.5 152.5,-348.5 152.5,-354.5 152.5,-354.5 152.5,-373.5 152.5,-373.5 152.5,-379.5 146.5,-385.5 140.5,-385.5 140.5,-385.5 20.5,-385.5 20.5,-385.5 14.5,-385.5 8.5,-379.5 8.5,-373.5 8.5,-373.5 8.5,-354.5 8.5,-354.5 8.5,-348.5 14.5,-342.5 20.5,-342.5"/>
<text text-anchor="start" x="54" y="-372.7" font-family="Arial Bold" font-size="11.00" fill="#000000">Currency</text>
<polyline fill="none" stroke="#000000" points="8.5,-365.5 152.5,-365.5 "/>
<text text-anchor="start" x="15.5" y="-352" font-family="Arial" font-size="10.00" fill="#000000">name </text>
<text text-anchor="start" x="43.5" y="-352" font-family="Arial Italic" font-size="10.00" fill="#999999">string ∗</text>
</g>
<!-- m_Currency&#45;&gt;m_Balance -->
<g id="edge8" class="edge">
<title>m_Currency&#45;&gt;m_Balance</title>
<path fill="none" stroke="#000000" d="M119.1584,-385.5947C145.169,-400.1243 180.2111,-419.699 211.0368,-436.9183"/>
<polygon fill="#000000" stroke="#000000" points="209.7968,-439.8338 219.1903,-441.4729 212.8692,-434.3337 209.7968,-439.8338"/>
</g>
<!-- m_Currency&#45;&gt;m_BuyCryptoOrder -->
<g id="edge5" class="edge">
<title>m_Currency&#45;&gt;m_BuyCryptoOrder</title>
<path fill="none" stroke="#000000" d="M152.6018,-364C164.0532,-364 176.0378,-364 187.8887,-364"/>
<polygon fill="#000000" stroke="#000000" points="187.914,-367.1501 196.914,-364 187.914,-360.8501 187.914,-367.1501"/>
</g>
<!-- m_SellCryptoOrder -->
<g id="node6" class="node">
<title>m_SellCryptoOrder</title>
<path fill="none" stroke="#000000" d="M213,-191.5C213,-191.5 349,-191.5 349,-191.5 355,-191.5 361,-197.5 361,-203.5 361,-203.5 361,-274.5 361,-274.5 361,-280.5 355,-286.5 349,-286.5 349,-286.5 213,-286.5 213,-286.5 207,-286.5 201,-280.5 201,-274.5 201,-274.5 201,-203.5 201,-203.5 201,-197.5 207,-191.5 213,-191.5"/>
<text text-anchor="start" x="235.5" y="-273.7" font-family="Arial Bold" font-size="11.00" fill="#000000">SellCryptoOrder</text>
<polyline fill="none" stroke="#000000" points="201,-266.5 361,-266.5 "/>
<text text-anchor="start" x="208" y="-253" font-family="Arial" font-size="10.00" fill="#000000">currency_id </text>
<text text-anchor="start" x="262" y="-253" font-family="Arial Italic" font-size="10.00" fill="#999999">integer (8) ∗ FK</text>
<text text-anchor="start" x="208" y="-240" font-family="Arial" font-size="10.00" fill="#000000">paid_amount </text>
<text text-anchor="start" x="267" y="-240" font-family="Arial Italic" font-size="10.00" fill="#999999">decimal (20,10) ∗</text>
<text text-anchor="start" x="208" y="-227" font-family="Arial" font-size="10.00" fill="#000000">received_amount_cents </text>
<text text-anchor="start" x="315" y="-227" font-family="Arial Italic" font-size="10.00" fill="#999999">integer ∗</text>
<text text-anchor="start" x="208" y="-214" font-family="Arial" font-size="10.00" fill="#000000">status </text>
<text text-anchor="start" x="239" y="-214" font-family="Arial Italic" font-size="10.00" fill="#999999">string ∗</text>
<text text-anchor="start" x="208" y="-201" font-family="Arial" font-size="10.00" fill="#000000">user_id </text>
<text text-anchor="start" x="243" y="-201" font-family="Arial Italic" font-size="10.00" fill="#999999">integer (8) ∗ FK</text>
</g>
<!-- m_Currency&#45;&gt;m_SellCryptoOrder -->
<g id="edge7" class="edge">
<title>m_Currency&#45;&gt;m_SellCryptoOrder</title>
<path fill="none" stroke="#000000" d="M115.4244,-342.2267C137.8839,-328.2245 168.0914,-309.3919 196.5551,-291.6464"/>
<polygon fill="#000000" stroke="#000000" points="198.5584,-294.1096 204.5292,-286.6751 195.2253,-288.7635 198.5584,-294.1096"/>
</g>
<!-- m_FiatBalance -->
<g id="node5" class="node">
<title>m_FiatBalance</title>
<path fill="none" stroke="#000000" d="M221,-6.5C221,-6.5 341,-6.5 341,-6.5 347,-6.5 353,-12.5 353,-18.5 353,-18.5 353,-63.5 353,-63.5 353,-69.5 347,-75.5 341,-75.5 341,-75.5 221,-75.5 221,-75.5 215,-75.5 209,-69.5 209,-63.5 209,-63.5 209,-18.5 209,-18.5 209,-12.5 215,-6.5 221,-6.5"/>
<text text-anchor="start" x="248" y="-62.7" font-family="Arial Bold" font-size="11.00" fill="#000000">FiatBalance</text>
<polyline fill="none" stroke="#000000" points="209,-55.5 353,-55.5 "/>
<text text-anchor="start" x="216" y="-42" font-family="Arial" font-size="10.00" fill="#000000">amount_cents </text>
<text text-anchor="start" x="281" y="-42" font-family="Arial Italic" font-size="10.00" fill="#999999">integer ∗</text>
<text text-anchor="start" x="216" y="-29" font-family="Arial" font-size="10.00" fill="#000000">amount_currency </text>
<text text-anchor="start" x="295" y="-29" font-family="Arial Italic" font-size="10.00" fill="#999999">string ∗</text>
<text text-anchor="start" x="216" y="-16" font-family="Arial" font-size="10.00" fill="#000000">user_id </text>
<text text-anchor="start" x="251" y="-16" font-family="Arial Italic" font-size="10.00" fill="#999999">integer (8) ∗ FK</text>
</g>
<!-- m_User -->
<g id="node7" class="node">
<title>m_User</title>
<path fill="none" stroke="#000000" d="M12,-125.5C12,-125.5 149,-125.5 149,-125.5 155,-125.5 161,-131.5 161,-137.5 161,-137.5 161,-234.5 161,-234.5 161,-240.5 155,-246.5 149,-246.5 149,-246.5 12,-246.5 12,-246.5 6,-246.5 0,-240.5 0,-234.5 0,-234.5 0,-137.5 0,-137.5 0,-131.5 6,-125.5 12,-125.5"/>
<text text-anchor="start" x="66" y="-233.7" font-family="Arial Bold" font-size="11.00" fill="#000000">User</text>
<polyline fill="none" stroke="#000000" points="0,-226.5 161,-226.5 "/>
<text text-anchor="start" x="7.5" y="-213" font-family="Arial" font-size="10.00" fill="#000000">email </text>
<text text-anchor="start" x="34.5" y="-213" font-family="Arial Italic" font-size="10.00" fill="#999999">string ∗ U</text>
<text text-anchor="start" x="7.5" y="-200" font-family="Arial" font-size="10.00" fill="#000000">encrypted_password </text>
<text text-anchor="start" x="100.5" y="-200" font-family="Arial Italic" font-size="10.00" fill="#999999">string ∗</text>
<text text-anchor="start" x="7.5" y="-187" font-family="Arial" font-size="10.00" fill="#000000">first_name </text>
<text text-anchor="start" x="56.5" y="-187" font-family="Arial Italic" font-size="10.00" fill="#999999">string ∗</text>
<text text-anchor="start" x="7.5" y="-174" font-family="Arial" font-size="10.00" fill="#000000">last_name </text>
<text text-anchor="start" x="56.5" y="-174" font-family="Arial Italic" font-size="10.00" fill="#999999">string ∗</text>
<text text-anchor="start" x="7.5" y="-161" font-family="Arial" font-size="10.00" fill="#000000">remember_created_at </text>
<text text-anchor="start" x="105.5" y="-161" font-family="Arial Italic" font-size="10.00" fill="#999999">datetime</text>
<text text-anchor="start" x="7.5" y="-148" font-family="Arial" font-size="10.00" fill="#000000">reset_password_sent_at </text>
<text text-anchor="start" x="116.5" y="-148" font-family="Arial Italic" font-size="10.00" fill="#999999">datetime</text>
<text text-anchor="start" x="7.5" y="-135" font-family="Arial" font-size="10.00" fill="#000000">reset_password_token </text>
<text text-anchor="start" x="108.5" y="-135" font-family="Arial Italic" font-size="10.00" fill="#999999">string</text>
</g>
<!-- m_User&#45;&gt;m_Balance -->
<g id="edge2" class="edge">
<title>m_User&#45;&gt;m_Balance</title>
<path fill="none" stroke="#000000" d="M117.8604,-246.6822C132.3012,-271.4162 148.3569,-300.5952 161,-328 180.613,-370.5127 166.9911,-391.063 197,-427 201.3286,-432.1836 206.3552,-436.9437 211.7562,-441.286"/>
</g>
<!-- m_User&#45;&gt;m_BuyCryptoOrder -->
<g id="edge4" class="edge">
<title>m_User&#45;&gt;m_BuyCryptoOrder</title>
<path fill="none" stroke="#000000" d="M138.1489,-246.7611C156.4296,-265.0999 177.0785,-284.8928 197,-302 200.2659,-304.8045 203.6488,-307.6223 207.0989,-310.4268"/>
<polygon fill="#000000" stroke="#000000" points="205.2637,-312.9926 214.259,-316.156 209.1997,-308.0735 205.2637,-312.9926"/>
</g>
<!-- m_User&#45;&gt;m_FiatBalance -->
<g id="edge3" class="edge">
<title>m_User&#45;&gt;m_FiatBalance</title>
<path fill="none" stroke="#000000" d="M150.2329,-125.4832C165.3085,-113.274 181.4114,-100.8639 197,-90 203.9257,-85.1734 211.3503,-80.363 218.8149,-75.7466"/>
</g>
<!-- m_User&#45;&gt;m_SellCryptoOrder -->
<g id="edge6" class="edge">
<title>m_User&#45;&gt;m_SellCryptoOrder</title>
<path fill="none" stroke="#000000" d="M161.1843,-207.328C171.2838,-209.9977 181.6589,-212.7403 191.8779,-215.4415"/>
<polygon fill="#000000" stroke="#000000" points="191.3009,-218.5471 200.8071,-217.8019 192.911,-212.4563 191.3009,-218.5471"/>
</g>
<!-- m_UserDocument -->
<g id="node8" class="node">
<title>m_UserDocument</title>
<path fill="none" stroke="#000000" d="M221,-105C221,-105 341,-105 341,-105 347,-105 353,-111 353,-117 353,-117 353,-149 353,-149 353,-155 347,-161 341,-161 341,-161 221,-161 221,-161 215,-161 209,-155 209,-149 209,-149 209,-117 209,-117 209,-111 215,-105 221,-105"/>
<text text-anchor="start" x="239.5" y="-148.2" font-family="Arial Bold" font-size="11.00" fill="#000000">UserDocument</text>
<polyline fill="none" stroke="#000000" points="209,-141 353,-141 "/>
<text text-anchor="start" x="216" y="-128" font-family="Arial" font-size="10.00" fill="#000000">status </text>
<text text-anchor="start" x="247" y="-128" font-family="Arial Italic" font-size="10.00" fill="#999999">string ∗</text>
<text text-anchor="start" x="216" y="-115" font-family="Arial" font-size="10.00" fill="#000000">user_id </text>
<text text-anchor="start" x="251" y="-115" font-family="Arial Italic" font-size="10.00" fill="#999999">integer (8) ∗ FK</text>
</g>
<!-- m_User&#45;&gt;m_UserDocument -->
<g id="edge1" class="edge">
<title>m_User&#45;&gt;m_UserDocument</title>
<path fill="none" stroke="#000000" d="M161.1843,-164.672C174.0042,-161.2832 187.2682,-157.777 200.0932,-154.3868"/>
<polygon fill="#000000" stroke="#000000" points="200.9949,-157.4068 208.891,-152.0612 199.3848,-151.316 200.9949,-157.4068"/>
</g>
</g>
</svg>
