<?xml version="1.0" encoding="UTF-8" standalone="no"?>
<!DOCTYPE svg PUBLIC "-//W3C//DTD SVG 1.1//EN"
 "http://www.w3.org/Graphics/SVG/1.1/DTD/svg11.dtd">
<!-- Generated by graphviz version 2.48.0 (0)
 -->
<!-- Title: XStake Pages: 1 -->
<svg width="606pt" height="724pt"
 viewBox="0.00 0.00 605.60 724.10" xmlns="http://www.w3.org/2000/svg" xmlns:xlink="http://www.w3.org/1999/xlink">
<g id="graph0" class="graph" transform="scale(1 1) rotate(0) translate(28.8 695.3)">
<title>XStake</title>
<polygon fill="white" stroke="transparent" points="-28.8,28.8 -28.8,-695.3 576.8,-695.3 576.8,28.8 -28.8,28.8"/>
<text text-anchor="middle" x="274" y="-652.1" font-family="Arial Bold" font-size="13.00">XStake domain model</text>
<!-- m_AdminUser -->
<g id="node1" class="node">
<title>m_AdminUser</title>
<path fill="none" stroke="black" d="M12,-40C12,-40 150,-40 150,-40 156,-40 162,-46 162,-52 162,-52 162,-123 162,-123 162,-129 156,-135 150,-135 150,-135 12,-135 12,-135 6,-135 0,-129 0,-123 0,-123 0,-52 0,-52 0,-46 6,-40 12,-40"/>
<text text-anchor="start" x="49" y="-122.2" font-family="Arial Bold" font-size="11.00">AdminUser</text>
<polyline fill="none" stroke="black" points="0,-115 162,-115 "/>
<text text-anchor="start" x="7" y="-101.5" font-family="Arial" font-size="10.00">email </text>
<text text-anchor="start" x="34" y="-101.5" font-family="Arial Italic" font-size="10.00" fill="#999999">string ∗ U</text>
<text text-anchor="start" x="7" y="-88.5" font-family="Arial" font-size="10.00">encrypted_password </text>
<text text-anchor="start" x="101" y="-88.5" font-family="Arial Italic" font-size="10.00" fill="#999999">string ∗</text>
<text text-anchor="start" x="7" y="-75.5" font-family="Arial" font-size="10.00">remember_created_at </text>
<text text-anchor="start" x="105" y="-75.5" font-family="Arial Italic" font-size="10.00" fill="#999999">datetime</text>
<text text-anchor="start" x="7" y="-62.5" font-family="Arial" font-size="10.00">reset_password_sent_at </text>
<text text-anchor="start" x="117" y="-62.5" font-family="Arial Italic" font-size="10.00" fill="#999999">datetime</text>
<text text-anchor="start" x="7" y="-49.5" font-family="Arial" font-size="10.00">reset_password_token </text>
<text text-anchor="start" x="109" y="-49.5" font-family="Arial Italic" font-size="10.00" fill="#999999">string</text>
</g>
<!-- m_Balance -->
<g id="node2" class="node">
<title>m_Balance</title>
<path fill="none" stroke="black" d="M223,-560C223,-560 343,-560 343,-560 349,-560 355,-566 355,-572 355,-572 355,-617 355,-617 355,-623 349,-629 343,-629 343,-629 223,-629 223,-629 217,-629 211,-623 211,-617 211,-617 211,-572 211,-572 211,-566 217,-560 223,-560"/>
<text text-anchor="start" x="259.5" y="-616.2" font-family="Arial Bold" font-size="11.00">Balance</text>
<polyline fill="none" stroke="black" points="211,-609 355,-609 "/>
<text text-anchor="start" x="218" y="-595.5" font-family="Arial" font-size="10.00">amount </text>
<text text-anchor="start" x="254" y="-595.5" font-family="Arial Italic" font-size="10.00" fill="#999999">decimal (20,10) ∗</text>
<text text-anchor="start" x="218" y="-582.5" font-family="Arial" font-size="10.00">currency_id </text>
<text text-anchor="start" x="272" y="-582.5" font-family="Arial Italic" font-size="10.00" fill="#999999">integer (8) ∗ FK</text>
<text text-anchor="start" x="218" y="-569.5" font-family="Arial" font-size="10.00">user_id </text>
<text text-anchor="start" x="253" y="-569.5" font-family="Arial Italic" font-size="10.00" fill="#999999">integer (8) ∗ FK</text>
</g>
<!-- m_PaperTrail::Version -->
<g id="node6" class="node">
<title>m_PaperTrail::Version</title>
<path fill="none" stroke="black" d="M416,-310C416,-310 536,-310 536,-310 542,-310 548,-316 548,-322 548,-322 548,-393 548,-393 548,-399 542,-405 536,-405 536,-405 416,-405 416,-405 410,-405 404,-399 404,-393 404,-393 404,-322 404,-322 404,-316 410,-310 416,-310"/>
<text text-anchor="start" x="423.5" y="-392.2" font-family="Arial Bold" font-size="11.00">PaperTrail::Version</text>
<polyline fill="none" stroke="black" points="404,-385 548,-385 "/>
<text text-anchor="start" x="411" y="-371.5" font-family="Arial" font-size="10.00">event </text>
<text text-anchor="start" x="439" y="-371.5" font-family="Arial Italic" font-size="10.00" fill="#999999">string ∗</text>
<text text-anchor="start" x="411" y="-358.5" font-family="Arial" font-size="10.00">item_id </text>
<text text-anchor="start" x="446" y="-358.5" font-family="Arial Italic" font-size="10.00" fill="#999999">integer (8) ∗ FK</text>
<text text-anchor="start" x="411" y="-345.5" font-family="Arial" font-size="10.00">item_type </text>
<text text-anchor="start" x="457" y="-345.5" font-family="Arial Italic" font-size="10.00" fill="#999999">string ∗</text>
<text text-anchor="start" x="411" y="-332.5" font-family="Arial" font-size="10.00">object </text>
<text text-anchor="start" x="441" y="-332.5" font-family="Arial Italic" font-size="10.00" fill="#999999">text</text>
<text text-anchor="start" x="411" y="-319.5" font-family="Arial" font-size="10.00">whodunnit </text>
<text text-anchor="start" x="459" y="-319.5" font-family="Arial Italic" font-size="10.00" fill="#999999">string</text>
</g>
<!-- m_Balance&#45;&gt;m_PaperTrail::Version -->
<g id="edge1" class="edge">
<title>m_Balance&#45;&gt;m_PaperTrail::Version</title>
<path fill="none" stroke="black" d="M351.08,-559.9C357.13,-555.47 362.89,-550.66 368,-545.5 405.48,-507.62 434.29,-453.96 452.52,-413.67"/>
<polygon fill="black" stroke="black" points="455.47,-414.78 456.25,-405.28 449.71,-412.22 455.47,-414.78"/>
</g>
<!-- m_BuyCryptoOrder -->
<g id="node3" class="node">
<title>m_BuyCryptoOrder</title>
<path fill="none" stroke="black" d="M210,-435C210,-435 356,-435 356,-435 362,-435 368,-441 368,-447 368,-447 368,-518 368,-518 368,-524 362,-530 356,-530 356,-530 210,-530 210,-530 204,-530 198,-524 198,-518 198,-518 198,-447 198,-447 198,-441 204,-435 210,-435"/>
<text text-anchor="start" x="237" y="-517.2" font-family="Arial Bold" font-size="11.00">BuyCryptoOrder</text>
<polyline fill="none" stroke="black" points="198,-510 368,-510 "/>
<text text-anchor="start" x="205" y="-496.5" font-family="Arial" font-size="10.00">currency_id </text>
<text text-anchor="start" x="259" y="-496.5" font-family="Arial Italic" font-size="10.00" fill="#999999">integer (8) ∗ FK</text>
<text text-anchor="start" x="205" y="-483.5" font-family="Arial" font-size="10.00">paid_amount_cents </text>
<text text-anchor="start" x="293" y="-483.5" font-family="Arial Italic" font-size="10.00" fill="#999999">integer ∗</text>
<text text-anchor="start" x="205" y="-470.5" font-family="Arial" font-size="10.00">received_amount </text>
<text text-anchor="start" x="283" y="-470.5" font-family="Arial Italic" font-size="10.00" fill="#999999">decimal (20,10) ∗</text>
<text text-anchor="start" x="205" y="-457.5" font-family="Arial" font-size="10.00">status </text>
<text text-anchor="start" x="236" y="-457.5" font-family="Arial Italic" font-size="10.00" fill="#999999">string ∗</text>
<text text-anchor="start" x="205" y="-444.5" font-family="Arial" font-size="10.00">user_id </text>
<text text-anchor="start" x="240" y="-444.5" font-family="Arial Italic" font-size="10.00" fill="#999999">integer (8) ∗ FK</text>
</g>
<!-- m_Currency -->
<g id="node4" class="node">
<title>m_Currency</title>
<path fill="none" stroke="black" d="M21,-398C21,-398 141,-398 141,-398 147,-398 153,-404 153,-410 153,-410 153,-429 153,-429 153,-435 147,-441 141,-441 141,-441 21,-441 21,-441 15,-441 9,-435 9,-429 9,-429 9,-410 9,-410 9,-404 15,-398 21,-398"/>
<text text-anchor="start" x="54.5" y="-428.2" font-family="Arial Bold" font-size="11.00">Currency</text>
<polyline fill="none" stroke="black" points="9,-421 153,-421 "/>
<text text-anchor="start" x="16" y="-407.5" font-family="Arial" font-size="10.00">name </text>
<text text-anchor="start" x="44" y="-407.5" font-family="Arial Italic" font-size="10.00" fill="#999999">string ∗</text>
</g>
<!-- m_Currency&#45;&gt;m_Balance -->
<g id="edge11" class="edge">
<title>m_Currency&#45;&gt;m_Balance</title>
<path fill="none" stroke="black" d="M98.77,-441.41C119.93,-468.12 158.38,-513.63 198,-545.5 201.86,-548.61 205.95,-551.65 210.15,-554.6"/>
<polygon fill="black" stroke="black" points="208.6,-557.35 217.82,-559.79 212.14,-552.14 208.6,-557.35"/>
</g>
<!-- m_Currency&#45;&gt;m_BuyCryptoOrder -->
<g id="edge8" class="edge">
<title>m_Currency&#45;&gt;m_BuyCryptoOrder</title>
<path fill="none" stroke="black" d="M150.27,-441C162.68,-444.91 175.82,-449.05 188.81,-453.14"/>
<polygon fill="black" stroke="black" points="188.23,-456.27 197.76,-455.97 190.13,-450.26 188.23,-456.27"/>
</g>
<!-- m_SellCryptoOrder -->
<g id="node7" class="node">
<title>m_SellCryptoOrder</title>
<path fill="none" stroke="black" d="M214.5,-310C214.5,-310 351.5,-310 351.5,-310 357.5,-310 363.5,-316 363.5,-322 363.5,-322 363.5,-393 363.5,-393 363.5,-399 357.5,-405 351.5,-405 351.5,-405 214.5,-405 214.5,-405 208.5,-405 202.5,-399 202.5,-393 202.5,-393 202.5,-322 202.5,-322 202.5,-316 208.5,-310 214.5,-310"/>
<text text-anchor="start" x="238" y="-392.2" font-family="Arial Bold" font-size="11.00">SellCryptoOrder</text>
<polyline fill="none" stroke="black" points="202.5,-385 363.5,-385 "/>
<text text-anchor="start" x="210" y="-371.5" font-family="Arial" font-size="10.00">currency_id </text>
<text text-anchor="start" x="264" y="-371.5" font-family="Arial Italic" font-size="10.00" fill="#999999">integer (8) ∗ FK</text>
<text text-anchor="start" x="210" y="-358.5" font-family="Arial" font-size="10.00">paid_amount </text>
<text text-anchor="start" x="269" y="-358.5" font-family="Arial Italic" font-size="10.00" fill="#999999">decimal (20,10) ∗</text>
<text text-anchor="start" x="210" y="-345.5" font-family="Arial" font-size="10.00">received_amount_cents </text>
<text text-anchor="start" x="317" y="-345.5" font-family="Arial Italic" font-size="10.00" fill="#999999">integer ∗</text>
<text text-anchor="start" x="210" y="-332.5" font-family="Arial" font-size="10.00">status </text>
<text text-anchor="start" x="241" y="-332.5" font-family="Arial Italic" font-size="10.00" fill="#999999">string ∗</text>
<text text-anchor="start" x="210" y="-319.5" font-family="Arial" font-size="10.00">user_id </text>
<text text-anchor="start" x="245" y="-319.5" font-family="Arial Italic" font-size="10.00" fill="#999999">integer (8) ∗ FK</text>
</g>
<!-- m_Currency&#45;&gt;m_SellCryptoOrder -->
<g id="edge10" class="edge">
<title>m_Currency&#45;&gt;m_SellCryptoOrder</title>
<path fill="none" stroke="black" d="M151.39,-397.99C165.03,-393.76 179.51,-389.27 193.68,-384.88"/>
<polygon fill="black" stroke="black" points="194.78,-387.84 202.45,-382.16 192.92,-381.82 194.78,-387.84"/>
</g>
<!-- m_StakeOrder -->
<g id="node8" class="node">
<title>m_StakeOrder</title>
<path fill="none" stroke="black" d="M223,-185C223,-185 343,-185 343,-185 349,-185 355,-191 355,-197 355,-197 355,-268 355,-268 355,-274 349,-280 343,-280 343,-280 223,-280 223,-280 217,-280 211,-274 211,-268 211,-268 211,-197 211,-197 211,-191 217,-185 223,-185"/>
<text text-anchor="start" x="251" y="-267.2" font-family="Arial Bold" font-size="11.00">StakeOrder</text>
<polyline fill="none" stroke="black" points="211,-260 355,-260 "/>
<text text-anchor="start" x="218" y="-246.5" font-family="Arial" font-size="10.00">amount </text>
<text text-anchor="start" x="254" y="-246.5" font-family="Arial Italic" font-size="10.00" fill="#999999">decimal (20,10) ∗</text>
<text text-anchor="start" x="218" y="-233.5" font-family="Arial" font-size="10.00">currency_id </text>
<text text-anchor="start" x="272" y="-233.5" font-family="Arial Italic" font-size="10.00" fill="#999999">integer (8) FK</text>
<text text-anchor="start" x="218" y="-220.5" font-family="Arial" font-size="10.00">pool_name </text>
<text text-anchor="start" x="269" y="-220.5" font-family="Arial Italic" font-size="10.00" fill="#999999">string ∗</text>
<text text-anchor="start" x="218" y="-207.5" font-family="Arial" font-size="10.00">status </text>
<text text-anchor="start" x="249" y="-207.5" font-family="Arial Italic" font-size="10.00" fill="#999999">string ∗</text>
<text text-anchor="start" x="218" y="-194.5" font-family="Arial" font-size="10.00">user_id </text>
<text text-anchor="start" x="253" y="-194.5" font-family="Arial Italic" font-size="10.00" fill="#999999">integer (8) ∗ FK</text>
</g>
<!-- m_Currency&#45;&gt;m_StakeOrder -->
<g id="edge12" class="edge">
<title>m_Currency&#45;&gt;m_StakeOrder</title>
<path fill="none" stroke="black" d="M100.24,-397.8C122.24,-372.15 160.91,-328.76 198,-295.5 201.47,-292.38 205.09,-289.26 208.79,-286.17"/>
<polygon fill="black" stroke="black" points="211.04,-288.4 215.99,-280.25 207.04,-283.53 211.04,-288.4"/>
</g>
<!-- m_FiatBalance -->
<g id="node5" class="node">
<title>m_FiatBalance</title>
<path fill="none" stroke="black" d="M223,-86C223,-86 343,-86 343,-86 349,-86 355,-92 355,-98 355,-98 355,-143 355,-143 355,-149 349,-155 343,-155 343,-155 223,-155 223,-155 217,-155 211,-149 211,-143 211,-143 211,-98 211,-98 211,-92 217,-86 223,-86"/>
<text text-anchor="start" x="250" y="-142.2" font-family="Arial Bold" font-size="11.00">FiatBalance</text>
<polyline fill="none" stroke="black" points="211,-135 355,-135 "/>
<text text-anchor="start" x="218" y="-121.5" font-family="Arial" font-size="10.00">amount_cents </text>
<text text-anchor="start" x="283" y="-121.5" font-family="Arial Italic" font-size="10.00" fill="#999999">integer ∗</text>
<text text-anchor="start" x="218" y="-108.5" font-family="Arial" font-size="10.00">amount_currency </text>
<text text-anchor="start" x="297" y="-108.5" font-family="Arial Italic" font-size="10.00" fill="#999999">string ∗</text>
<text text-anchor="start" x="218" y="-95.5" font-family="Arial" font-size="10.00">user_id </text>
<text text-anchor="start" x="253" y="-95.5" font-family="Arial Italic" font-size="10.00" fill="#999999">integer (8) ∗ FK</text>
</g>
<!-- m_FiatBalance&#45;&gt;m_PaperTrail::Version -->
<g id="edge2" class="edge">
<title>m_FiatBalance&#45;&gt;m_PaperTrail::Version</title>
<path fill="none" stroke="black" d="M351.08,-155.1C357.13,-159.53 362.89,-164.34 368,-169.5 405.48,-207.38 434.29,-261.04 452.52,-301.33"/>
<polygon fill="black" stroke="black" points="449.71,-302.78 456.25,-309.72 455.47,-300.22 449.71,-302.78"/>
</g>
<!-- m_User -->
<g id="node9" class="node">
<title>m_User</title>
<path fill="none" stroke="black" d="M12,-165.5C12,-165.5 150,-165.5 150,-165.5 156,-165.5 162,-171.5 162,-177.5 162,-177.5 162,-287.5 162,-287.5 162,-293.5 156,-299.5 150,-299.5 150,-299.5 12,-299.5 12,-299.5 6,-299.5 0,-293.5 0,-287.5 0,-287.5 0,-177.5 0,-177.5 0,-171.5 6,-165.5 12,-165.5"/>
<text text-anchor="start" x="66.5" y="-286.7" font-family="Arial Bold" font-size="11.00">User</text>
<polyline fill="none" stroke="black" points="0,-279.5 162,-279.5 "/>
<text text-anchor="start" x="7" y="-266.5" font-family="Arial" font-size="10.00">email </text>
<text text-anchor="start" x="34" y="-266.5" font-family="Arial Italic" font-size="10.00" fill="#999999">string ∗ U</text>
<text text-anchor="start" x="7" y="-253.5" font-family="Arial" font-size="10.00">encrypted_password </text>
<text text-anchor="start" x="101" y="-253.5" font-family="Arial Italic" font-size="10.00" fill="#999999">string ∗</text>
<text text-anchor="start" x="7" y="-240.5" font-family="Arial" font-size="10.00">first_name </text>
<text text-anchor="start" x="56" y="-240.5" font-family="Arial Italic" font-size="10.00" fill="#999999">string ∗</text>
<text text-anchor="start" x="7" y="-227.5" font-family="Arial" font-size="10.00">last_name </text>
<text text-anchor="start" x="56" y="-227.5" font-family="Arial Italic" font-size="10.00" fill="#999999">string ∗</text>
<text text-anchor="start" x="7" y="-214.5" font-family="Arial" font-size="10.00">remember_created_at </text>
<text text-anchor="start" x="105" y="-214.5" font-family="Arial Italic" font-size="10.00" fill="#999999">datetime</text>
<text text-anchor="start" x="7" y="-201.5" font-family="Arial" font-size="10.00">reset_password_sent_at </text>
<text text-anchor="start" x="117" y="-201.5" font-family="Arial Italic" font-size="10.00" fill="#999999">datetime</text>
<text text-anchor="start" x="7" y="-188.5" font-family="Arial" font-size="10.00">reset_password_token </text>
<text text-anchor="start" x="109" y="-188.5" font-family="Arial Italic" font-size="10.00" fill="#999999">string</text>
<text text-anchor="start" x="7" y="-175.5" font-family="Arial" font-size="10.00">wallet_address </text>
<text text-anchor="start" x="76" y="-175.5" font-family="Arial Italic" font-size="10.00" fill="#999999">string</text>
</g>
<!-- m_User&#45;&gt;m_Balance -->
<g id="edge5" class="edge">
<title>m_User&#45;&gt;m_Balance</title>
<path fill="none" stroke="black" d="M122.66,-299.86C136.72,-325.37 151.54,-355.1 162,-383.5 187.49,-452.71 154.51,-485.93 198,-545.5 200.01,-548.25 202.23,-550.88 204.6,-553.37"/>
<polygon fill="black" stroke="black" points="202.54,-555.76 211.23,-559.69 206.89,-551.2 202.54,-555.76"/>
</g>
<!-- m_User&#45;&gt;m_BuyCryptoOrder -->
<g id="edge7" class="edge">
<title>m_User&#45;&gt;m_BuyCryptoOrder</title>
<path fill="none" stroke="black" d="M115.31,-299.85C135.98,-337.74 164.89,-384.52 198,-420.5 200.55,-423.28 203.25,-426.01 206.04,-428.69"/>
<polygon fill="black" stroke="black" points="203.97,-431.07 212.73,-434.85 208.24,-426.43 203.97,-431.07"/>
</g>
<!-- m_User&#45;&gt;m_FiatBalance -->
<g id="edge6" class="edge">
<title>m_User&#45;&gt;m_FiatBalance</title>
<path fill="none" stroke="black" d="M162.2,-187.59C181.54,-176.76 201.91,-165.35 220.26,-155.07"/>
</g>
<!-- m_User&#45;&gt;m_SellCryptoOrder -->
<g id="edge9" class="edge">
<title>m_User&#45;&gt;m_SellCryptoOrder</title>
<path fill="none" stroke="black" d="M162.2,-282.62C173.96,-289.98 186.11,-297.57 197.95,-304.97"/>
<polygon fill="black" stroke="black" points="196.38,-307.7 205.68,-309.8 199.72,-302.36 196.38,-307.7"/>
</g>
<!-- m_User&#45;&gt;m_StakeOrder -->
<g id="edge4" class="edge">
<title>m_User&#45;&gt;m_StakeOrder</title>
<path fill="none" stroke="black" d="M162.2,-232.5C175.14,-232.5 188.54,-232.5 201.49,-232.5"/>
<polygon fill="black" stroke="black" points="201.83,-235.65 210.83,-232.5 201.83,-229.35 201.83,-235.65"/>
</g>
<!-- m_UserDocument -->
<g id="node10" class="node">
<title>m_UserDocument</title>
<path fill="none" stroke="black" d="M223,-0.5C223,-0.5 343,-0.5 343,-0.5 349,-0.5 355,-6.5 355,-12.5 355,-12.5 355,-44.5 355,-44.5 355,-50.5 349,-56.5 343,-56.5 343,-56.5 223,-56.5 223,-56.5 217,-56.5 211,-50.5 211,-44.5 211,-44.5 211,-12.5 211,-12.5 211,-6.5 217,-0.5 223,-0.5"/>
<text text-anchor="start" x="241.5" y="-43.7" font-family="Arial Bold" font-size="11.00">UserDocument</text>
<polyline fill="none" stroke="black" points="211,-36.5 355,-36.5 "/>
<text text-anchor="start" x="218" y="-23.5" font-family="Arial" font-size="10.00">status </text>
<text text-anchor="start" x="249" y="-23.5" font-family="Arial Italic" font-size="10.00" fill="#999999">string ∗</text>
<text text-anchor="start" x="218" y="-10.5" font-family="Arial" font-size="10.00">user_id </text>
<text text-anchor="start" x="253" y="-10.5" font-family="Arial Italic" font-size="10.00" fill="#999999">integer (8) ∗ FK</text>
</g>
<!-- m_User&#45;&gt;m_UserDocument -->
<g id="edge3" class="edge">
<title>m_User&#45;&gt;m_UserDocument</title>
<path fill="none" stroke="black" d="M150.29,-165.23C154.45,-160.06 158.4,-154.8 162,-149.5 183.7,-117.6 171.21,-98.27 198,-70.5 200.88,-67.51 204.02,-64.71 207.33,-62.07"/>
<polygon fill="black" stroke="black" points="209.43,-64.44 214.84,-56.58 205.71,-59.35 209.43,-64.44"/>
</g>
</g>
</svg>
