<?xml version="1.0" encoding="UTF-8" standalone="no"?>
<!DOCTYPE svg PUBLIC "-//W3C//DTD SVG 1.1//EN"
 "http://www.w3.org/Graphics/SVG/1.1/DTD/svg11.dtd">
<!-- Generated by graphviz version 2.48.0 (0)
 -->
<!-- Title: XStake Pages: 1 -->
<svg width="426pt" height="712pt"
 viewBox="0.00 0.00 425.60 712.10" xmlns="http://www.w3.org/2000/svg" xmlns:xlink="http://www.w3.org/1999/xlink">
<g id="graph0" class="graph" transform="scale(1 1) rotate(0) translate(28.8 683.3)">
<title>XStake</title>
<polygon fill="white" stroke="transparent" points="-28.8,28.8 -28.8,-683.3 396.8,-683.3 396.8,28.8 -28.8,28.8"/>
<text text-anchor="middle" x="184" y="-640.1" font-family="Arial Bold" font-size="13.00">XStake domain model</text>
<!-- m_AdminUser -->
<g id="node1" class="node">
<title>m_AdminUser</title>
<path fill="none" stroke="black" d="M12,-48C12,-48 150,-48 150,-48 156,-48 162,-54 162,-60 162,-60 162,-131 162,-131 162,-137 156,-143 150,-143 150,-143 12,-143 12,-143 6,-143 0,-137 0,-131 0,-131 0,-60 0,-60 0,-54 6,-48 12,-48"/>
<text text-anchor="start" x="49" y="-130.2" font-family="Arial Bold" font-size="11.00">AdminUser</text>
<polyline fill="none" stroke="black" points="0,-123 162,-123 "/>
<text text-anchor="start" x="7" y="-109.5" font-family="Arial" font-size="10.00">email </text>
<text text-anchor="start" x="34" y="-109.5" font-family="Arial Italic" font-size="10.00" fill="#999999">string ∗ U</text>
<text text-anchor="start" x="7" y="-96.5" font-family="Arial" font-size="10.00">encrypted_password </text>
<text text-anchor="start" x="101" y="-96.5" font-family="Arial Italic" font-size="10.00" fill="#999999">string ∗</text>
<text text-anchor="start" x="7" y="-83.5" font-family="Arial" font-size="10.00">remember_created_at </text>
<text text-anchor="start" x="105" y="-83.5" font-family="Arial Italic" font-size="10.00" fill="#999999">datetime</text>
<text text-anchor="start" x="7" y="-70.5" font-family="Arial" font-size="10.00">reset_password_sent_at </text>
<text text-anchor="start" x="117" y="-70.5" font-family="Arial Italic" font-size="10.00" fill="#999999">datetime</text>
<text text-anchor="start" x="7" y="-57.5" font-family="Arial" font-size="10.00">reset_password_token </text>
<text text-anchor="start" x="109" y="-57.5" font-family="Arial Italic" font-size="10.00" fill="#999999">string</text>
</g>
<!-- m_Balance -->
<g id="node2" class="node">
<title>m_Balance</title>
<path fill="none" stroke="black" d="M223,-548C223,-548 343,-548 343,-548 349,-548 355,-554 355,-560 355,-560 355,-605 355,-605 355,-611 349,-617 343,-617 343,-617 223,-617 223,-617 217,-617 211,-611 211,-605 211,-605 211,-560 211,-560 211,-554 217,-548 223,-548"/>
<text text-anchor="start" x="259.5" y="-604.2" font-family="Arial Bold" font-size="11.00">Balance</text>
<polyline fill="none" stroke="black" points="211,-597 355,-597 "/>
<text text-anchor="start" x="218" y="-583.5" font-family="Arial" font-size="10.00">amount </text>
<text text-anchor="start" x="254" y="-583.5" font-family="Arial Italic" font-size="10.00" fill="#999999">decimal (20,10) ∗</text>
<text text-anchor="start" x="218" y="-570.5" font-family="Arial" font-size="10.00">currency_id </text>
<text text-anchor="start" x="272" y="-570.5" font-family="Arial Italic" font-size="10.00" fill="#999999">integer (8) ∗ FK</text>
<text text-anchor="start" x="218" y="-557.5" font-family="Arial" font-size="10.00">user_id </text>
<text text-anchor="start" x="253" y="-557.5" font-family="Arial Italic" font-size="10.00" fill="#999999">integer (8) ∗ FK</text>
</g>
<!-- m_BuyCryptoOrder -->
<g id="node3" class="node">
<title>m_BuyCryptoOrder</title>
<path fill="none" stroke="black" d="M210,-423C210,-423 356,-423 356,-423 362,-423 368,-429 368,-435 368,-435 368,-506 368,-506 368,-512 362,-518 356,-518 356,-518 210,-518 210,-518 204,-518 198,-512 198,-506 198,-506 198,-435 198,-435 198,-429 204,-423 210,-423"/>
<text text-anchor="start" x="237" y="-505.2" font-family="Arial Bold" font-size="11.00">BuyCryptoOrder</text>
<polyline fill="none" stroke="black" points="198,-498 368,-498 "/>
<text text-anchor="start" x="205" y="-484.5" font-family="Arial" font-size="10.00">currency_id </text>
<text text-anchor="start" x="259" y="-484.5" font-family="Arial Italic" font-size="10.00" fill="#999999">integer (8) ∗ FK</text>
<text text-anchor="start" x="205" y="-471.5" font-family="Arial" font-size="10.00">paid_amount_cents </text>
<text text-anchor="start" x="293" y="-471.5" font-family="Arial Italic" font-size="10.00" fill="#999999">integer ∗</text>
<text text-anchor="start" x="205" y="-458.5" font-family="Arial" font-size="10.00">received_amount </text>
<text text-anchor="start" x="283" y="-458.5" font-family="Arial Italic" font-size="10.00" fill="#999999">decimal (20,10) ∗</text>
<text text-anchor="start" x="205" y="-445.5" font-family="Arial" font-size="10.00">status </text>
<text text-anchor="start" x="236" y="-445.5" font-family="Arial Italic" font-size="10.00" fill="#999999">string ∗</text>
<text text-anchor="start" x="205" y="-432.5" font-family="Arial" font-size="10.00">user_id </text>
<text text-anchor="start" x="240" y="-432.5" font-family="Arial Italic" font-size="10.00" fill="#999999">integer (8) ∗ FK</text>
</g>
<!-- m_Currency -->
<g id="node4" class="node">
<title>m_Currency</title>
<path fill="none" stroke="black" d="M21,-449C21,-449 141,-449 141,-449 147,-449 153,-455 153,-461 153,-461 153,-480 153,-480 153,-486 147,-492 141,-492 141,-492 21,-492 21,-492 15,-492 9,-486 9,-480 9,-480 9,-461 9,-461 9,-455 15,-449 21,-449"/>
<text text-anchor="start" x="54.5" y="-479.2" font-family="Arial Bold" font-size="11.00">Currency</text>
<polyline fill="none" stroke="black" points="9,-472 153,-472 "/>
<text text-anchor="start" x="16" y="-458.5" font-family="Arial" font-size="10.00">name </text>
<text text-anchor="start" x="44" y="-458.5" font-family="Arial Italic" font-size="10.00" fill="#999999">string ∗</text>
</g>
<!-- m_Currency&#45;&gt;m_Balance -->
<g id="edge8" class="edge">
<title>m_Currency&#45;&gt;m_Balance</title>
<path fill="none" stroke="black" d="M120.56,-492.09C146.51,-506.62 181.46,-526.2 212.21,-543.42"/>
<polygon fill="black" stroke="black" points="210.95,-546.32 220.34,-547.97 214.03,-540.83 210.95,-546.32"/>
</g>
<!-- m_Currency&#45;&gt;m_BuyCryptoOrder -->
<g id="edge5" class="edge">
<title>m_Currency&#45;&gt;m_BuyCryptoOrder</title>
<path fill="none" stroke="black" d="M153.08,-470.5C164.62,-470.5 176.72,-470.5 188.7,-470.5"/>
<polygon fill="black" stroke="black" points="188.82,-473.65 197.82,-470.5 188.82,-467.35 188.82,-473.65"/>
</g>
<!-- m_SellCryptoOrder -->
<g id="node6" class="node">
<title>m_SellCryptoOrder</title>
<path fill="none" stroke="black" d="M214.5,-298C214.5,-298 351.5,-298 351.5,-298 357.5,-298 363.5,-304 363.5,-310 363.5,-310 363.5,-381 363.5,-381 363.5,-387 357.5,-393 351.5,-393 351.5,-393 214.5,-393 214.5,-393 208.5,-393 202.5,-387 202.5,-381 202.5,-381 202.5,-310 202.5,-310 202.5,-304 208.5,-298 214.5,-298"/>
<text text-anchor="start" x="238" y="-380.2" font-family="Arial Bold" font-size="11.00">SellCryptoOrder</text>
<polyline fill="none" stroke="black" points="202.5,-373 363.5,-373 "/>
<text text-anchor="start" x="210" y="-359.5" font-family="Arial" font-size="10.00">currency_id </text>
<text text-anchor="start" x="264" y="-359.5" font-family="Arial Italic" font-size="10.00" fill="#999999">integer (8) ∗ FK</text>
<text text-anchor="start" x="210" y="-346.5" font-family="Arial" font-size="10.00">paid_amount </text>
<text text-anchor="start" x="269" y="-346.5" font-family="Arial Italic" font-size="10.00" fill="#999999">decimal (20,10) ∗</text>
<text text-anchor="start" x="210" y="-333.5" font-family="Arial" font-size="10.00">received_amount_cents </text>
<text text-anchor="start" x="317" y="-333.5" font-family="Arial Italic" font-size="10.00" fill="#999999">integer ∗</text>
<text text-anchor="start" x="210" y="-320.5" font-family="Arial" font-size="10.00">status </text>
<text text-anchor="start" x="241" y="-320.5" font-family="Arial Italic" font-size="10.00" fill="#999999">string ∗</text>
<text text-anchor="start" x="210" y="-307.5" font-family="Arial" font-size="10.00">user_id </text>
<text text-anchor="start" x="245" y="-307.5" font-family="Arial Italic" font-size="10.00" fill="#999999">integer (8) ∗ FK</text>
</g>
<!-- m_Currency&#45;&gt;m_SellCryptoOrder -->
<g id="edge7" class="edge">
<title>m_Currency&#45;&gt;m_SellCryptoOrder</title>
<path fill="none" stroke="black" d="M116.84,-448.73C139.24,-434.72 169.37,-415.89 197.77,-398.15"/>
<polygon fill="black" stroke="black" points="199.76,-400.62 205.72,-393.18 196.42,-395.27 199.76,-400.62"/>
</g>
<!-- m_FiatBalance -->
<g id="node5" class="node">
<title>m_FiatBalance</title>
<path fill="none" stroke="black" d="M223,-199C223,-199 343,-199 343,-199 349,-199 355,-205 355,-211 355,-211 355,-256 355,-256 355,-262 349,-268 343,-268 343,-268 223,-268 223,-268 217,-268 211,-262 211,-256 211,-256 211,-211 211,-211 211,-205 217,-199 223,-199"/>
<text text-anchor="start" x="250" y="-255.2" font-family="Arial Bold" font-size="11.00">FiatBalance</text>
<polyline fill="none" stroke="black" points="211,-248 355,-248 "/>
<text text-anchor="start" x="218" y="-234.5" font-family="Arial" font-size="10.00">amount_cents </text>
<text text-anchor="start" x="283" y="-234.5" font-family="Arial Italic" font-size="10.00" fill="#999999">integer ∗</text>
<text text-anchor="start" x="218" y="-221.5" font-family="Arial" font-size="10.00">amount_currency </text>
<text text-anchor="start" x="297" y="-221.5" font-family="Arial Italic" font-size="10.00" fill="#999999">string ∗</text>
<text text-anchor="start" x="218" y="-208.5" font-family="Arial" font-size="10.00">user_id </text>
<text text-anchor="start" x="253" y="-208.5" font-family="Arial Italic" font-size="10.00" fill="#999999">integer (8) ∗ FK</text>
</g>
<!-- m_StakeOrder -->
<g id="node7" class="node">
<title>m_StakeOrder</title>
<path fill="none" stroke="black" d="M223,-86.5C223,-86.5 343,-86.5 343,-86.5 349,-86.5 355,-92.5 355,-98.5 355,-98.5 355,-156.5 355,-156.5 355,-162.5 349,-168.5 343,-168.5 343,-168.5 223,-168.5 223,-168.5 217,-168.5 211,-162.5 211,-156.5 211,-156.5 211,-98.5 211,-98.5 211,-92.5 217,-86.5 223,-86.5"/>
<text text-anchor="start" x="251" y="-155.7" font-family="Arial Bold" font-size="11.00">StakeOrder</text>
<polyline fill="none" stroke="black" points="211,-148.5 355,-148.5 "/>
<text text-anchor="start" x="218" y="-135.5" font-family="Arial" font-size="10.00">amount </text>
<text text-anchor="start" x="254" y="-135.5" font-family="Arial Italic" font-size="10.00" fill="#999999">decimal (20,10) ∗</text>
<text text-anchor="start" x="218" y="-122.5" font-family="Arial" font-size="10.00">pool_name </text>
<text text-anchor="start" x="269" y="-122.5" font-family="Arial Italic" font-size="10.00" fill="#999999">string ∗</text>
<text text-anchor="start" x="218" y="-109.5" font-family="Arial" font-size="10.00">status </text>
<text text-anchor="start" x="249" y="-109.5" font-family="Arial Italic" font-size="10.00" fill="#999999">string ∗</text>
<text text-anchor="start" x="218" y="-96.5" font-family="Arial" font-size="10.00">user_id </text>
<text text-anchor="start" x="253" y="-96.5" font-family="Arial Italic" font-size="10.00" fill="#999999">integer (8) ∗ FK</text>
</g>
<!-- m_User -->
<g id="node8" class="node">
<title>m_User</title>
<path fill="none" stroke="black" d="M12,-173C12,-173 150,-173 150,-173 156,-173 162,-179 162,-185 162,-185 162,-282 162,-282 162,-288 156,-294 150,-294 150,-294 12,-294 12,-294 6,-294 0,-288 0,-282 0,-282 0,-185 0,-185 0,-179 6,-173 12,-173"/>
<text text-anchor="start" x="66.5" y="-281.2" font-family="Arial Bold" font-size="11.00">User</text>
<polyline fill="none" stroke="black" points="0,-274 162,-274 "/>
<text text-anchor="start" x="7" y="-260.5" font-family="Arial" font-size="10.00">email </text>
<text text-anchor="start" x="34" y="-260.5" font-family="Arial Italic" font-size="10.00" fill="#999999">string ∗ U</text>
<text text-anchor="start" x="7" y="-247.5" font-family="Arial" font-size="10.00">encrypted_password </text>
<text text-anchor="start" x="101" y="-247.5" font-family="Arial Italic" font-size="10.00" fill="#999999">string ∗</text>
<text text-anchor="start" x="7" y="-234.5" font-family="Arial" font-size="10.00">first_name </text>
<text text-anchor="start" x="56" y="-234.5" font-family="Arial Italic" font-size="10.00" fill="#999999">string ∗</text>
<text text-anchor="start" x="7" y="-221.5" font-family="Arial" font-size="10.00">last_name </text>
<text text-anchor="start" x="56" y="-221.5" font-family="Arial Italic" font-size="10.00" fill="#999999">string ∗</text>
<text text-anchor="start" x="7" y="-208.5" font-family="Arial" font-size="10.00">remember_created_at </text>
<text text-anchor="start" x="105" y="-208.5" font-family="Arial Italic" font-size="10.00" fill="#999999">datetime</text>
<text text-anchor="start" x="7" y="-195.5" font-family="Arial" font-size="10.00">reset_password_sent_at </text>
<text text-anchor="start" x="117" y="-195.5" font-family="Arial Italic" font-size="10.00" fill="#999999">datetime</text>
<text text-anchor="start" x="7" y="-182.5" font-family="Arial" font-size="10.00">reset_password_token </text>
<text text-anchor="start" x="109" y="-182.5" font-family="Arial Italic" font-size="10.00" fill="#999999">string</text>
</g>
<!-- m_User&#45;&gt;m_Balance -->
<g id="edge2" class="edge">
<title>m_User&#45;&gt;m_Balance</title>
<path fill="none" stroke="black" d="M106.63,-294.01C122.7,-333.81 143.96,-387.11 162,-434.5 178.66,-478.25 167.99,-497.56 198,-533.5 200.43,-536.42 203.09,-539.2 205.91,-541.85"/>
<polygon fill="black" stroke="black" points="203.89,-544.27 212.76,-547.79 208.02,-539.51 203.89,-544.27"/>
</g>
<!-- m_User&#45;&gt;m_BuyCryptoOrder -->
<g id="edge4" class="edge">
<title>m_User&#45;&gt;m_BuyCryptoOrder</title>
<path fill="none" stroke="black" d="M115.16,-294.4C136.17,-329.91 165.48,-374.29 198,-408.5 200.6,-411.23 203.33,-413.93 206.16,-416.59"/>
<polygon fill="black" stroke="black" points="204.11,-418.98 212.9,-422.68 208.34,-414.31 204.11,-418.98"/>
</g>
<!-- m_User&#45;&gt;m_FiatBalance -->
<g id="edge3" class="edge">
<title>m_User&#45;&gt;m_FiatBalance</title>
<path fill="none" stroke="black" d="M162.2,-233.5C178.28,-233.5 195.08,-233.5 210.83,-233.5"/>
</g>
<!-- m_User&#45;&gt;m_SellCryptoOrder -->
<g id="edge6" class="edge">
<title>m_User&#45;&gt;m_SellCryptoOrder</title>
<path fill="none" stroke="black" d="M162.2,-278.41C172.76,-284.33 183.63,-290.41 194.32,-296.4"/>
<polygon fill="black" stroke="black" points="193.05,-299.3 202.44,-300.95 196.12,-293.8 193.05,-299.3"/>
</g>
<!-- m_User&#45;&gt;m_StakeOrder -->
<g id="edge9" class="edge">
<title>m_User&#45;&gt;m_StakeOrder</title>
<path fill="none" stroke="black" d="M162.2,-191C175.51,-183.94 189.32,-176.62 202.62,-169.57"/>
<polygon fill="black" stroke="black" points="204.35,-172.22 210.83,-165.22 201.4,-166.65 204.35,-172.22"/>
</g>
<!-- m_UserDocument -->
<g id="node9" class="node">
<title>m_UserDocument</title>
<path fill="none" stroke="black" d="M223,-0.5C223,-0.5 343,-0.5 343,-0.5 349,-0.5 355,-6.5 355,-12.5 355,-12.5 355,-44.5 355,-44.5 355,-50.5 349,-56.5 343,-56.5 343,-56.5 223,-56.5 223,-56.5 217,-56.5 211,-50.5 211,-44.5 211,-44.5 211,-12.5 211,-12.5 211,-6.5 217,-0.5 223,-0.5"/>
<text text-anchor="start" x="241.5" y="-43.7" font-family="Arial Bold" font-size="11.00">UserDocument</text>
<polyline fill="none" stroke="black" points="211,-36.5 355,-36.5 "/>
<text text-anchor="start" x="218" y="-23.5" font-family="Arial" font-size="10.00">status </text>
<text text-anchor="start" x="249" y="-23.5" font-family="Arial Italic" font-size="10.00" fill="#999999">string ∗</text>
<text text-anchor="start" x="218" y="-10.5" font-family="Arial" font-size="10.00">user_id </text>
<text text-anchor="start" x="253" y="-10.5" font-family="Arial Italic" font-size="10.00" fill="#999999">integer (8) ∗ FK</text>
</g>
<!-- m_User&#45;&gt;m_UserDocument -->
<g id="edge1" class="edge">
<title>m_User&#45;&gt;m_UserDocument</title>
<path fill="none" stroke="black" d="M150.99,-172.78C154.93,-168.13 158.64,-163.35 162,-158.5 185.8,-124.08 169.63,-102.26 198,-71.5 201.11,-68.12 204.55,-64.97 208.21,-62.04"/>
<polygon fill="black" stroke="black" points="210.12,-64.54 215.48,-56.65 206.37,-59.48 210.12,-64.54"/>
</g>
</g>
</svg>
