<?xml version="1.0" encoding="UTF-8" standalone="no"?>
<!DOCTYPE svg PUBLIC "-//W3C//DTD SVG 1.1//EN"
 "http://www.w3.org/Graphics/SVG/1.1/DTD/svg11.dtd">
<!-- Generated by graphviz version 2.48.0 (0)
 -->
<!-- Title: XStake Pages: 1 -->
<svg width="426pt" height="606pt"
 viewBox="0.00 0.00 425.60 605.60" xmlns="http://www.w3.org/2000/svg" xmlns:xlink="http://www.w3.org/1999/xlink">
<g id="graph0" class="graph" transform="scale(1 1) rotate(0) translate(28.8 576.8)">
<title>XStake</title>
<polygon fill="white" stroke="transparent" points="-28.8,28.8 -28.8,-576.8 396.8,-576.8 396.8,28.8 -28.8,28.8"/>
<text text-anchor="middle" x="184" y="-533.6" font-family="Arial Bold" font-size="13.00">XStake domain model</text>
<!-- m_AdminUser -->
<g id="node1" class="node">
<title>m_AdminUser</title>
<path fill="none" stroke="black" d="M12,-0.5C12,-0.5 150,-0.5 150,-0.5 156,-0.5 162,-6.5 162,-12.5 162,-12.5 162,-83.5 162,-83.5 162,-89.5 156,-95.5 150,-95.5 150,-95.5 12,-95.5 12,-95.5 6,-95.5 0,-89.5 0,-83.5 0,-83.5 0,-12.5 0,-12.5 0,-6.5 6,-0.5 12,-0.5"/>
<text text-anchor="start" x="49" y="-82.7" font-family="Arial Bold" font-size="11.00">AdminUser</text>
<polyline fill="none" stroke="black" points="0,-75.5 162,-75.5 "/>
<text text-anchor="start" x="7" y="-62" font-family="Arial" font-size="10.00">email </text>
<text text-anchor="start" x="34" y="-62" font-family="Arial Italic" font-size="10.00" fill="#999999">string ∗ U</text>
<text text-anchor="start" x="7" y="-49" font-family="Arial" font-size="10.00">encrypted_password </text>
<text text-anchor="start" x="101" y="-49" font-family="Arial Italic" font-size="10.00" fill="#999999">string ∗</text>
<text text-anchor="start" x="7" y="-36" font-family="Arial" font-size="10.00">remember_created_at </text>
<text text-anchor="start" x="105" y="-36" font-family="Arial Italic" font-size="10.00" fill="#999999">datetime</text>
<text text-anchor="start" x="7" y="-23" font-family="Arial" font-size="10.00">reset_password_sent_at </text>
<text text-anchor="start" x="117" y="-23" font-family="Arial Italic" font-size="10.00" fill="#999999">datetime</text>
<text text-anchor="start" x="7" y="-10" font-family="Arial" font-size="10.00">reset_password_token </text>
<text text-anchor="start" x="109" y="-10" font-family="Arial Italic" font-size="10.00" fill="#999999">string</text>
</g>
<!-- m_Balance -->
<g id="node2" class="node">
<title>m_Balance</title>
<path fill="none" stroke="black" d="M223,-441.5C223,-441.5 343,-441.5 343,-441.5 349,-441.5 355,-447.5 355,-453.5 355,-453.5 355,-498.5 355,-498.5 355,-504.5 349,-510.5 343,-510.5 343,-510.5 223,-510.5 223,-510.5 217,-510.5 211,-504.5 211,-498.5 211,-498.5 211,-453.5 211,-453.5 211,-447.5 217,-441.5 223,-441.5"/>
<text text-anchor="start" x="259.5" y="-497.7" font-family="Arial Bold" font-size="11.00">Balance</text>
<polyline fill="none" stroke="black" points="211,-490.5 355,-490.5 "/>
<text text-anchor="start" x="218" y="-477" font-family="Arial" font-size="10.00">amount </text>
<text text-anchor="start" x="254" y="-477" font-family="Arial Italic" font-size="10.00" fill="#999999">decimal (20,10) ∗</text>
<text text-anchor="start" x="218" y="-464" font-family="Arial" font-size="10.00">currency_id </text>
<text text-anchor="start" x="272" y="-464" font-family="Arial Italic" font-size="10.00" fill="#999999">integer (8) ∗ FK</text>
<text text-anchor="start" x="218" y="-451" font-family="Arial" font-size="10.00">user_id </text>
<text text-anchor="start" x="253" y="-451" font-family="Arial Italic" font-size="10.00" fill="#999999">integer (8) ∗ FK</text>
</g>
<!-- m_BuyCryptoOrder -->
<g id="node3" class="node">
<title>m_BuyCryptoOrder</title>
<path fill="none" stroke="black" d="M210,-316.5C210,-316.5 356,-316.5 356,-316.5 362,-316.5 368,-322.5 368,-328.5 368,-328.5 368,-399.5 368,-399.5 368,-405.5 362,-411.5 356,-411.5 356,-411.5 210,-411.5 210,-411.5 204,-411.5 198,-405.5 198,-399.5 198,-399.5 198,-328.5 198,-328.5 198,-322.5 204,-316.5 210,-316.5"/>
<text text-anchor="start" x="237" y="-398.7" font-family="Arial Bold" font-size="11.00">BuyCryptoOrder</text>
<polyline fill="none" stroke="black" points="198,-391.5 368,-391.5 "/>
<text text-anchor="start" x="205" y="-378" font-family="Arial" font-size="10.00">currency_id </text>
<text text-anchor="start" x="259" y="-378" font-family="Arial Italic" font-size="10.00" fill="#999999">integer (8) ∗ FK</text>
<text text-anchor="start" x="205" y="-365" font-family="Arial" font-size="10.00">paid_amount_cents </text>
<text text-anchor="start" x="293" y="-365" font-family="Arial Italic" font-size="10.00" fill="#999999">integer ∗</text>
<text text-anchor="start" x="205" y="-352" font-family="Arial" font-size="10.00">received_amount </text>
<text text-anchor="start" x="283" y="-352" font-family="Arial Italic" font-size="10.00" fill="#999999">decimal (20,10) ∗</text>
<text text-anchor="start" x="205" y="-339" font-family="Arial" font-size="10.00">status </text>
<text text-anchor="start" x="236" y="-339" font-family="Arial Italic" font-size="10.00" fill="#999999">string ∗</text>
<text text-anchor="start" x="205" y="-326" font-family="Arial" font-size="10.00">user_id </text>
<text text-anchor="start" x="240" y="-326" font-family="Arial Italic" font-size="10.00" fill="#999999">integer (8) ∗ FK</text>
</g>
<!-- m_Currency -->
<g id="node4" class="node">
<title>m_Currency</title>
<path fill="none" stroke="black" d="M21,-342.5C21,-342.5 141,-342.5 141,-342.5 147,-342.5 153,-348.5 153,-354.5 153,-354.5 153,-373.5 153,-373.5 153,-379.5 147,-385.5 141,-385.5 141,-385.5 21,-385.5 21,-385.5 15,-385.5 9,-379.5 9,-373.5 9,-373.5 9,-354.5 9,-354.5 9,-348.5 15,-342.5 21,-342.5"/>
<text text-anchor="start" x="54.5" y="-372.7" font-family="Arial Bold" font-size="11.00">Currency</text>
<polyline fill="none" stroke="black" points="9,-365.5 153,-365.5 "/>
<text text-anchor="start" x="16" y="-352" font-family="Arial" font-size="10.00">name </text>
<text text-anchor="start" x="44" y="-352" font-family="Arial Italic" font-size="10.00" fill="#999999">string ∗</text>
</g>
<!-- m_Currency&#45;&gt;m_Balance -->
<g id="edge8" class="edge">
<title>m_Currency&#45;&gt;m_Balance</title>
<path fill="none" stroke="black" d="M120.56,-385.59C146.51,-400.12 181.46,-419.7 212.21,-436.92"/>
<polygon fill="black" stroke="black" points="210.95,-439.82 220.34,-441.47 214.03,-434.33 210.95,-439.82"/>
</g>
<!-- m_Currency&#45;&gt;m_BuyCryptoOrder -->
<g id="edge5" class="edge">
<title>m_Currency&#45;&gt;m_BuyCryptoOrder</title>
<path fill="none" stroke="black" d="M153.08,-364C164.62,-364 176.72,-364 188.7,-364"/>
<polygon fill="black" stroke="black" points="188.82,-367.15 197.82,-364 188.82,-360.85 188.82,-367.15"/>
</g>
<!-- m_SellCryptoOrder -->
<g id="node6" class="node">
<title>m_SellCryptoOrder</title>
<path fill="none" stroke="black" d="M214.5,-191.5C214.5,-191.5 351.5,-191.5 351.5,-191.5 357.5,-191.5 363.5,-197.5 363.5,-203.5 363.5,-203.5 363.5,-274.5 363.5,-274.5 363.5,-280.5 357.5,-286.5 351.5,-286.5 351.5,-286.5 214.5,-286.5 214.5,-286.5 208.5,-286.5 202.5,-280.5 202.5,-274.5 202.5,-274.5 202.5,-203.5 202.5,-203.5 202.5,-197.5 208.5,-191.5 214.5,-191.5"/>
<text text-anchor="start" x="238" y="-273.7" font-family="Arial Bold" font-size="11.00">SellCryptoOrder</text>
<polyline fill="none" stroke="black" points="202.5,-266.5 363.5,-266.5 "/>
<text text-anchor="start" x="210" y="-253" font-family="Arial" font-size="10.00">currency_id </text>
<text text-anchor="start" x="264" y="-253" font-family="Arial Italic" font-size="10.00" fill="#999999">integer (8) ∗ FK</text>
<text text-anchor="start" x="210" y="-240" font-family="Arial" font-size="10.00">paid_amount </text>
<text text-anchor="start" x="269" y="-240" font-family="Arial Italic" font-size="10.00" fill="#999999">decimal (20,10) ∗</text>
<text text-anchor="start" x="210" y="-227" font-family="Arial" font-size="10.00">received_amount_cents </text>
<text text-anchor="start" x="317" y="-227" font-family="Arial Italic" font-size="10.00" fill="#999999">integer ∗</text>
<text text-anchor="start" x="210" y="-214" font-family="Arial" font-size="10.00">status </text>
<text text-anchor="start" x="241" y="-214" font-family="Arial Italic" font-size="10.00" fill="#999999">string ∗</text>
<text text-anchor="start" x="210" y="-201" font-family="Arial" font-size="10.00">user_id </text>
<text text-anchor="start" x="245" y="-201" font-family="Arial Italic" font-size="10.00" fill="#999999">integer (8) ∗ FK</text>
</g>
<!-- m_Currency&#45;&gt;m_SellCryptoOrder -->
<g id="edge7" class="edge">
<title>m_Currency&#45;&gt;m_SellCryptoOrder</title>
<path fill="none" stroke="black" d="M116.84,-342.23C139.24,-328.22 169.37,-309.39 197.77,-291.65"/>
<polygon fill="black" stroke="black" points="199.76,-294.12 205.72,-286.68 196.42,-288.77 199.76,-294.12"/>
</g>
<!-- m_FiatBalance -->
<g id="node5" class="node">
<title>m_FiatBalance</title>
<path fill="none" stroke="black" d="M223,-6.5C223,-6.5 343,-6.5 343,-6.5 349,-6.5 355,-12.5 355,-18.5 355,-18.5 355,-63.5 355,-63.5 355,-69.5 349,-75.5 343,-75.5 343,-75.5 223,-75.5 223,-75.5 217,-75.5 211,-69.5 211,-63.5 211,-63.5 211,-18.5 211,-18.5 211,-12.5 217,-6.5 223,-6.5"/>
<text text-anchor="start" x="250" y="-62.7" font-family="Arial Bold" font-size="11.00">FiatBalance</text>
<polyline fill="none" stroke="black" points="211,-55.5 355,-55.5 "/>
<text text-anchor="start" x="218" y="-42" font-family="Arial" font-size="10.00">amount_cents </text>
<text text-anchor="start" x="283" y="-42" font-family="Arial Italic" font-size="10.00" fill="#999999">integer ∗</text>
<text text-anchor="start" x="218" y="-29" font-family="Arial" font-size="10.00">amount_currency </text>
<text text-anchor="start" x="297" y="-29" font-family="Arial Italic" font-size="10.00" fill="#999999">string ∗</text>
<text text-anchor="start" x="218" y="-16" font-family="Arial" font-size="10.00">user_id </text>
<text text-anchor="start" x="253" y="-16" font-family="Arial Italic" font-size="10.00" fill="#999999">integer (8) ∗ FK</text>
</g>
<!-- m_User -->
<g id="node7" class="node">
<title>m_User</title>
<path fill="none" stroke="black" d="M12,-125.5C12,-125.5 150,-125.5 150,-125.5 156,-125.5 162,-131.5 162,-137.5 162,-137.5 162,-234.5 162,-234.5 162,-240.5 156,-246.5 150,-246.5 150,-246.5 12,-246.5 12,-246.5 6,-246.5 0,-240.5 0,-234.5 0,-234.5 0,-137.5 0,-137.5 0,-131.5 6,-125.5 12,-125.5"/>
<text text-anchor="start" x="66.5" y="-233.7" font-family="Arial Bold" font-size="11.00">User</text>
<polyline fill="none" stroke="black" points="0,-226.5 162,-226.5 "/>
<text text-anchor="start" x="7" y="-213" font-family="Arial" font-size="10.00">email </text>
<text text-anchor="start" x="34" y="-213" font-family="Arial Italic" font-size="10.00" fill="#999999">string ∗ U</text>
<text text-anchor="start" x="7" y="-200" font-family="Arial" font-size="10.00">encrypted_password </text>
<text text-anchor="start" x="101" y="-200" font-family="Arial Italic" font-size="10.00" fill="#999999">string ∗</text>
<text text-anchor="start" x="7" y="-187" font-family="Arial" font-size="10.00">first_name </text>
<text text-anchor="start" x="56" y="-187" font-family="Arial Italic" font-size="10.00" fill="#999999">string ∗</text>
<text text-anchor="start" x="7" y="-174" font-family="Arial" font-size="10.00">last_name </text>
<text text-anchor="start" x="56" y="-174" font-family="Arial Italic" font-size="10.00" fill="#999999">string ∗</text>
<text text-anchor="start" x="7" y="-161" font-family="Arial" font-size="10.00">remember_created_at </text>
<text text-anchor="start" x="105" y="-161" font-family="Arial Italic" font-size="10.00" fill="#999999">datetime</text>
<text text-anchor="start" x="7" y="-148" font-family="Arial" font-size="10.00">reset_password_sent_at </text>
<text text-anchor="start" x="117" y="-148" font-family="Arial Italic" font-size="10.00" fill="#999999">datetime</text>
<text text-anchor="start" x="7" y="-135" font-family="Arial" font-size="10.00">reset_password_token </text>
<text text-anchor="start" x="109" y="-135" font-family="Arial Italic" font-size="10.00" fill="#999999">string</text>
</g>
<!-- m_User&#45;&gt;m_Balance -->
<g id="edge2" class="edge">
<title>m_User&#45;&gt;m_Balance</title>
<path fill="none" stroke="black" d="M119.1,-246.71C133.45,-271.44 149.41,-300.62 162,-328 181.56,-370.54 167.99,-391.06 198,-427 200.43,-429.92 203.09,-432.7 205.91,-435.35"/>
<polygon fill="black" stroke="black" points="203.89,-437.77 212.76,-441.29 208.02,-433.01 203.89,-437.77"/>
</g>
<!-- m_User&#45;&gt;m_BuyCryptoOrder -->
<g id="edge4" class="edge">
<title>m_User&#45;&gt;m_BuyCryptoOrder</title>
<path fill="none" stroke="black" d="M139.37,-246.78C157.57,-265.12 178.14,-284.91 198,-302 201.26,-304.81 204.64,-307.63 208.09,-310.44"/>
<polygon fill="black" stroke="black" points="206.25,-313 215.25,-316.17 210.19,-308.08 206.25,-313"/>
</g>
<!-- m_User&#45;&gt;m_FiatBalance -->
<g id="edge3" class="edge">
<title>m_User&#45;&gt;m_FiatBalance</title>
<path fill="none" stroke="black" d="M151.41,-125.47C166.42,-113.26 182.46,-100.85 198,-90 204.92,-85.17 212.34,-80.35 219.8,-75.73"/>
</g>
<!-- m_User&#45;&gt;m_SellCryptoOrder -->
<g id="edge6" class="edge">
<title>m_User&#45;&gt;m_SellCryptoOrder</title>
<path fill="none" stroke="black" d="M162.2,-207.25C172.55,-210 183.21,-212.82 193.69,-215.6"/>
<polygon fill="black" stroke="black" points="192.93,-218.66 202.44,-217.92 194.55,-212.57 192.93,-218.66"/>
</g>
<!-- m_UserDocument -->
<g id="node8" class="node">
<title>m_UserDocument</title>
<path fill="none" stroke="black" d="M223,-105C223,-105 343,-105 343,-105 349,-105 355,-111 355,-117 355,-117 355,-149 355,-149 355,-155 349,-161 343,-161 343,-161 223,-161 223,-161 217,-161 211,-155 211,-149 211,-149 211,-117 211,-117 211,-111 217,-105 223,-105"/>
<text text-anchor="start" x="241.5" y="-148.2" font-family="Arial Bold" font-size="11.00">UserDocument</text>
<polyline fill="none" stroke="black" points="211,-141 355,-141 "/>
<text text-anchor="start" x="218" y="-128" font-family="Arial" font-size="10.00">status </text>
<text text-anchor="start" x="249" y="-128" font-family="Arial Italic" font-size="10.00" fill="#999999">string ∗</text>
<text text-anchor="start" x="218" y="-115" font-family="Arial" font-size="10.00">user_id </text>
<text text-anchor="start" x="253" y="-115" font-family="Arial Italic" font-size="10.00" fill="#999999">integer (8) ∗ FK</text>
</g>
<!-- m_User&#45;&gt;m_UserDocument -->
<g id="edge1" class="edge">
<title>m_User&#45;&gt;m_UserDocument</title>
<path fill="none" stroke="black" d="M162.2,-164.75C175.26,-161.29 188.8,-157.7 201.87,-154.23"/>
<polygon fill="black" stroke="black" points="202.93,-157.21 210.83,-151.86 201.32,-151.12 202.93,-157.21"/>
</g>
</g>
</svg>
