<svg width="1600" height="1200" xmlns="http://www.w3.org/2000/svg" fill="none" xml:space="preserve" version="1.1" class="gridItem__media">

 <g>
  <title>Layer 1</title>
  <path id="svg_1" fill="#F4F4F4" d="m216.88,617.9l92.2,403.1l1007.4,0l42.6,-333.3c0.9,-7.229 0.39,-14.565 -1.5,-21.6l-88.58,-320.4c-2.85,-10.275 -8.62,-19.503 -16.6,-26.566c-7.99,-7.064 -17.85,-11.661 -28.4,-13.234l-674.6,-99c-9.576,-1.419 -19.356,-0.279 -28.348,3.304c-8.992,3.583 -16.877,9.481 -22.852,17.096l-270.92,344.3c-5.08,6.452 -8.651,13.959 -10.451,21.971c-1.799,8.012 -1.782,16.325 0.051,24.329l0,0z"/>
  <path id="svg_2" fill="#868A91" d="m347.999,630l-65.22,26.25c-1.509,0.691 -2.741,1.873 -3.494,3.352c-0.754,1.48 -0.985,3.171 -0.656,4.798l37.88,188.86l68.19,0l-36.7,-223.26z"/>
  <path id="svg_3" fill="#B2B6BB" d="m341.69,638.82l43,214.44l195.19,0l-43.6,-217.34c-0.335,-1.669 -1.237,-3.17 -2.553,-4.249c-1.316,-1.079 -2.965,-1.67 -4.667,-1.671l-180.15,0c-1.09,0.001 -2.167,0.244 -3.152,0.711c-0.985,0.467 -1.854,1.147 -2.545,1.991c-0.691,0.843 -1.185,1.83 -1.449,2.888c-0.263,1.058 -0.289,2.161 -0.074,3.23l0,0z"/>
  <path id="svg_4" fill="#868A91" d="m630.039,963.3l-28.55,0l-42.55,-214.43l76.06,0.13l-4.96,214.3z"/>
  <path id="svg_5" fill="#B2B6BB" d="m630,963.3l57.42,0l0,-207.06c0,-1.955 -0.777,-3.829 -2.159,-5.211c-1.382,-1.383 -3.256,-2.159 -5.211,-2.159l-42.64,0c-1.955,0 -3.829,0.776 -5.211,2.159c-1.383,1.382 -2.159,3.256 -2.159,5.211l-0.04,207.06z"/>
  <path id="svg_6" fill="#B2B6BB" d="m630.029,853.26l-222.92,0l0,110.04l222.92,0l0,-110.04z"/>
  <path id="svg_7" fill="#B2B6BB" d="m630.029,805.69l-222.92,0l0,48.02l222.92,0l0,-48.02z"/>
  <path id="svg_8" fill="#868A91" d="m260.34,963.3l1.41,17.37l3.3,40.14l15.13,0l3.3,-40.14l1.42,-17.37l-24.56,0z"/>
  <g id="svg_9" opacity="0.2">
   <g id="svg_10" opacity="0.2">
    <path id="svg_11" fill="black" d="m260.34,963.3l24.56,0l-1.42,17.37l-21.73,0l-1.41,-17.37z" opacity="0.2"/>
   </g>
  </g>
  <path id="svg_12" fill="#868A91" d="m366.119,963.3l1.42,17.37l3.29,40.14l15.14,0l3.3,-40.14l1.41,-17.37l-24.56,0z"/>
  <g id="svg_13" opacity="0.2">
   <g id="svg_14" opacity="0.2">
    <path id="svg_15" fill="black" d="m366.119,963.3l24.56,0l-1.41,17.37l-21.73,0l-1.42,-17.37z" opacity="0.2"/>
   </g>
  </g>
  <path id="svg_16" fill="#868A91" d="m541.58,963.3l1.42,17.37l3.3,40.14l15.13,0l3.3,-40.14l1.41,-17.37l-24.56,0z"/>
  <path id="svg_17" fill="white" d="m1396.3,275.86l-666.53,0c-5.523,0 -10,4.477 -10,10l0,483.04c0,5.523 4.477,10 10,10l666.53,0c5.52,0 10,-4.477 10,-10l0,-483.04c0,-5.523 -4.48,-10 -10,-10z"/>
  <path id="svg_18" fill="rgb(77, 97, 252)" class="change-color-in-svg" d="m722,317.17l394,0l0,462.83l-385.2,0c-2.329,0 -4.562,-0.925 -6.208,-2.572c-1.647,-1.646 -2.572,-3.879 -2.572,-6.208l0,-454l-0.02,-0.05z"/>
  <path id="svg_19" fill="white" d="m722,317.17l394,0l0,462.83l-385.2,0c-2.329,0 -4.562,-0.925 -6.208,-2.572c-1.647,-1.646 -2.572,-3.879 -2.572,-6.208l0,-454l-0.02,-0.05z" opacity="0.6"/>
  <path id="svg_20" fill="rgb(77, 97, 252)" class="change-color-in-svg" d="m1367,568.49l-207,0c-0.55,-0.048 -1.07,-0.304 -1.44,-0.716c-0.37,-0.412 -0.57,-0.949 -0.56,-1.504l0,-14.27c-0.01,-0.555 0.19,-1.092 0.56,-1.504c0.37,-0.412 0.89,-0.668 1.44,-0.716l207,0c0.55,0.048 1.07,0.304 1.44,0.716c0.37,0.412 0.57,0.949 0.56,1.504l0,14.24c0.02,0.279 -0.02,0.559 -0.11,0.824c-0.09,0.264 -0.24,0.508 -0.42,0.718c-0.19,0.209 -0.41,0.379 -0.67,0.501c-0.25,0.121 -0.52,0.192 -0.8,0.207l0,0z"/>
  <path id="svg_21" fill="rgb(77, 97, 252)" class="change-color-in-svg" d="m1367,602l-207,0c-0.55,-0.048 -1.07,-0.304 -1.44,-0.716c-0.37,-0.412 -0.57,-0.949 -0.56,-1.504l0,-14.24c-0.01,-0.554 0.19,-1.092 0.56,-1.504c0.37,-0.412 0.89,-0.668 1.44,-0.716l207,0c0.55,0.048 1.07,0.304 1.44,0.716c0.37,0.412 0.57,0.95 0.56,1.504l0,14.24c0.03,0.559 -0.17,1.106 -0.54,1.522c-0.38,0.416 -0.9,0.667 -1.46,0.698l0,0z"/>
  <path id="svg_22" fill="white" d="m1367,568.49l-207,0c-0.55,-0.048 -1.07,-0.304 -1.44,-0.716c-0.37,-0.412 -0.57,-0.949 -0.56,-1.504l0,-14.27c-0.01,-0.555 0.19,-1.092 0.56,-1.504c0.37,-0.412 0.89,-0.668 1.44,-0.716l207,0c0.55,0.048 1.07,0.304 1.44,0.716c0.37,0.412 0.57,0.949 0.56,1.504l0,14.24c0.02,0.279 -0.02,0.559 -0.11,0.824c-0.09,0.264 -0.24,0.508 -0.42,0.718c-0.19,0.209 -0.41,0.379 -0.67,0.501c-0.25,0.121 -0.52,0.192 -0.8,0.207l0,0z" opacity="0.6"/>
  <path id="svg_23" fill="white" d="m1367,602l-207,0c-0.55,-0.048 -1.07,-0.304 -1.44,-0.716c-0.37,-0.412 -0.57,-0.949 -0.56,-1.504l0,-14.24c-0.01,-0.554 0.19,-1.092 0.56,-1.504c0.37,-0.412 0.89,-0.668 1.44,-0.716l207,0c0.55,0.048 1.07,0.304 1.44,0.716c0.37,0.412 0.57,0.95 0.56,1.504l0,14.24c0.03,0.559 -0.17,1.106 -0.54,1.522c-0.38,0.416 -0.9,0.667 -1.46,0.698l0,0z" opacity="0.6"/>
  <path id="svg_24" fill="rgb(77, 97, 252)" class="change-color-in-svg" d="m1305.77,646.19l-84.54,0c-1.28,0 -2.51,-0.508 -3.41,-1.412c-0.9,-0.904 -1.41,-2.13 -1.41,-3.408l0,-13.8c0,-1.279 0.51,-2.506 1.41,-3.412c0.9,-0.905 2.13,-1.415 3.41,-1.418l84.54,0c1.28,0.003 2.51,0.512 3.41,1.418c0.91,0.905 1.42,2.132 1.42,3.412l0,13.8c0,0.635 -0.12,1.265 -0.36,1.853c-0.24,0.588 -0.59,1.122 -1.04,1.571c-0.45,0.449 -0.99,0.803 -1.58,1.043c-0.59,0.24 -1.22,0.36 -1.85,0.353l0,0z"/>
  <path id="svg_30" fill="white" d="m1269.49,693.26c0,0.218 -0.07,0.43 -0.19,0.611c-0.12,0.181 -0.29,0.322 -0.49,0.405c-0.2,0.084 -0.42,0.105 -0.64,0.063c-0.21,-0.043 -0.4,-0.147 -0.56,-0.301c-0.15,-0.154 -0.26,-0.35 -0.3,-0.563c-0.04,-0.214 -0.02,-0.435 0.06,-0.636c0.09,-0.201 0.23,-0.373 0.41,-0.494c0.18,-0.12 0.39,-0.185 0.61,-0.185c0.29,0 0.57,0.116 0.78,0.322c0.2,0.207 0.32,0.486 0.32,0.778"/>
  <path id="svg_33" fill="rgb(77, 97, 252)" class="change-color-in-svg" d="m1400.48,779.77l-668.89,0c-2.547,0.024 -5,-0.964 -6.819,-2.747c-1.818,-1.784 -2.855,-4.216 -2.881,-6.763l0,-485.75c0.029,-2.546 1.066,-4.977 2.884,-6.76c1.818,-1.782 4.269,-2.771 6.816,-2.75l668.89,0c2.55,-0.021 5,0.968 6.82,2.75c1.81,1.783 2.85,4.214 2.88,6.76l0,485.75c-0.03,2.547 -1.06,4.979 -2.88,6.763c-1.82,1.783 -4.27,2.771 -6.82,2.747l0,0zm-668.89,-503c-2.083,-0.016 -4.088,0.794 -5.576,2.251c-1.488,1.458 -2.338,3.446 -2.364,5.529l0,485.71c0.026,2.083 0.876,4.071 2.364,5.529c1.488,1.458 3.493,2.267 5.576,2.251l668.89,0c2.08,0.019 4.09,-0.79 5.58,-2.248c1.49,-1.459 2.34,-3.448 2.36,-5.532l0,-485.75c-0.02,-2.084 -0.87,-4.073 -2.36,-5.532c-1.49,-1.458 -3.5,-2.267 -5.58,-2.248l-668.89,0.04z"/>
  <g id="svg_34" opacity="0.6">
   <path id="svg_35" fill="white" d="m1400.48,779.77l-668.89,0c-2.547,0.024 -5,-0.964 -6.819,-2.747c-1.818,-1.784 -2.855,-4.216 -2.881,-6.763l0,-485.75c0.029,-2.546 1.066,-4.977 2.884,-6.76c1.818,-1.782 4.269,-2.771 6.816,-2.75l668.89,0c2.55,-0.021 5,0.968 6.82,2.75c1.81,1.783 2.85,4.214 2.88,6.76l0,485.75c-0.03,2.547 -1.06,4.979 -2.88,6.763c-1.82,1.783 -4.27,2.771 -6.82,2.747l0,0zm-668.89,-503c-2.083,-0.016 -4.088,0.794 -5.576,2.251c-1.488,1.458 -2.338,3.446 -2.364,5.529l0,485.71c0.026,2.083 0.876,4.071 2.364,5.529c1.488,1.458 3.493,2.267 5.576,2.251l668.89,0c2.08,0.019 4.09,-0.79 5.58,-2.248c1.49,-1.459 2.34,-3.448 2.36,-5.532l0,-485.75c-0.02,-2.084 -0.87,-4.073 -2.36,-5.532c-1.49,-1.458 -3.5,-2.267 -5.58,-2.248l-668.89,0.04z" opacity="0.6"/>
  </g>
  <path id="svg_36" fill="rgb(77, 97, 252)" class="change-color-in-svg" d="m731.84,275.1l668.29,0c2.65,0 5.2,1.054 7.07,2.929c1.88,1.875 2.93,4.419 2.93,7.071l0,32.6l-688.29,0l0,-32.6c0,-2.652 1.053,-5.196 2.929,-7.071c1.875,-1.875 4.419,-2.929 7.071,-2.929l0,0z"/>
  <path id="svg_37" fill="white" d="m745.699,303.17c3.358,0 6.08,-2.722 6.08,-6.08c0,-3.358 -2.722,-6.08 -6.08,-6.08c-3.358,0 -6.08,2.722 -6.08,6.08c0,3.358 2.722,6.08 6.08,6.08z"/>
  <path id="svg_38" fill="white" d="m765.019,303.17c3.358,0 6.08,-2.722 6.08,-6.08c0,-3.358 -2.722,-6.08 -6.08,-6.08c-3.357,0 -6.08,2.722 -6.08,6.08c0,3.358 2.723,6.08 6.08,6.08z"/>
  <path id="svg_39" fill="white" d="m784.349,303.17c3.358,0 6.081,-2.722 6.081,-6.08c0,-3.358 -2.723,-6.08 -6.081,-6.08c-3.357,0 -6.079,2.722 -6.079,6.08c0,3.358 2.722,6.08 6.079,6.08z"/>
  <path id="svg_40" fill="white" d="m1263.5,513.48c31.45,0 56.94,-25.493 56.94,-56.94c0,-31.447 -25.49,-56.94 -56.94,-56.94c-31.45,0 -56.94,25.493 -56.94,56.94c0,31.447 25.49,56.94 56.94,56.94z"/>
  <path id="svg_41" fill="rgb(77, 97, 252)" class="change-color-in-svg" d="m1309.64,489.7l-29.54,-8.93l-0.1,0l-1.86,-0.81l-2.47,0.54l-15.56,0.41l-6.87,-1.37l-1.92,-0.63l0,0.05l-24.47,7c-0.62,0.18 -1.25,0.32 -1.89,0.46c-2.66,0.633 -5.2,1.719 -7.49,3.21c5.28,7.277 12.21,13.2 20.22,17.285c8.01,4.084 16.87,6.214 25.86,6.214c8.99,0 17.85,-2.13 25.86,-6.214c8.01,-4.085 14.94,-10.008 20.22,-17.285l0.01,0.07zm-29.6,-8.87c0,0 0,0.08 0,0.14c0.01,-0.09 -0.04,-0.14 -0.04,-0.14l0.04,0z"/>
  <path id="svg_42" fill="#FC9D9D" d="m1251.36,453l0.18,24.78c-0.01,0.603 0.18,1.193 0.54,1.68l0.24,0.42c1.42,2.111 3.26,3.902 5.41,5.255c2.15,1.354 4.57,2.241 7.08,2.604c2.52,0.363 5.09,0.194 7.53,-0.497c2.45,-0.691 4.72,-1.887 6.68,-3.512c0.41,-0.346 0.73,-0.793 0.92,-1.298c0.19,-0.504 0.24,-1.05 0.16,-1.582l-4.51,-29.83l-24.23,1.98z"/>
  <path id="svg_43" fill="#FC9D9D" d="m1278.24,440.78c0,0 4.93,32.59 -13,33.91c-17.56,1.33 -18.1,-31.63 -18.1,-31.63l-0.49,-9.44l22.62,-4l5.71,3l3.26,8.16z"/>
  <path id="svg_44" fill="black" d="m1278.66,472l-1.33,-9c-1.62,5.77 -5,10.58 -10.88,11.54l0.06,0l-1.26,0.18c-4.69,0.36 -8.6,-1.8 -11.55,-6.43c-0.06,-0.088 -0.14,-0.149 -0.25,-0.172c-0.1,-0.022 -0.2,-0.004 -0.29,0.052c-0.09,0.056 -0.15,0.144 -0.17,0.245c-0.02,0.101 -0.01,0.207 0.05,0.295c3.13,4.93 7.28,7.22 12.27,6.86c1.04,-0.076 2.07,-0.28 3.06,-0.61c3.68,0.378 7.37,-0.683 10.29,-2.96l0,0z" opacity="0.15"/>
  <path id="svg_45" fill="black" d="m1274,433.5c0,0 5.71,-3.79 8.41,2.71c2.29,5.47 -1.56,11.42 -1.56,11.42l-3.31,-0.36c-0.59,0.059 -1.18,-0.118 -1.64,-0.493c-0.46,-0.375 -0.76,-0.916 -0.82,-1.507l-1.08,-11.77z"/>
  <path id="svg_46" fill="black" d="m1278.06,429.53c0.48,6.2 -4.82,7.82 -7,8l-17.74,1.5c-0.7,0.066 -1.34,0.396 -1.8,0.923c-0.46,0.526 -0.7,1.209 -0.67,1.907l0.3,5.65c0.03,0.373 -0.08,0.745 -0.32,1.037c-0.23,0.292 -0.57,0.483 -0.94,0.533l-1.08,0.12l-1.2,1.5c-7,-1.68 -9.87,-21.47 2.94,-25.44c0.68,-0.218 1.32,-0.568 1.86,-1.031c0.55,-0.464 1,-1.031 1.33,-1.669c1.86,-3.85 9.5,-4.87 13.35,-0.54c0.37,0.443 0.85,0.793 1.38,1.022c0.53,0.229 1.11,0.331 1.69,0.298c4.65,-0.12 7.65,2.76 7.9,6.19z"/>
  <path id="svg_47" fill="#FC9D9D" d="m1248.89,451.12c-0.05,-0.527 -0.24,-1.031 -0.55,-1.459c-0.31,-0.427 -0.74,-0.761 -1.22,-0.967c-0.49,-0.205 -1.03,-0.274 -1.55,-0.199c-0.53,0.075 -1.02,0.291 -1.43,0.625l-0.06,0.06c-3.07,2.64 -1.08,10.94 5.65,10.22l-0.84,-8.28z"/>
  <path id="svg_48" fill="#FC9D9D" d="m1282.38,446.73l-0.06,-0.06c-0.45,-0.261 -0.97,-0.396 -1.49,-0.391c-0.53,0.006 -1.04,0.151 -1.49,0.422c-0.44,0.27 -0.81,0.656 -1.06,1.117c-0.25,0.46 -0.37,0.979 -0.35,1.502l0.37,7.93c6.79,-0.25 7.45,-8.35 4.08,-10.52z"/>
  <path id="svg_49" fill="black" d="m1249.73,452.14c0.01,0.206 -0.05,0.41 -0.19,0.567c-0.13,0.157 -0.32,0.255 -0.53,0.273c-0.2,0.029 -0.4,-0.017 -0.57,-0.128c-0.16,-0.11 -0.28,-0.279 -0.33,-0.472l-0.78,-5.35l2.22,0.06l0.18,5.05z"/>
  <path id="svg_50" fill="black" d="m1279.32,450c0.01,0.206 -0.05,0.41 -0.19,0.567c-0.13,0.157 -0.32,0.255 -0.53,0.273c-0.2,0.029 -0.4,-0.016 -0.57,-0.127c-0.17,-0.111 -0.29,-0.279 -0.34,-0.473l-0.78,-5.35l2.23,0.06l0.18,5.05z"/>
  <path id="svg_51" fill="#FC9D9D" d="m1271.2,438.31c-0.3,0.036 -0.6,0.036 -0.9,0c-0.05,-0.004 -0.1,-0.018 -0.15,-0.041c-0.04,-0.023 -0.08,-0.055 -0.12,-0.094c-0.03,-0.039 -0.06,-0.085 -0.07,-0.133c-0.02,-0.049 -0.02,-0.101 -0.02,-0.152c0,-0.051 0.02,-0.101 0.04,-0.147c0.02,-0.046 0.06,-0.086 0.1,-0.12c0.03,-0.033 0.08,-0.059 0.13,-0.075c0.05,-0.016 0.1,-0.022 0.15,-0.018c0.06,0 3.61,0.18 5.11,-2.16c0.03,-0.044 0.06,-0.083 0.1,-0.113c0.04,-0.031 0.09,-0.053 0.14,-0.065c0.05,-0.012 0.1,-0.014 0.16,-0.006c0.05,0.008 0.1,0.027 0.14,0.054c0.09,0.057 0.15,0.147 0.17,0.25c0.03,0.103 0.01,0.211 -0.05,0.3c-0.58,0.768 -1.32,1.394 -2.17,1.831c-0.86,0.436 -1.8,0.672 -2.76,0.689l0,0z"/>
  <path id="svg_52" fill="black" d="m1257.85,455.75c0.31,0.002 0.62,-0.089 0.88,-0.26c0.25,-0.172 0.46,-0.417 0.58,-0.704c0.12,-0.288 0.15,-0.604 0.09,-0.91c-0.06,-0.305 -0.21,-0.586 -0.43,-0.806c-0.22,-0.22 -0.5,-0.37 -0.81,-0.43c-0.3,-0.06 -0.62,-0.029 -0.91,0.092c-0.28,0.12 -0.53,0.322 -0.7,0.582c-0.17,0.26 -0.26,0.565 -0.26,0.876c0,0.414 0.16,0.811 0.46,1.103c0.29,0.293 0.69,0.457 1.1,0.457z"/>
  <path id="svg_53" fill="white" d="m1257.13,454.37c0.07,0 0.14,-0.021 0.2,-0.061c0.06,-0.039 0.1,-0.095 0.13,-0.161c0.03,-0.066 0.04,-0.138 0.02,-0.208c-0.01,-0.07 -0.05,-0.134 -0.1,-0.185c-0.05,-0.05 -0.11,-0.084 -0.18,-0.098c-0.07,-0.014 -0.14,-0.007 -0.21,0.02c-0.06,0.028 -0.12,0.074 -0.16,0.133c-0.04,0.059 -0.06,0.129 -0.06,0.2c0,0.096 0.04,0.187 0.11,0.255c0.06,0.067 0.15,0.105 0.25,0.105l0,0z"/>
  <path id="svg_54" fill="black" d="m1269.88,454.85c0.31,0 0.61,-0.092 0.87,-0.265c0.26,-0.173 0.46,-0.419 0.58,-0.707c0.12,-0.287 0.15,-0.603 0.09,-0.908c-0.06,-0.305 -0.21,-0.585 -0.43,-0.804c-0.22,-0.219 -0.51,-0.368 -0.81,-0.427c-0.31,-0.06 -0.62,-0.027 -0.91,0.093c-0.28,0.121 -0.53,0.324 -0.7,0.583c-0.17,0.26 -0.26,0.564 -0.26,0.875c0,0.206 0.04,0.409 0.12,0.599c0.08,0.19 0.19,0.363 0.34,0.508c0.15,0.145 0.32,0.259 0.51,0.337c0.19,0.078 0.39,0.117 0.6,0.116l0,0z"/>
  <path id="svg_55" fill="white" d="m1269.16,453.53c0.09,-0.014 0.16,-0.059 0.22,-0.126c0.06,-0.067 0.09,-0.151 0.09,-0.239c0,-0.088 -0.03,-0.172 -0.09,-0.239c-0.06,-0.067 -0.13,-0.112 -0.22,-0.126c-0.05,-0.009 -0.11,-0.006 -0.16,0.008c-0.05,0.015 -0.1,0.04 -0.14,0.075c-0.04,0.035 -0.07,0.078 -0.1,0.127c-0.02,0.048 -0.03,0.101 -0.03,0.155c0,0.054 0.01,0.107 0.03,0.156c0.03,0.048 0.06,0.092 0.1,0.126c0.04,0.035 0.09,0.06 0.14,0.075c0.05,0.014 0.11,0.017 0.16,0.008l0,0z"/>
  <path id="svg_56" fill="black" d="m1264.65,461.58l1.26,-0.12c0.06,-0.004 0.12,-0.019 0.17,-0.046c0.05,-0.026 0.1,-0.062 0.14,-0.107c0.04,-0.045 0.07,-0.096 0.09,-0.152c0.02,-0.057 0.02,-0.116 0.02,-0.175c0,-0.059 -0.02,-0.117 -0.05,-0.17c-0.02,-0.053 -0.06,-0.1 -0.1,-0.139c-0.05,-0.039 -0.1,-0.069 -0.16,-0.088c-0.05,-0.019 -0.11,-0.027 -0.17,-0.023l-1.27,0.12c-0.21,-0.046 -0.4,-0.161 -0.55,-0.326c-0.14,-0.165 -0.22,-0.372 -0.24,-0.589c-0.01,-0.217 0.05,-0.432 0.17,-0.614c0.12,-0.181 0.29,-0.319 0.5,-0.391c0.12,-0.008 0.23,-0.063 0.31,-0.153c0.08,-0.09 0.12,-0.208 0.11,-0.327c-0.01,-0.119 -0.06,-0.231 -0.15,-0.309c-0.09,-0.079 -0.21,-0.119 -0.33,-0.111c-0.24,0.013 -0.48,0.077 -0.7,0.186c-0.22,0.109 -0.42,0.263 -0.57,0.45c-0.16,0.188 -0.28,0.405 -0.35,0.64c-0.07,0.234 -0.09,0.481 -0.06,0.724c0,0.243 0.06,0.483 0.16,0.705c0.1,0.221 0.24,0.419 0.43,0.581c0.18,0.162 0.39,0.284 0.62,0.359c0.23,0.074 0.48,0.1 0.72,0.075l0,0z" opacity="0.3"/>
  <path id="svg_57" fill="black" d="m1274.21,449.14l-6.8,0.36l-0.9,0.06l-6,0.36l-0.06,0l-7.64,0.42c-0.3,0.017 -0.59,0.092 -0.86,0.222c-0.26,0.13 -0.5,0.312 -0.7,0.536c-0.2,0.223 -0.35,0.483 -0.44,0.765c-0.09,0.282 -0.13,0.58 -0.11,0.877l0.12,1.75c0.09,1.619 0.81,3.137 2.02,4.22c1.21,1.083 2.8,1.643 4.41,1.555c1.62,-0.087 3.14,-0.815 4.22,-2.021c1.09,-1.207 1.65,-2.795 1.56,-4.414l-0.12,-1.75c-0.03,-0.488 -0.22,-0.954 -0.54,-1.32l2.35,-0.12c-0.28,0.403 -0.41,0.891 -0.37,1.38l0.12,1.75c0.09,1.619 0.82,3.137 2.02,4.219c1.21,1.082 2.8,1.64 4.42,1.551c1.62,-0.089 3.14,-0.817 4.22,-2.025c1.08,-1.208 1.64,-2.796 1.55,-4.415l-0.12,-1.74c0,-0.302 -0.07,-0.599 -0.19,-0.875c-0.12,-0.277 -0.3,-0.526 -0.52,-0.733c-0.21,-0.207 -0.47,-0.368 -0.76,-0.473c-0.28,-0.105 -0.58,-0.152 -0.88,-0.139l0,0zm-12.15,2.94l0.12,1.75c0.05,0.688 -0.03,1.38 -0.24,2.035c-0.22,0.656 -0.56,1.261 -1.02,1.782c-0.45,0.52 -1,0.945 -1.62,1.249c-0.62,0.304 -1.29,0.481 -1.98,0.521c-0.69,0.04 -1.38,-0.058 -2.03,-0.288c-0.65,-0.23 -1.25,-0.588 -1.76,-1.053c-0.51,-0.465 -0.92,-1.026 -1.21,-1.653c-0.29,-0.626 -0.46,-1.303 -0.48,-1.993l-0.12,-1.75c-0.01,-0.356 0.11,-0.703 0.34,-0.971c0.24,-0.268 0.56,-0.436 0.92,-0.469l7.64,-0.42l0.06,0c0.17,-0.017 0.35,0.003 0.52,0.059c0.17,0.056 0.32,0.146 0.45,0.265c0.13,0.119 0.23,0.263 0.3,0.424c0.07,0.162 0.11,0.336 0.11,0.512l0,0zm13.77,1c0.05,0.687 -0.03,1.377 -0.25,2.032c-0.21,0.654 -0.56,1.258 -1.01,1.778c-0.45,0.519 -1,0.943 -1.62,1.247c-0.62,0.303 -1.29,0.481 -1.98,0.521c-0.69,0.041 -1.38,-0.056 -2.03,-0.285c-0.65,-0.229 -1.24,-0.585 -1.75,-1.048c-0.51,-0.462 -0.93,-1.022 -1.22,-1.646c-0.29,-0.625 -0.45,-1.301 -0.48,-1.989l-0.12,-1.75c-0.01,-0.356 0.11,-0.703 0.34,-0.971c0.24,-0.268 0.56,-0.436 0.92,-0.469l0.9,-0.06l6.8,-0.36c0.36,-0.014 0.7,0.108 0.97,0.343c0.27,0.234 0.44,0.563 0.47,0.917l0.06,1.74z"/>
  <path id="svg_58" fill="white" d="m1260.8,464.05l7.63,-0.54c0.05,-0.001 0.09,0.008 0.13,0.027c0.04,0.019 0.08,0.046 0.11,0.081c0.03,0.035 0.05,0.075 0.06,0.119c0.01,0.043 0.01,0.089 0,0.133c-0.24,0.857 -0.73,1.62 -1.41,2.187c-0.69,0.567 -1.53,0.909 -2.41,0.981c-0.89,0.073 -1.78,-0.13 -2.54,-0.578c-0.77,-0.449 -1.38,-1.123 -1.75,-1.93l0,-0.06c-0.03,-0.038 -0.04,-0.081 -0.05,-0.126c0,-0.046 0.01,-0.092 0.02,-0.134c0.02,-0.042 0.05,-0.078 0.09,-0.106c0.03,-0.028 0.07,-0.047 0.12,-0.054z"/>
  <path id="svg_59" fill="black" d="m1247.21,455.45c-0.12,-0.006 -0.23,-0.051 -0.32,-0.127c-0.08,-0.076 -0.15,-0.179 -0.17,-0.293l-0.12,-1c-0.02,-0.781 -0.32,-1.529 -0.84,-2.11c-0.2,-0.171 -0.46,-0.258 -0.72,-0.24c-0.06,0.017 -0.12,0.021 -0.19,0.012c-0.06,-0.01 -0.12,-0.031 -0.17,-0.064c-0.06,-0.034 -0.1,-0.077 -0.14,-0.129c-0.03,-0.052 -0.06,-0.111 -0.07,-0.173c-0.01,-0.061 -0.01,-0.125 0,-0.187c0.01,-0.061 0.04,-0.12 0.08,-0.171c0.03,-0.051 0.08,-0.094 0.13,-0.127c0.06,-0.032 0.12,-0.053 0.18,-0.061c0.51,-0.056 1.02,0.071 1.44,0.36c0.38,0.342 0.68,0.76 0.89,1.227c0.21,0.467 0.32,0.972 0.32,1.483l0.12,1c0.01,0.132 -0.03,0.263 -0.11,0.372c-0.07,0.108 -0.18,0.188 -0.31,0.228l0,0z" opacity="0.3"/>
  <path id="svg_60" fill="black" d="m1280.28,453c0.12,-0.01 0.23,-0.066 0.31,-0.155c0.07,-0.09 0.11,-0.206 0.11,-0.325l0,-1c-0.07,-0.378 -0.05,-0.765 0.04,-1.137c0.09,-0.372 0.26,-0.72 0.5,-1.023c0.08,-0.11 0.19,-0.2 0.32,-0.262c0.12,-0.062 0.26,-0.096 0.4,-0.098c0.11,-0.007 0.22,-0.055 0.29,-0.134c0.08,-0.079 0.13,-0.183 0.14,-0.295c0.01,-0.111 -0.03,-0.221 -0.1,-0.31c-0.06,-0.088 -0.16,-0.149 -0.27,-0.171c-0.25,0.006 -0.5,0.063 -0.72,0.168c-0.23,0.105 -0.43,0.256 -0.6,0.442c-0.32,0.399 -0.56,0.862 -0.69,1.358c-0.14,0.496 -0.17,1.014 -0.09,1.522l0,1c-0.12,0.22 0.08,0.42 0.36,0.42z" opacity="0.3"/>
  <path id="svg_61" fill="rgb(77, 97, 252)" class="change-color-in-svg" d="m1263.5,519c-12.35,-0.01 -24.42,-3.681 -34.68,-10.548c-10.26,-6.868 -18.26,-16.624 -22.98,-28.036c-4.72,-11.411 -5.95,-23.966 -3.54,-36.076c2.42,-12.111 8.37,-23.234 17.1,-31.963c8.74,-8.729 19.87,-14.673 31.98,-17.079c12.11,-2.407 24.66,-1.169 36.07,3.558c11.41,4.726 21.16,12.729 28.02,22.997c6.86,10.267 10.53,22.338 10.53,34.687c-0.02,16.568 -6.61,32.451 -18.33,44.163c-11.71,11.711 -27.6,18.292 -44.17,18.297l0,0zm0,-123.49c-12.06,0 -23.86,3.578 -33.89,10.28c-10.03,6.703 -17.85,16.23 -22.47,27.376c-4.61,11.147 -5.82,23.412 -3.47,35.245c2.36,11.832 8.17,22.702 16.7,31.233c8.53,8.531 19.4,14.34 31.23,16.694c11.83,2.354 24.1,1.146 35.24,-3.471c11.15,-4.617 20.68,-12.436 27.38,-22.467c6.7,-10.032 10.28,-21.825 10.28,-33.89c-0.03,-16.171 -6.46,-31.672 -17.9,-43.108c-11.43,-11.435 -26.93,-17.873 -43.1,-17.902l0,0.01zm0,118.58c-11.38,0.008 -22.51,-3.36 -31.98,-9.677c-9.47,-6.317 -16.85,-15.3 -21.21,-25.813c-4.36,-10.513 -5.51,-22.083 -3.29,-33.247c2.21,-11.164 7.69,-21.421 15.74,-29.472c8.04,-8.052 18.29,-13.537 29.45,-15.761c11.17,-2.225 22.74,-1.089 33.25,3.263c10.52,4.353 19.51,11.726 25.83,21.188c6.33,9.462 9.71,20.587 9.71,31.969c-0.02,15.248 -6.08,29.867 -16.86,40.652c-10.78,10.786 -25.39,16.859 -40.64,16.888l0,0.01zm0,-113.68c-11.1,0 -21.96,3.293 -31.19,9.461c-9.23,6.169 -16.43,14.937 -20.68,25.195c-4.25,10.259 -5.36,21.546 -3.19,32.436c2.16,10.891 7.51,20.894 15.36,28.745c7.85,7.851 17.86,13.198 28.75,15.364c10.89,2.167 22.18,1.055 32.43,-3.194c10.26,-4.249 19.03,-11.445 25.2,-20.677c6.17,-9.232 9.46,-20.086 9.46,-31.19c-0.01,-14.886 -5.93,-29.159 -16.46,-39.686c-10.52,-10.527 -24.79,-16.448 -39.68,-16.464l0,0.01z"/>
  <path id="svg_62" fill="rgb(77, 97, 252)" class="change-color-in-svg" d="m1058.12,683.48c-32.8,11.71 -69.41,-14.81 -104.58,-9.6c-33,4.9 -54.06,36.17 -87.44,39.24c-15.24,1.4 -30.27,-3.51 -43.93,-9.29c-13.66,-5.78 -27,-12.58 -41.92,-15.45c-21.27,-4.08 -44,4.24 -58.24,17.52l0,65.31c0,2.329 0.925,4.562 2.571,6.208c1.647,1.647 3.88,2.572 6.209,2.572l385.21,0.01l0,-134c-23.4,5.15 -35.14,29.37 -57.88,37.48z" opacity="0.2"/>
  <path id="svg_63" fill="rgb(77, 97, 252)" class="change-color-in-svg" d="m1064.66,690.89c-13,-3.64 -27.72,-0.69 -39.61,4.6c-11.89,5.29 -21.75,12.74 -32.66,19.11c-25.23,14.7 -61.07,23.36 -89.06,11.81c-13.48,-5.56 -23.21,-15 -34.69,-22.67c-11.48,-7.67 -26.86,-14 -41.74,-11.06c-12.19,2.38 -20.82,10.25 -31,15.77c-13.42,7.25 -48.11,25.43 -73.85,14.45l0,48.31c0,2.329 0.925,4.562 2.571,6.208c1.647,1.647 3.88,2.572 6.209,2.572l385.17,0.01l0,-67.36c-14.91,-6.47 -42.5,-19.26 -51.34,-21.75z" opacity="0.2"/>
  <path id="svg_64" fill="white" d="m722,462.31c6.74,7.23 13,15.68 20.73,20c13,7.22 27.73,1.38 39.61,-9.13c11.88,-10.51 21.75,-25.3 32.66,-37.93c25.23,-29.19 61.07,-46.37 89.06,-23.45c13.48,11 23.21,29.75 34.69,45c11.48,15.25 26.86,27.73 41.74,21.95c12.19,-4.73 20.82,-20.35 31,-31.31c14.51,-15.44 50.42,-47.75 104.51,-21.44l0,-108l-394,0l0,144.31z" opacity="0.2"/>
  <path id="svg_65" fill="white" d="m722,416.87c20.71,-4.54 44.09,0.24 61.28,12.84c11.59,8.5 21.37,20.6 35.2,24.27c16.87,4.48 34.31,-5.19 47.32,-17c13.01,-11.81 24,-26.34 39.33,-34.89c31.73,-17.77 72.37,-4.45 101,18.18c12.37,9.79 23.56,21.25 37,29.4c13.44,8.15 30.23,12.67 44.9,7.07c10.46,-4 18.52,-12.53 28,-18.59l0,-120.15l-394,0l-0.03,98.87z" opacity="0.2"/>
  <g id="svg_66" opacity="0.7">
   <g id="svg_67" opacity="0.7">
    <path id="svg_68" fill="white" d="m803.759,408.14c0.002,0.608 -0.176,1.202 -0.512,1.708c-0.337,0.506 -0.815,0.902 -1.376,1.135c-0.561,0.234 -1.178,0.297 -1.775,0.179c-0.596,-0.117 -1.144,-0.409 -1.574,-0.838c-0.43,-0.429 -0.724,-0.976 -0.843,-1.571c-0.119,-0.596 -0.059,-1.214 0.173,-1.776c0.232,-0.561 0.625,-1.041 1.13,-1.379c0.506,-0.338 1.1,-0.518 1.707,-0.518c0.403,-0.001 0.802,0.077 1.174,0.23c0.373,0.153 0.711,0.378 0.996,0.663c0.286,0.284 0.512,0.622 0.666,0.994c0.155,0.372 0.234,0.77 0.234,1.173z"/>
   </g>
   <g id="svg_69" opacity="0.7">
    <path id="svg_70" fill="white" d="m1009,654.45c0,0.608 -0.18,1.202 -0.52,1.707c-0.34,0.505 -0.82,0.898 -1.38,1.13c-0.56,0.232 -1.18,0.293 -1.77,0.173c-0.6,-0.119 -1.15,-0.412 -1.58,-0.843c-0.42,-0.43 -0.72,-0.978 -0.83,-1.574c-0.12,-0.596 -0.06,-1.214 0.18,-1.775c0.23,-0.561 0.62,-1.039 1.13,-1.375c0.51,-0.337 1.1,-0.515 1.71,-0.513c0.4,0 0.8,0.08 1.17,0.234c0.37,0.154 0.71,0.381 1,0.666c0.28,0.285 0.51,0.624 0.66,0.996c0.15,0.372 0.23,0.771 0.23,1.174l0,0z"/>
   </g>
   <g id="svg_71" opacity="0.7">
    <path id="svg_72" fill="white" d="m803.11,736.52c0.002,0.311 -0.089,0.615 -0.26,0.875c-0.171,0.259 -0.416,0.462 -0.703,0.583c-0.286,0.12 -0.602,0.152 -0.907,0.093c-0.306,-0.059 -0.586,-0.208 -0.807,-0.427c-0.22,-0.22 -0.371,-0.499 -0.432,-0.804c-0.062,-0.305 -0.031,-0.621 0.087,-0.909c0.119,-0.287 0.32,-0.533 0.578,-0.706c0.259,-0.173 0.563,-0.265 0.874,-0.265c0.414,0 0.812,0.164 1.106,0.456c0.295,0.293 0.461,0.689 0.464,1.104l0,0z"/>
   </g>
   <g id="svg_73" opacity="0.7">
    <path id="svg_74" fill="white" d="m1064.22,654.02c1.85,0 3.35,-1.5 3.35,-3.35c0,-1.85 -1.5,-3.35 -3.35,-3.35c-1.85,0 -3.35,1.5 -3.35,3.35c0,1.85 1.5,3.35 3.35,3.35z"/>
   </g>
   <g id="svg_75" opacity="0.7">
    <path id="svg_76" fill="white" d="m820.529,711.6c0,0.761 -0.226,1.506 -0.649,2.139c-0.423,0.633 -1.024,1.127 -1.728,1.418c-0.703,0.291 -1.477,0.368 -2.224,0.219c-0.747,-0.149 -1.433,-0.515 -1.971,-1.054c-0.539,-0.538 -0.905,-1.224 -1.054,-1.971c-0.148,-0.747 -0.072,-1.521 0.219,-2.224c0.292,-0.704 0.785,-1.305 1.418,-1.728c0.633,-0.423 1.378,-0.649 2.139,-0.649c0.506,0 1.006,0.1 1.473,0.293c0.468,0.194 0.892,0.477 1.249,0.835c0.358,0.357 0.642,0.782 0.835,1.249c0.194,0.467 0.293,0.967 0.293,1.473l0,0z"/>
   </g>
   <g id="svg_77" opacity="0.7">
    <path id="svg_78" fill="white" d="m807.559,387.21c0,0.364 -0.108,0.72 -0.31,1.022c-0.202,0.303 -0.49,0.539 -0.826,0.678c-0.336,0.139 -0.706,0.176 -1.063,0.105c-0.357,-0.071 -0.685,-0.247 -0.942,-0.504c-0.257,-0.257 -0.433,-0.585 -0.504,-0.942c-0.071,-0.357 -0.034,-0.727 0.105,-1.063c0.139,-0.336 0.375,-0.624 0.678,-0.826c0.302,-0.202 0.658,-0.31 1.022,-0.31c0.487,0.003 0.954,0.197 1.298,0.542c0.345,0.344 0.539,0.811 0.542,1.298l0,0z"/>
   </g>
   <g id="svg_79" opacity="0.7">
    <path id="svg_80" fill="white" d="m1056.79,678.18c0,0.364 -0.11,0.721 -0.31,1.023c-0.2,0.303 -0.49,0.539 -0.83,0.678c-0.34,0.139 -0.71,0.175 -1.06,0.103c-0.36,-0.072 -0.69,-0.248 -0.95,-0.506c-0.25,-0.259 -0.43,-0.588 -0.5,-0.945c-0.07,-0.358 -0.03,-0.728 0.11,-1.064c0.14,-0.336 0.38,-0.623 0.68,-0.824c0.31,-0.201 0.66,-0.307 1.03,-0.305c0.24,0 0.48,0.048 0.7,0.14c0.22,0.093 0.43,0.229 0.6,0.4c0.17,0.171 0.3,0.374 0.39,0.597c0.09,0.223 0.14,0.462 0.14,0.703l0,0z"/>
   </g>
   <g id="svg_81" opacity="0.7">
    <path id="svg_82" fill="white" d="m764.78,399.64c0.607,0 1.1,-0.493 1.1,-1.1c0,-0.608 -0.493,-1.1 -1.1,-1.1c-0.608,0 -1.1,0.492 -1.1,1.1c0,0.607 0.492,1.1 1.1,1.1z"/>
   </g>
   <g id="svg_83" opacity="0.7">
    <path id="svg_84" fill="white" d="m1096,552.25c0,0.22 -0.06,0.436 -0.18,0.62c-0.12,0.184 -0.3,0.328 -0.5,0.413c-0.2,0.086 -0.43,0.109 -0.64,0.066c-0.22,-0.042 -0.42,-0.148 -0.58,-0.304c-0.15,-0.156 -0.26,-0.355 -0.3,-0.571c-0.04,-0.216 -0.02,-0.44 0.07,-0.644c0.08,-0.203 0.22,-0.376 0.41,-0.497c0.18,-0.121 0.4,-0.185 0.62,-0.183c0.29,0 0.57,0.116 0.78,0.322c0.2,0.206 0.32,0.486 0.32,0.778l0,0z"/>
   </g>
   <g id="svg_85" opacity="0.7">
    <path id="svg_86" fill="white" d="m855.21,680.89c0.002,0.214 -0.06,0.424 -0.177,0.603c-0.118,0.179 -0.286,0.319 -0.483,0.402c-0.197,0.083 -0.415,0.106 -0.625,0.066c-0.21,-0.041 -0.403,-0.143 -0.555,-0.294c-0.152,-0.15 -0.256,-0.343 -0.299,-0.553c-0.042,-0.209 -0.021,-0.427 0.06,-0.625c0.081,-0.198 0.22,-0.367 0.398,-0.486c0.178,-0.119 0.387,-0.183 0.601,-0.183c0.284,0 0.558,0.112 0.76,0.313c0.202,0.2 0.317,0.472 0.32,0.757z"/>
   </g>
   <g id="svg_87" opacity="0.7">
    <path id="svg_88" fill="white" d="m754.899,661.31c0,0.449 -0.133,0.888 -0.382,1.261c-0.25,0.374 -0.604,0.664 -1.019,0.836c-0.415,0.172 -0.871,0.217 -1.311,0.129c-0.441,-0.087 -0.845,-0.303 -1.163,-0.621c-0.317,-0.317 -0.533,-0.722 -0.621,-1.162c-0.088,-0.44 -0.043,-0.897 0.129,-1.312c0.172,-0.414 0.463,-0.769 0.836,-1.018c0.374,-0.25 0.812,-0.383 1.261,-0.383c0.602,0 1.18,0.239 1.605,0.665c0.426,0.426 0.665,1.003 0.665,1.605z"/>
   </g>
   <g id="svg_89" opacity="0.7">
    <path id="svg_90" fill="white" d="m1067.06,583.94c0.61,0 1.1,-0.492 1.1,-1.1c0,-0.607 -0.49,-1.1 -1.1,-1.1c-0.61,0 -1.1,0.493 -1.1,1.1c0,0.608 0.49,1.1 1.1,1.1z"/>
   </g>
  </g>
  <g id="svg_91" opacity="0.6">
   <path id="svg_92" fill="white" d="m1037.24,679c0,1.852 -0.55,3.663 -1.57,5.204c-1.03,1.541 -2.49,2.742 -4.2,3.452c-1.71,0.709 -3.6,0.895 -5.41,0.535c-1.82,-0.361 -3.49,-1.253 -4.8,-2.562c-1.31,-1.31 -2.2,-2.979 -2.56,-4.795c-0.36,-1.817 -0.18,-3.7 0.53,-5.411c0.71,-1.71 1.91,-3.172 3.46,-4.2c1.54,-1.027 3.35,-1.575 5.2,-1.573c2.48,0.003 4.86,0.989 6.61,2.741c1.75,1.753 2.74,4.13 2.74,6.609z"/>
  </g>
  <g id="svg_93" opacity="0.6">
   <g id="svg_94" opacity="0.6">
    <path id="svg_95" fill="white" d="m1027.89,697.89c-3.74,0.002 -7.39,-1.105 -10.5,-3.18c-3.11,-2.076 -5.54,-5.027 -6.97,-8.48c-1.43,-3.454 -1.81,-7.254 -1.08,-10.921c0.73,-3.667 2.53,-7.035 5.17,-9.68c2.64,-2.644 6.01,-4.445 9.68,-5.175c3.67,-0.73 7.47,-0.356 10.92,1.074c3.45,1.43 6.41,3.852 8.48,6.961c2.08,3.108 3.19,6.763 3.19,10.501c-0.01,5.009 -2,9.812 -5.54,13.355c-3.54,3.543 -8.34,5.537 -13.35,5.545l0,0zm0,-36.79c-3.54,-0.002 -7,1.046 -9.95,3.012c-2.94,1.966 -5.24,4.76 -6.6,8.031c-1.35,3.271 -1.71,6.87 -1.02,10.343c0.69,3.473 2.4,6.663 4.9,9.168c2.5,2.504 5.69,4.21 9.16,4.901c3.48,0.692 7.08,0.338 10.35,-1.017c3.27,-1.354 6.06,-3.648 8.03,-6.592c1.97,-2.944 3.02,-6.405 3.02,-9.946c0,-4.745 -1.89,-9.295 -5.24,-12.651c-3.36,-3.356 -7.91,-5.244 -12.65,-5.249z"/>
   </g>
  </g>
  <g id="svg_96" opacity="0.6">
   <path id="svg_97" fill="white" d="m788.089,446.92c5.164,0 9.35,-4.186 9.35,-9.35c0,-5.164 -4.186,-9.35 -9.35,-9.35c-5.164,0 -9.35,4.186 -9.35,9.35c0,5.164 4.186,9.35 9.35,9.35z"/>
  </g>
  <g id="svg_98" opacity="0.6">
   <g id="svg_99" opacity="0.6">
    <path id="svg_100" fill="white" d="m788.089,456.47c-3.737,-0.002 -7.391,-1.112 -10.497,-3.19c-3.107,-2.078 -5.528,-5.03 -6.957,-8.484c-1.429,-3.454 -1.802,-7.254 -1.071,-10.919c0.73,-3.666 2.531,-7.033 5.174,-9.675c2.644,-2.642 6.012,-4.441 9.678,-5.17c3.666,-0.728 7.465,-0.353 10.918,1.078c3.453,1.43 6.404,3.853 8.481,6.961c2.076,3.108 3.184,6.761 3.184,10.499c-0.005,5.013 -1.999,9.818 -5.545,13.362c-3.545,3.544 -8.352,5.535 -13.365,5.538l0,0zm0,-36.79c-3.54,0.002 -7,1.054 -9.943,3.022c-2.942,1.969 -5.235,4.766 -6.588,8.037c-1.353,3.272 -1.705,6.871 -1.013,10.343c0.693,3.472 2.399,6.66 4.904,9.162c2.505,2.502 5.695,4.205 9.168,4.894c3.473,0.689 7.071,0.332 10.342,-1.024c3.27,-1.357 6.064,-3.653 8.029,-6.598c1.965,-2.944 3.013,-6.406 3.011,-9.946c-0.008,-4.746 -1.898,-9.295 -5.255,-12.648c-3.358,-3.354 -7.909,-5.239 -12.655,-5.242l0,0z"/>
   </g>
  </g>
  <path id="svg_101" fill="white" d="m1054.05,380.71c-2.32,1.25 -4.95,1.784 -7.57,1.536c-2.62,-0.248 -5.11,-1.268 -7.15,-2.93c-2.04,-1.662 -3.54,-3.892 -4.31,-6.408c-0.77,-2.516 -0.78,-5.204 -0.03,-7.724c0.76,-2.521 2.25,-4.76 4.28,-6.436c2.03,-1.675 4.51,-2.71 7.13,-2.975c2.61,-0.265 5.25,0.253 7.57,1.488c2.33,1.235 4.23,3.131 5.48,5.449c1.67,3.104 2.04,6.742 1.02,10.117c-1.01,3.375 -3.32,6.21 -6.42,7.883l0,0z"/>
  <path id="svg_102" fill="white" d="m1047.74,389.61c-4.08,0 -8.06,-1.209 -11.45,-3.473c-3.39,-2.265 -6.03,-5.484 -7.59,-9.25c-1.56,-3.766 -1.97,-7.91 -1.17,-11.908c0.79,-3.998 2.75,-7.67 5.64,-10.552c2.88,-2.883 6.55,-4.846 10.55,-5.641c4,-0.795 8.14,-0.387 11.91,1.173c3.76,1.56 6.98,4.201 9.25,7.591c2.26,3.389 3.47,7.374 3.47,11.45c-0.01,5.465 -2.18,10.704 -6.04,14.568c-3.87,3.864 -9.11,6.037 -14.57,6.042zm0,-40.22c-3.88,0 -7.67,1.15 -10.89,3.305c-3.23,2.155 -5.74,5.217 -7.23,8.801c-1.48,3.583 -1.87,7.526 -1.11,11.33c0.75,3.804 2.62,7.298 5.36,10.04c2.75,2.743 6.24,4.611 10.04,5.367c3.81,0.757 7.75,0.369 11.33,-1.116c3.59,-1.484 6.65,-3.997 8.81,-7.222c2.15,-3.225 3.3,-7.016 3.3,-10.895c-0.01,-5.199 -2.07,-10.184 -5.75,-13.86c-3.68,-3.677 -8.66,-5.745 -13.86,-5.75z"/>
  <g id="svg_103" opacity="0.8">
   <path id="svg_104" fill="white" d="m1007.92,505.58l-177.82,0c-1.155,0 -2.09,0.936 -2.09,2.09l0,16.82c0,1.154 0.935,2.09 2.09,2.09l177.82,0c1.15,0 2.09,-0.936 2.09,-2.09l0,-16.82c0,-1.154 -0.94,-2.09 -2.09,-2.09z" opacity="0.8"/>
   <g id="svg_105" opacity="0.8">
    <path id="svg_106" fill="white" d="m1047.74,549.6l-250.111,0c-0.398,0 -0.779,-0.158 -1.061,-0.439c-0.281,-0.282 -0.439,-0.663 -0.439,-1.061c0,-0.398 0.158,-0.779 0.439,-1.061c0.282,-0.281 0.663,-0.439 1.061,-0.439l250.111,0c0.4,0 0.78,0.158 1.06,0.439c0.28,0.282 0.44,0.663 0.44,1.061c0,0.398 -0.16,0.779 -0.44,1.061c-0.28,0.281 -0.66,0.439 -1.06,0.439l0,0z" opacity="0.8"/>
   </g>
   <g id="svg_107" opacity="0.8">
    <path id="svg_108" fill="white" d="m1071,567.39l-296.631,0c-0.432,0 -0.847,-0.172 -1.152,-0.477c-0.306,-0.306 -0.478,-0.721 -0.478,-1.153c0,-0.432 0.172,-0.847 0.478,-1.152c0.305,-0.306 0.72,-0.478 1.152,-0.478l296.631,0c0.43,0 0.85,0.172 1.15,0.478c0.31,0.305 0.48,0.72 0.48,1.152c0,0.432 -0.17,0.847 -0.48,1.153c-0.3,0.305 -0.72,0.477 -1.15,0.477z" opacity="0.8"/>
   </g>
   <g id="svg_109" opacity="0.8">
    <path id="svg_110" fill="white" d="m1047.74,584.93l-250.111,0c-0.398,0 -0.779,-0.158 -1.061,-0.439c-0.281,-0.282 -0.439,-0.663 -0.439,-1.061c0,-0.398 0.158,-0.779 0.439,-1.061c0.282,-0.281 0.663,-0.439 1.061,-0.439l250.111,0c0.4,0 0.78,0.158 1.06,0.439c0.28,0.282 0.44,0.663 0.44,1.061c0,0.398 -0.16,0.779 -0.44,1.061c-0.28,0.281 -0.66,0.439 -1.06,0.439l0,0z" opacity="0.8"/>
   </g>
   <g id="svg_111" opacity="0.8">
    <path id="svg_112" fill="white" d="m1022.37,602.43l-199.37,0c-0.185,0.016 -0.372,-0.006 -0.548,-0.066c-0.175,-0.06 -0.337,-0.156 -0.474,-0.281c-0.137,-0.126 -0.246,-0.278 -0.321,-0.448c-0.074,-0.17 -0.113,-0.354 -0.113,-0.54c0,-0.186 0.039,-0.369 0.113,-0.539c0.075,-0.17 0.184,-0.323 0.321,-0.448c0.137,-0.126 0.299,-0.222 0.474,-0.281c0.176,-0.06 0.363,-0.083 0.548,-0.067l199.37,0c0.18,-0.016 0.37,0.007 0.55,0.067c0.17,0.059 0.33,0.155 0.47,0.281c0.14,0.125 0.25,0.278 0.32,0.448c0.08,0.17 0.12,0.353 0.12,0.539c0,0.186 -0.04,0.37 -0.12,0.54c-0.07,0.17 -0.18,0.322 -0.32,0.448c-0.14,0.125 -0.3,0.221 -0.47,0.281c-0.18,0.06 -0.37,0.082 -0.55,0.066z" opacity="0.8"/>
   </g>
  </g>
  <g id="svg_113" opacity="0.2">
   <g id="svg_114" opacity="0.2">
    <path id="svg_115" fill="black" d="m541.58,963.3l24.56,0l-1.41,17.37l-21.73,0l-1.42,-17.37z" opacity="0.2"/>
   </g>
  </g>
  <path id="svg_116" fill="#868A91" d="m647.39,963.3l1.42,17.37l3.3,40.14l15.13,0l3.3,-40.14l1.41,-17.37l-24.56,0z"/>
  <g id="svg_117" opacity="0.2">
   <g id="svg_118" opacity="0.2">
    <path id="svg_119" fill="black" d="m671.95,963.3l-1.41,17.37l-21.73,0l-1.42,-17.37l24.56,0z" opacity="0.2"/>
   </g>
  </g>
  <path id="svg_120" fill="#868A91" d="m630,956.5c-0.133,0 -0.26,-0.053 -0.354,-0.146c-0.093,-0.094 -0.146,-0.221 -0.146,-0.354l0,-206.65c0,-0.133 0.053,-0.26 0.146,-0.354c0.094,-0.093 0.221,-0.146 0.354,-0.146c0.133,0 0.26,0.053 0.354,0.146c0.093,0.094 0.146,0.221 0.146,0.354l0,206.65c0,0.133 -0.053,0.26 -0.146,0.354c-0.094,0.093 -0.221,0.146 -0.354,0.146z"/>
  <path id="svg_121" fill="#868A91" d="m626.44,806.19l-211.73,0c-0.133,0 -0.26,-0.053 -0.354,-0.146c-0.093,-0.094 -0.146,-0.221 -0.146,-0.354c0,-0.133 0.053,-0.26 0.146,-0.354c0.094,-0.093 0.221,-0.146 0.354,-0.146l211.73,0c0.133,0 0.26,0.053 0.354,0.146c0.093,0.094 0.146,0.221 0.146,0.354c0,0.133 -0.053,0.26 -0.146,0.354c-0.094,0.093 -0.221,0.146 -0.354,0.146z"/>
  <path id="svg_122" fill="#868A91" d="m626.44,853.19l-211.73,0c-0.133,0 -0.26,-0.053 -0.354,-0.146c-0.093,-0.094 -0.146,-0.221 -0.146,-0.354c0,-0.133 0.053,-0.26 0.146,-0.354c0.094,-0.093 0.221,-0.146 0.354,-0.146l211.73,0c0.133,0 0.26,0.053 0.354,0.146c0.093,0.094 0.146,0.221 0.146,0.354c0,0.133 -0.053,0.26 -0.146,0.354c-0.094,0.093 -0.221,0.146 -0.354,0.146z"/>
  <path id="svg_123" fill="rgb(77, 97, 252)" class="change-color-in-svg" d="m539.999,761.51l-15.8,-108.83c-0.802,-5.471 -3.224,-10.576 -6.955,-14.658c-3.73,-4.081 -8.598,-6.952 -13.975,-8.242l-42.25,-10l-42.56,0.4l-39.33,9.39c-6.735,1.611 -12.621,5.688 -16.496,11.428c-3.875,5.739 -5.457,12.723 -4.434,19.572l4.58,30.17l7.74,16.74c0.359,0.928 0.649,1.88 0.87,2.85l7.18,39.25c0.622,3.366 2.409,6.406 5.047,8.587c2.639,2.181 5.96,3.365 9.383,3.343l147,0z"/>
  <path id="svg_124" fill="white" d="m515.519,652c-0.285,0.006 -0.564,-0.092 -0.782,-0.276c-0.219,-0.184 -0.364,-0.441 -0.408,-0.724l-0.55,-3.79c-0.036,-0.162 -0.037,-0.33 -0.005,-0.493c0.032,-0.163 0.098,-0.317 0.193,-0.454c0.095,-0.136 0.217,-0.251 0.359,-0.337c0.142,-0.087 0.3,-0.143 0.464,-0.165c0.165,-0.022 0.332,-0.01 0.492,0.036c0.16,0.045 0.308,0.124 0.436,0.23c0.128,0.106 0.232,0.238 0.306,0.386c0.074,0.149 0.117,0.311 0.125,0.477l0.55,3.79c0.024,0.154 0.018,0.311 -0.02,0.462c-0.037,0.151 -0.105,0.293 -0.198,0.418c-0.093,0.125 -0.21,0.23 -0.344,0.309c-0.135,0.079 -0.283,0.13 -0.438,0.151l-0.18,-0.02z"/>
  <path id="svg_125" fill="white" d="m469.789,695.25c-0.3,-0.001 -0.588,-0.115 -0.809,-0.319c-0.22,-0.203 -0.356,-0.482 -0.381,-0.781l-0.39,-3.87c-0.021,-0.161 -0.009,-0.325 0.036,-0.481c0.045,-0.156 0.121,-0.302 0.224,-0.427c0.103,-0.126 0.231,-0.229 0.375,-0.304c0.145,-0.074 0.303,-0.118 0.465,-0.129c0.162,-0.011 0.325,0.011 0.478,0.066c0.153,0.054 0.294,0.139 0.413,0.25c0.119,0.111 0.214,0.244 0.279,0.393c0.065,0.149 0.099,0.31 0.1,0.472l0.42,3.88c0.022,0.157 0.009,0.317 -0.036,0.469c-0.046,0.151 -0.123,0.292 -0.227,0.411c-0.105,0.119 -0.233,0.215 -0.377,0.281c-0.145,0.065 -0.301,0.099 -0.46,0.099l-0.11,-0.01z"/>
  <path id="svg_126" fill="white" d="m406.059,650.87c-0.3,-0.004 -0.589,-0.12 -0.809,-0.325c-0.22,-0.205 -0.356,-0.485 -0.381,-0.785l-0.389,-3.87c-0.002,-0.303 0.112,-0.595 0.318,-0.816c0.206,-0.222 0.489,-0.357 0.791,-0.377c0.302,-0.021 0.601,0.075 0.835,0.267c0.234,0.192 0.386,0.466 0.426,0.766l0.389,3.87c0.022,0.157 0.009,0.318 -0.036,0.47c-0.045,0.152 -0.123,0.293 -0.227,0.413c-0.104,0.12 -0.232,0.217 -0.377,0.284c-0.144,0.066 -0.301,0.102 -0.459,0.103c0,-0.08 -0.081,0 -0.081,0z"/>
  <path id="svg_127" fill="white" d="m432.83,703.94c-0.258,0.006 -0.509,-0.079 -0.71,-0.24c-0.238,-0.212 -0.384,-0.508 -0.406,-0.825c-0.022,-0.318 0.08,-0.632 0.286,-0.875l2.45,-3c0.093,-0.135 0.213,-0.249 0.352,-0.335c0.14,-0.086 0.295,-0.142 0.458,-0.164c0.162,-0.023 0.327,-0.011 0.484,0.034c0.158,0.045 0.304,0.122 0.431,0.226c0.126,0.105 0.229,0.234 0.302,0.381c0.073,0.146 0.115,0.306 0.123,0.47c0.008,0.163 -0.018,0.327 -0.076,0.48c-0.059,0.153 -0.149,0.292 -0.264,0.408l-2.44,3c-0.271,0.253 -0.62,0.408 -0.99,0.44l0,0z"/>
  <path id="svg_128" fill="white" d="m487.799,635.15c-0.293,0.002 -0.576,-0.109 -0.79,-0.31c-0.232,-0.205 -0.378,-0.49 -0.408,-0.798c-0.029,-0.309 0.059,-0.617 0.248,-0.862l2.29,-2.77c0.208,-0.21 0.486,-0.334 0.781,-0.348c0.294,-0.015 0.584,0.082 0.811,0.27c0.227,0.188 0.375,0.454 0.416,0.746c0.04,0.293 -0.03,0.589 -0.198,0.832l-2.29,2.77c-0.096,0.14 -0.225,0.255 -0.374,0.337c-0.149,0.082 -0.316,0.127 -0.486,0.133l0,0z"/>
  <path id="svg_129" fill="white" d="m433.3,668.56c-0.197,-0.013 -0.388,-0.069 -0.561,-0.164c-0.173,-0.095 -0.323,-0.227 -0.439,-0.386l-1.9,-3.09c-0.083,-0.135 -0.138,-0.284 -0.163,-0.44c-0.025,-0.156 -0.019,-0.316 0.018,-0.469c0.036,-0.154 0.103,-0.299 0.196,-0.427c0.092,-0.128 0.209,-0.236 0.344,-0.319c0.134,-0.083 0.284,-0.138 0.44,-0.163c0.156,-0.025 0.315,-0.019 0.469,0.018c0.154,0.036 0.299,0.103 0.427,0.196c0.128,0.092 0.236,0.209 0.319,0.344l1.9,3.08c0.154,0.276 0.198,0.601 0.124,0.908c-0.074,0.308 -0.261,0.576 -0.524,0.752c-0.208,0.085 -0.427,0.138 -0.65,0.16l0,0z"/>
  <path id="svg_130" fill="white" d="m495.219,716.26c-0.295,0.002 -0.579,-0.113 -0.79,-0.32c-0.23,-0.206 -0.374,-0.491 -0.404,-0.799c-0.029,-0.307 0.058,-0.615 0.244,-0.861l2.29,-2.76c0.203,-0.229 0.487,-0.37 0.791,-0.394c0.305,-0.023 0.607,0.072 0.843,0.266c0.236,0.195 0.387,0.473 0.422,0.777c0.035,0.303 -0.05,0.608 -0.236,0.851l-2.29,2.76c-0.076,0.161 -0.201,0.294 -0.357,0.38c-0.156,0.087 -0.335,0.121 -0.513,0.1l0,0z"/>
  <path id="svg_131" fill="#FC9D9D" d="m582.85,980.71l2.84,4.42c3.735,5.862 9.391,10.245 16,12.4l35.93,12.72c3.24,1 2.84,5.76 -0.55,5.76l-4.5,0c-0.29,0.4 -0.671,0.72 -1.111,0.94c-0.44,0.22 -0.927,0.34 -1.419,0.33c-1.022,-0.05 -1.998,-0.44 -2.77,-1.11c-0.07,-0.08 -0.15,-0.08 -0.23,-0.16l-0.63,0c-0.08,0.08 -0.24,0.08 -0.32,0.24c-0.296,0.34 -0.659,0.62 -1.068,0.81c-0.408,0.19 -0.852,0.29 -1.302,0.3c-0.953,-0.06 -1.864,-0.41 -2.61,-1c-0.076,-0.07 -0.165,-0.13 -0.263,-0.16c-0.098,-0.03 -0.202,-0.05 -0.305,-0.04c-0.103,0.01 -0.204,0.04 -0.296,0.08c-0.091,0.05 -0.172,0.12 -0.236,0.2c-0.232,0.28 -0.523,0.5 -0.852,0.65c-0.328,0.15 -0.687,0.23 -1.048,0.22c-0.799,-0.04 -1.569,-0.31 -2.21,-0.79c-0.151,-0.1 -0.331,-0.15 -0.512,-0.14c-0.181,0.02 -0.353,0.09 -0.488,0.21c-0.474,0.44 -1.092,0.7 -1.74,0.72c-0.436,0 -0.864,-0.12 -1.238,-0.35c-0.374,-0.22 -0.682,-0.54 -0.892,-0.92l-0.32,0l-44.46,-0.71c-4.27,-0.08 -7.43,-1.42 -9.24,-4.74l-0.16,-23.42l26,-6.46z"/>
  <path id="svg_132" fill="black" d="m638.53,1010.64c-0.08,-0.08 -0.24,-0.16 -0.32,-0.23c-0.177,-0.09 -0.361,-0.17 -0.55,-0.24l-0.71,-0.24l-0.08,0c-0.12,0.06 -0.229,0.14 -0.32,0.24c-0.287,0.35 -0.649,0.63 -1.059,0.82c-0.41,0.19 -0.859,0.29 -1.311,0.28c-0.95,0 -1.869,-0.33 -2.6,-0.94c-0.163,-0.12 -0.366,-0.18 -0.57,-0.17c-0.205,0.01 -0.397,0.1 -0.54,0.25c-0.23,0.28 -0.519,0.5 -0.847,0.65c-0.327,0.14 -0.684,0.22 -1.043,0.21c-0.8,-0.03 -1.571,-0.31 -2.21,-0.79c-0.154,-0.09 -0.333,-0.14 -0.513,-0.12c-0.179,0.01 -0.35,0.08 -0.487,0.2c-0.228,0.23 -0.5,0.41 -0.799,0.53c-0.298,0.12 -0.618,0.18 -0.941,0.18c-0.436,0.01 -0.866,-0.11 -1.242,-0.33c-0.375,-0.22 -0.683,-0.54 -0.888,-0.93l-0.32,0l-21.91,-0.35l4.62,-11.34c-2.67,4.32 -6.091,8.13 -10.1,11.25l-17.07,-0.27c-4.26,-0.08 -7.42,-1.42 -9.24,-4.74c-1.085,-1.93 -1.479,-4.17 -1.115,-6.352c0.364,-2.183 1.463,-4.176 3.115,-5.648l13.38,-11.89l-19.86,5.33l-6,1l0,23.64c1.81,3.32 5,4.66 9.24,4.74l44.46,0.71l0.32,0c0.21,0.38 0.519,0.7 0.893,0.92c0.375,0.22 0.802,0.34 1.237,0.34c0.645,-0.01 1.261,-0.27 1.73,-0.71c0.137,-0.12 0.308,-0.19 0.488,-0.2c0.181,-0.01 0.36,0.03 0.512,0.13c0.642,0.47 1.412,0.75 2.21,0.78c0.361,0.01 0.719,-0.07 1.047,-0.21c0.329,-0.15 0.62,-0.37 0.853,-0.65c0.065,-0.08 0.145,-0.15 0.237,-0.2c0.091,-0.04 0.192,-0.07 0.295,-0.08c0.104,-0.01 0.208,0.01 0.305,0.04c0.098,0.03 0.187,0.09 0.263,0.16c0.752,0.58 1.664,0.9 2.61,0.94c0.45,-0.01 0.894,-0.11 1.302,-0.3c0.408,-0.19 0.772,-0.46 1.068,-0.8c0.08,-0.16 0.24,-0.16 0.32,-0.24l0.63,0c0.08,0.08 0.15,0.08 0.23,0.16c0.771,0.67 1.748,1.06 2.77,1.11c0.492,0 0.978,-0.11 1.418,-0.33c0.44,-0.22 0.821,-0.54 1.112,-0.94l4.5,0c3.06,-0.01 3.69,-3.79 1.48,-5.37z" opacity="0.15"/>
  <path id="svg_133" fill="white" d="m487.8,670.3c-0.113,0.012 -0.227,-0.016 -0.32,-0.08l-3.87,-1.22c-0.291,-0.105 -0.53,-0.317 -0.668,-0.594c-0.137,-0.276 -0.163,-0.595 -0.072,-0.89c0.092,-0.295 0.293,-0.544 0.563,-0.694c0.27,-0.15 0.588,-0.19 0.887,-0.112l3.87,1.19c0.301,0.097 0.553,0.308 0.701,0.589c0.148,0.28 0.18,0.607 0.089,0.911c-0.066,0.262 -0.219,0.493 -0.433,0.657c-0.214,0.163 -0.478,0.249 -0.747,0.243l0,0z"/>
  <path id="svg_134" fill="white" d="m517.65,698.41l-0.24,-0.24l-2.29,-3.39c-0.179,-0.265 -0.246,-0.591 -0.185,-0.905c0.061,-0.314 0.244,-0.591 0.51,-0.77c0.265,-0.179 0.59,-0.245 0.904,-0.184c0.314,0.061 0.592,0.244 0.771,0.509l2.29,3.4c0.155,0.237 0.22,0.521 0.184,0.802c-0.036,0.281 -0.171,0.54 -0.38,0.73c-0.21,0.191 -0.481,0.3 -0.764,0.309c-0.283,0.009 -0.559,-0.084 -0.78,-0.261l-0.02,0z"/>
  <path id="svg_135" fill="#FC9D9D" d="m680.85,979.71l2.84,4.42c3.735,5.862 9.391,10.245 16,12.4l35.93,12.72c3.24,1 2.84,5.76 -0.55,5.76l-4.5,0c-0.29,0.4 -0.671,0.72 -1.111,0.94c-0.44,0.22 -0.927,0.34 -1.419,0.33c-1.022,-0.05 -1.998,-0.44 -2.77,-1.11c-0.07,-0.08 -0.15,-0.08 -0.23,-0.16l-0.63,0c-0.08,0.08 -0.24,0.08 -0.32,0.24c-0.296,0.34 -0.659,0.62 -1.068,0.81c-0.408,0.19 -0.852,0.29 -1.302,0.3c-0.953,-0.06 -1.864,-0.41 -2.61,-1c-0.076,-0.07 -0.165,-0.13 -0.263,-0.16c-0.098,-0.03 -0.202,-0.05 -0.305,-0.04c-0.103,0.01 -0.204,0.04 -0.296,0.08c-0.091,0.05 -0.172,0.12 -0.236,0.2c-0.232,0.28 -0.523,0.5 -0.852,0.65c-0.328,0.15 -0.687,0.23 -1.048,0.22c-0.799,-0.04 -1.569,-0.31 -2.21,-0.79c-0.151,-0.1 -0.331,-0.15 -0.512,-0.14c-0.181,0.02 -0.353,0.09 -0.488,0.21c-0.474,0.44 -1.092,0.7 -1.74,0.72c-0.436,0 -0.864,-0.12 -1.238,-0.35c-0.374,-0.22 -0.682,-0.54 -0.892,-0.92l-0.32,0l-44.46,-0.71c-4.27,-0.08 -7.43,-1.42 -9.24,-4.74l-0.16,-23.42l26,-6.46z"/>
  <path id="svg_136" fill="black" d="m736.53,1009.64c-0.08,-0.08 -0.24,-0.16 -0.32,-0.23c-0.177,-0.09 -0.361,-0.17 -0.55,-0.24l-0.71,-0.24l-0.08,0c-0.12,0.06 -0.229,0.14 -0.32,0.24c-0.287,0.35 -0.649,0.63 -1.059,0.82c-0.41,0.19 -0.859,0.29 -1.311,0.28c-0.95,0 -1.869,-0.33 -2.6,-0.94c-0.163,-0.12 -0.366,-0.18 -0.57,-0.17c-0.205,0.01 -0.397,0.1 -0.54,0.25c-0.23,0.28 -0.519,0.5 -0.847,0.65c-0.327,0.14 -0.684,0.22 -1.043,0.21c-0.8,-0.03 -1.571,-0.31 -2.21,-0.79c-0.154,-0.09 -0.333,-0.14 -0.513,-0.12c-0.179,0.01 -0.35,0.08 -0.487,0.2c-0.228,0.23 -0.5,0.41 -0.799,0.53c-0.298,0.12 -0.618,0.18 -0.941,0.18c-0.436,0.01 -0.866,-0.11 -1.242,-0.33c-0.375,-0.22 -0.683,-0.54 -0.888,-0.93l-0.32,0l-21.91,-0.35l4.62,-11.34c-2.67,4.32 -6.091,8.13 -10.1,11.25l-17.07,-0.27c-4.26,-0.08 -7.42,-1.42 -9.24,-4.74c-1.085,-1.93 -1.479,-4.17 -1.115,-6.352c0.364,-2.183 1.463,-4.176 3.115,-5.648l13.38,-11.89l-19.86,5.33l-6,1l0,23.64c1.81,3.32 5,4.66 9.24,4.74l44.46,0.71l0.32,0c0.21,0.38 0.519,0.7 0.893,0.92c0.375,0.22 0.802,0.34 1.237,0.34c0.645,-0.01 1.261,-0.27 1.73,-0.71c0.137,-0.12 0.308,-0.19 0.488,-0.2c0.181,-0.01 0.36,0.03 0.512,0.13c0.642,0.47 1.412,0.75 2.21,0.78c0.361,0.01 0.719,-0.07 1.047,-0.21c0.329,-0.15 0.62,-0.37 0.853,-0.65c0.065,-0.08 0.145,-0.15 0.237,-0.2c0.091,-0.04 0.192,-0.07 0.295,-0.08c0.104,-0.01 0.208,0.01 0.305,0.04c0.098,0.03 0.187,0.09 0.263,0.16c0.752,0.58 1.664,0.9 2.61,0.94c0.45,-0.01 0.894,-0.11 1.302,-0.3c0.408,-0.19 0.772,-0.46 1.068,-0.8c0.08,-0.16 0.24,-0.16 0.32,-0.24l0.63,0c0.08,0.08 0.15,0.08 0.23,0.16c0.771,0.67 1.748,1.06 2.77,1.11c0.492,0 0.978,-0.11 1.418,-0.33c0.44,-0.22 0.821,-0.54 1.112,-0.94l4.5,0c3.06,-0.01 3.69,-3.79 1.48,-5.37z" opacity="0.15"/>
  <path id="svg_137" fill="rgb(77, 97, 252)" class="change-color-in-svg" d="m737.479,1018.41l-81.48,0c-0.586,0 -1.148,-0.23 -1.563,-0.65c-0.414,-0.41 -0.647,-0.97 -0.647,-1.56c0,-0.59 0.233,-1.15 0.647,-1.56c0.415,-0.42 0.977,-0.65 1.563,-0.65l83.64,0l0,2.21c0.005,0.58 -0.219,1.14 -0.624,1.55c-0.404,0.42 -0.957,0.65 -1.536,0.66l0,0z"/>
  <path id="svg_138" fill="rgb(77, 97, 252)" class="change-color-in-svg" d="m739.61,1014c-0.084,-2.28 -0.852,-4.47 -2.205,-6.31c-1.352,-1.83 -3.225,-3.21 -5.375,-3.96l-27,-9.4c-0.27,-0.097 -0.556,-0.136 -0.842,-0.116c-0.285,0.02 -0.563,0.099 -0.816,0.233c-0.253,0.134 -0.476,0.318 -0.654,0.543c-0.177,0.224 -0.306,0.483 -0.378,0.76c-1.18,4 -4.1,12.4 -9.87,18.25l-36.47,0c-0.291,0 -0.579,0.05 -0.848,0.17c-0.268,0.11 -0.513,0.27 -0.718,0.47c-0.205,0.21 -0.368,0.45 -0.479,0.72c-0.11,0.27 -0.167,0.56 -0.165,0.85c-0.007,0.29 0.045,0.58 0.154,0.85c0.109,0.28 0.271,0.52 0.478,0.73c0.206,0.2 0.453,0.37 0.724,0.48c0.271,0.1 0.562,0.16 0.854,0.15l81.51,0c0.565,0 1.106,-0.22 1.506,-0.62c0.399,-0.4 0.624,-0.95 0.624,-1.51l-0.03,-2.29z"/>
  <path id="svg_139" fill="#21252B" d="m739.61,1014c-0.084,-2.28 -0.852,-4.47 -2.205,-6.31c-1.352,-1.83 -3.225,-3.21 -5.375,-3.96l-27,-9.4c-0.27,-0.097 -0.556,-0.136 -0.842,-0.116c-0.285,0.02 -0.563,0.099 -0.816,0.233c-0.253,0.134 -0.476,0.318 -0.654,0.543c-0.177,0.224 -0.306,0.483 -0.378,0.76c-1.18,4 -4.1,12.4 -9.87,18.25l-36.47,0c-0.291,0 -0.579,0.05 -0.848,0.17c-0.268,0.11 -0.513,0.27 -0.718,0.47c-0.205,0.21 -0.368,0.45 -0.479,0.72c-0.11,0.27 -0.167,0.56 -0.165,0.85c-0.007,0.29 0.045,0.58 0.154,0.85c0.109,0.28 0.271,0.52 0.478,0.73c0.206,0.2 0.453,0.37 0.724,0.48c0.271,0.1 0.562,0.16 0.854,0.15l81.51,0c0.565,0 1.106,-0.22 1.506,-0.62c0.399,-0.4 0.624,-0.95 0.624,-1.51l-0.03,-2.29z"/>
  <path id="svg_140" fill="black" d="m739.61,1014c-0.067,-1.79 -0.561,-3.55 -1.441,-5.11c-0.88,-1.57 -2.121,-2.9 -3.619,-3.89c3.87,2.77 3.16,5.53 -2.37,5.29c-28.51,-1.34 -32.22,-1.34 -35.53,-1.65c0.027,-0.03 0.047,-0.07 0.059,-0.11c0.012,-0.04 0.016,-0.09 0.011,-0.13c-1.243,2.02 -2.698,3.9 -4.34,5.61l-36.38,0c-0.291,0 -0.579,0.05 -0.848,0.17c-0.268,0.11 -0.513,0.27 -0.718,0.47c-0.205,0.21 -0.368,0.45 -0.479,0.72c-0.11,0.27 -0.167,0.56 -0.165,0.85c-0.007,0.29 0.045,0.58 0.154,0.85c0.109,0.27 0.271,0.52 0.478,0.73c0.206,0.2 0.453,0.37 0.724,0.48c0.271,0.1 0.562,0.16 0.854,0.15l81.51,0c0.565,0 1.106,-0.22 1.506,-0.62c0.399,-0.4 0.624,-0.95 0.624,-1.51l-0.03,-2.3z" opacity="0.4"/>
  <path id="svg_141" fill="black" d="m739.61,1013.27l-46.52,0l-0.63,0.72l47.15,0l0,-0.72z" opacity="0.4"/>
  <path id="svg_142" fill="white" d="m462.439,648.89c-0.109,0.01 -0.219,-0.018 -0.31,-0.08l-3.87,-1.18c-0.157,-0.041 -0.304,-0.113 -0.432,-0.213c-0.128,-0.099 -0.235,-0.223 -0.314,-0.365c-0.078,-0.142 -0.128,-0.298 -0.144,-0.459c-0.017,-0.162 -0.001,-0.325 0.047,-0.479c0.048,-0.155 0.127,-0.299 0.232,-0.422c0.105,-0.124 0.234,-0.225 0.379,-0.297c0.145,-0.073 0.304,-0.115 0.466,-0.124c0.161,-0.009 0.324,0.014 0.476,0.069l3.87,1.18c0.301,0.099 0.551,0.311 0.698,0.59c0.148,0.28 0.181,0.606 0.092,0.91c-0.09,0.246 -0.252,0.46 -0.463,0.615c-0.212,0.155 -0.465,0.244 -0.727,0.255z"/>
  <path id="svg_143" fill="white" d="m459.13,727.47c-0.113,0.012 -0.227,-0.016 -0.32,-0.08l-3.87,-1.18c-0.291,-0.105 -0.53,-0.317 -0.668,-0.594c-0.137,-0.276 -0.163,-0.595 -0.072,-0.89c0.092,-0.295 0.293,-0.544 0.563,-0.694c0.27,-0.15 0.588,-0.19 0.887,-0.112l3.87,1.18c0.3,0.099 0.55,0.311 0.698,0.59c0.147,0.28 0.18,0.606 0.092,0.91c-0.088,0.246 -0.247,0.461 -0.457,0.616c-0.211,0.155 -0.462,0.243 -0.723,0.254l0,0z"/>
  <path id="svg_144" fill="black" d="m408.499,724.71l-6.23,-61.36c-0.032,-0.167 0.004,-0.34 0.1,-0.481c0.095,-0.14 0.243,-0.237 0.41,-0.269c0.167,-0.032 0.34,0.004 0.481,0.1c0.14,0.095 0.237,0.243 0.269,0.41l19.47,63.73l-14.5,-2.13z" opacity="0.2"/>
  <path id="svg_145" fill="black" d="m496.09,749.35l0.08,-0.08l0.15,0.16l-0.23,-0.08z" opacity="0.2"/>
  <path id="svg_146" fill="#868A91" d="m524.519,753.06c-0.383,0.474 -0.935,0.78 -1.539,0.854c-0.604,0.075 -1.214,-0.088 -1.701,-0.454l-14,-10.27l17.77,8.13c0.034,0.311 0.004,0.625 -0.087,0.924c-0.091,0.299 -0.242,0.577 -0.443,0.816l0,0z"/>
  <path id="svg_147" fill="#3F4249" d="m689,990l-36.84,-0.78l-39,-168.64l-143.69,0l0,-59.07l168.53,0c5.102,0.008 10.086,1.534 14.319,4.383c4.233,2.849 7.523,6.893 9.451,11.617l27.23,212.49z"/>
  <path id="svg_148" fill="black" d="m663,990l-10.84,-0.78l-39,-168.64l-143.69,0l0,-59.07l139.47,0c5.103,0.006 10.088,1.531 14.321,4.38c4.234,2.849 7.523,6.895 9.449,11.62l30.29,212.49z" opacity="0.2"/>
  <path id="svg_149" fill="#3F4249" d="m593,990l-40.21,0.22l-28.95,-169.64l-142.66,0l0,-59.07l168.53,0c5.102,0.007 10.087,1.532 14.32,4.382c4.233,2.849 7.523,6.893 9.45,11.618l19.52,212.49z"/>
  <path id="svg_150" fill="black" d="m550.929,813.77c-0.351,-5.464 -2.671,-10.616 -6.53,-14.5c-4.7,-4.61 -10.54,-6.17 -19.33,-6.17l-90.07,0c-3.161,0.002 -6.252,-0.924 -8.892,-2.662c-2.64,-1.739 -4.711,-4.214 -5.958,-7.118l-9.15,-21.32l-3.84,-0.49l0,59.07l117.6,0l28,169.64l11.24,-0.22l-13.07,-176.23z" opacity="0.2"/>
  <path id="svg_151" fill="black" d="m454.47,708.05c0.312,0 0.618,-0.093 0.877,-0.266c0.26,-0.174 0.463,-0.421 0.582,-0.709c0.12,-0.289 0.151,-0.607 0.09,-0.913c-0.061,-0.307 -0.211,-0.588 -0.432,-0.809c-0.221,-0.221 -0.503,-0.372 -0.809,-0.433c-0.307,-0.061 -0.624,-0.029 -0.913,0.09c-0.289,0.12 -0.535,0.322 -0.709,0.582c-0.174,0.26 -0.266,0.566 -0.266,0.878c0,0.419 0.166,0.821 0.462,1.117c0.297,0.297 0.699,0.463 1.118,0.463l0,0z" opacity="0.6"/>
  <path id="svg_152" fill="black" d="m520.33,679.69c0.313,0 0.618,-0.093 0.878,-0.266c0.26,-0.174 0.462,-0.421 0.582,-0.709c0.119,-0.289 0.151,-0.607 0.09,-0.913c-0.061,-0.307 -0.212,-0.588 -0.433,-0.809c-0.221,-0.221 -0.502,-0.372 -0.809,-0.433c-0.306,-0.061 -0.624,-0.029 -0.913,0.09c-0.288,0.12 -0.535,0.322 -0.709,0.582c-0.173,0.26 -0.266,0.566 -0.266,0.878c-0.001,0.208 0.039,0.414 0.118,0.606c0.079,0.193 0.195,0.367 0.342,0.514c0.147,0.147 0.322,0.264 0.514,0.342c0.192,0.079 0.398,0.119 0.606,0.118l0,0z" opacity="0.6"/>
  <path id="svg_153" fill="black" d="m489.85,649.45c0.312,0 0.618,-0.093 0.877,-0.266c0.26,-0.174 0.463,-0.421 0.582,-0.709c0.12,-0.289 0.151,-0.607 0.09,-0.913c-0.061,-0.307 -0.211,-0.588 -0.432,-0.809c-0.221,-0.221 -0.503,-0.372 -0.809,-0.433c-0.307,-0.061 -0.624,-0.029 -0.913,0.09c-0.289,0.12 -0.536,0.322 -0.709,0.582c-0.174,0.26 -0.266,0.566 -0.266,0.878c0,0.419 0.166,0.821 0.462,1.117c0.297,0.297 0.699,0.463 1.118,0.463l0,0z" opacity="0.6"/>
  <path id="svg_154" fill="rgb(77, 97, 252)" class="change-color-in-svg" d="m639.479,1019.41l-81.48,0c-0.586,0 -1.148,-0.23 -1.563,-0.65c-0.414,-0.41 -0.647,-0.97 -0.647,-1.56c0,-0.59 0.233,-1.15 0.647,-1.56c0.415,-0.42 0.977,-0.65 1.563,-0.65l83.64,0l0,2.21c0.005,0.58 -0.219,1.14 -0.624,1.55c-0.404,0.42 -0.957,0.65 -1.536,0.66l0,0z"/>
  <path id="svg_155" fill="rgb(77, 97, 252)" class="change-color-in-svg" d="m641.61,1015c-0.084,-2.28 -0.852,-4.47 -2.205,-6.31c-1.352,-1.83 -3.225,-3.21 -5.375,-3.96l-27,-9.4c-0.27,-0.097 -0.556,-0.136 -0.842,-0.116c-0.285,0.02 -0.563,0.099 -0.816,0.233c-0.253,0.134 -0.476,0.318 -0.654,0.543c-0.177,0.224 -0.306,0.483 -0.378,0.76c-1.18,4 -4.1,12.4 -9.87,18.25l-36.47,0c-0.291,0 -0.579,0.05 -0.848,0.17c-0.268,0.11 -0.513,0.27 -0.718,0.47c-0.205,0.21 -0.368,0.45 -0.479,0.72c-0.11,0.27 -0.167,0.56 -0.165,0.85c-0.007,0.29 0.045,0.58 0.154,0.85c0.109,0.28 0.271,0.52 0.478,0.73c0.206,0.2 0.453,0.37 0.724,0.48c0.271,0.1 0.562,0.16 0.854,0.15l81.51,0c0.565,0 1.106,-0.22 1.506,-0.62c0.399,-0.4 0.624,-0.95 0.624,-1.51l-0.03,-2.29z"/>
  <path id="svg_156" fill="#21252B" d="m641.61,1015c-0.084,-2.28 -0.852,-4.47 -2.205,-6.31c-1.352,-1.83 -3.225,-3.21 -5.375,-3.96l-27,-9.4c-0.27,-0.097 -0.556,-0.136 -0.842,-0.116c-0.285,0.02 -0.563,0.099 -0.816,0.233c-0.253,0.134 -0.476,0.318 -0.654,0.543c-0.177,0.224 -0.306,0.483 -0.378,0.76c-1.18,4 -4.1,12.4 -9.87,18.25l-36.47,0c-0.291,0 -0.579,0.05 -0.848,0.17c-0.268,0.11 -0.513,0.27 -0.718,0.47c-0.205,0.21 -0.368,0.45 -0.479,0.72c-0.11,0.27 -0.167,0.56 -0.165,0.85c-0.007,0.29 0.045,0.58 0.154,0.85c0.109,0.28 0.271,0.52 0.478,0.73c0.206,0.2 0.453,0.37 0.724,0.48c0.271,0.1 0.562,0.16 0.854,0.15l81.51,0c0.565,0 1.106,-0.22 1.506,-0.62c0.399,-0.4 0.624,-0.95 0.624,-1.51l-0.03,-2.29z"/>
  <path id="svg_157" fill="black" d="m641.61,1015c-0.067,-1.79 -0.561,-3.55 -1.441,-5.11c-0.88,-1.57 -2.121,-2.9 -3.619,-3.89c3.87,2.77 3.16,5.53 -2.37,5.29c-28.51,-1.34 -32.22,-1.34 -35.53,-1.65c0.027,-0.03 0.047,-0.07 0.059,-0.11c0.012,-0.04 0.016,-0.09 0.011,-0.13c-1.243,2.02 -2.698,3.9 -4.34,5.61l-36.38,0c-0.291,0 -0.579,0.05 -0.848,0.17c-0.268,0.11 -0.513,0.27 -0.718,0.47c-0.205,0.21 -0.368,0.45 -0.479,0.72c-0.11,0.27 -0.167,0.56 -0.165,0.85c-0.007,0.29 0.045,0.58 0.154,0.85c0.109,0.27 0.271,0.52 0.478,0.73c0.206,0.2 0.453,0.37 0.724,0.48c0.271,0.1 0.562,0.16 0.854,0.15l81.51,0c0.565,0 1.106,-0.22 1.506,-0.62c0.399,-0.4 0.624,-0.95 0.624,-1.51l-0.03,-2.3z" opacity="0.4"/>
  <path id="svg_158" fill="black" d="m641.61,1014.27l-46.52,0l-0.63,0.72l47.15,0l0,-0.72z" opacity="0.4"/>
  <path id="svg_159" fill="black" d="m456.519,671.09c0.313,0 0.618,-0.093 0.878,-0.266c0.26,-0.174 0.463,-0.421 0.582,-0.709c0.12,-0.289 0.151,-0.607 0.09,-0.913c-0.061,-0.307 -0.211,-0.588 -0.432,-0.809c-0.221,-0.221 -0.503,-0.372 -0.809,-0.433c-0.307,-0.061 -0.624,-0.029 -0.913,0.09c-0.289,0.12 -0.536,0.322 -0.709,0.582c-0.174,0.26 -0.267,0.566 -0.267,0.878c0,0.419 0.167,0.821 0.463,1.117c0.297,0.297 0.698,0.463 1.117,0.463l0,0z" opacity="0.6"/>
  <path id="svg_160" fill="black" d="m496.399,728.42c0.313,0 0.618,-0.093 0.878,-0.266c0.26,-0.174 0.462,-0.421 0.582,-0.709c0.12,-0.289 0.151,-0.607 0.09,-0.913c-0.061,-0.307 -0.211,-0.588 -0.432,-0.809c-0.221,-0.221 -0.503,-0.372 -0.809,-0.433c-0.307,-0.061 -0.625,-0.029 -0.913,0.09c-0.289,0.12 -0.536,0.322 -0.709,0.582c-0.174,0.26 -0.267,0.566 -0.267,0.878c0,0.419 0.167,0.821 0.463,1.117c0.296,0.297 0.698,0.463 1.117,0.463l0,0z" opacity="0.6"/>
  <path id="svg_161" fill="black" d="m490.56,693.28c0.313,0.004 0.621,-0.085 0.883,-0.257c0.263,-0.171 0.468,-0.416 0.591,-0.704c0.123,-0.289 0.157,-0.607 0.098,-0.915c-0.059,-0.308 -0.208,-0.591 -0.428,-0.814c-0.22,-0.223 -0.501,-0.375 -0.808,-0.438c-0.307,-0.063 -0.626,-0.033 -0.916,0.086c-0.29,0.119 -0.538,0.322 -0.712,0.582c-0.175,0.26 -0.268,0.567 -0.268,0.88c0,0.416 0.164,0.814 0.456,1.11c0.292,0.296 0.688,0.465 1.104,0.47l0,0z" opacity="0.6"/>
  <path id="svg_162" fill="black" d="m428.64,640.36c0.312,0 0.618,-0.093 0.877,-0.266c0.26,-0.174 0.463,-0.421 0.582,-0.709c0.12,-0.289 0.151,-0.607 0.09,-0.913c-0.061,-0.307 -0.211,-0.588 -0.432,-0.809c-0.221,-0.221 -0.503,-0.372 -0.809,-0.433c-0.307,-0.061 -0.624,-0.029 -0.913,0.09c-0.289,0.12 -0.536,0.322 -0.709,0.582c-0.174,0.26 -0.266,0.566 -0.266,0.878c-0.002,0.208 0.038,0.414 0.117,0.606c0.079,0.193 0.195,0.367 0.342,0.514c0.147,0.147 0.322,0.264 0.514,0.343c0.193,0.078 0.399,0.118 0.607,0.117l0,0z" opacity="0.6"/>
  <path id="svg_163" fill="black" d="m420,680.56c0.312,0 0.618,-0.093 0.878,-0.266c0.26,-0.174 0.462,-0.421 0.582,-0.709c0.119,-0.289 0.151,-0.607 0.09,-0.913c-0.061,-0.307 -0.212,-0.588 -0.433,-0.809c-0.221,-0.221 -0.502,-0.372 -0.809,-0.433c-0.306,-0.061 -0.624,-0.029 -0.913,0.09c-0.288,0.12 -0.535,0.322 -0.709,0.582c-0.173,0.26 -0.266,0.566 -0.266,0.878c0,0.419 0.166,0.821 0.463,1.117c0.296,0.297 0.698,0.463 1.117,0.463l0,0z" opacity="0.6"/>
  <path id="svg_164" fill="white" d="m371.83,656.94c-0.258,0.006 -0.509,-0.079 -0.71,-0.24c-0.238,-0.212 -0.384,-0.508 -0.406,-0.825c-0.022,-0.318 0.08,-0.632 0.286,-0.875l2.45,-3c0.093,-0.135 0.213,-0.249 0.352,-0.335c0.14,-0.086 0.295,-0.142 0.458,-0.164c0.162,-0.023 0.327,-0.011 0.484,0.034c0.158,0.045 0.304,0.122 0.431,0.226c0.126,0.105 0.229,0.234 0.302,0.381c0.073,0.146 0.115,0.306 0.123,0.47c0.008,0.163 -0.018,0.327 -0.076,0.48c-0.059,0.153 -0.149,0.292 -0.264,0.408l-2.44,3c-0.271,0.253 -0.62,0.408 -0.99,0.44l0,0z"/>
  <path id="svg_165" fill="black" d="m388,636.56c0.312,0 0.618,-0.093 0.878,-0.266c0.26,-0.174 0.462,-0.421 0.582,-0.709c0.119,-0.289 0.151,-0.607 0.09,-0.913c-0.061,-0.307 -0.212,-0.588 -0.433,-0.809c-0.221,-0.221 -0.502,-0.372 -0.809,-0.433c-0.306,-0.061 -0.624,-0.029 -0.913,0.09c-0.288,0.12 -0.535,0.322 -0.709,0.582c-0.173,0.26 -0.266,0.566 -0.266,0.878c0,0.419 0.166,0.821 0.463,1.117c0.296,0.297 0.698,0.463 1.117,0.463l0,0z" opacity="0.6"/>
  <path id="svg_166" fill="black" d="m388,664.56c0.312,0 0.618,-0.093 0.878,-0.266c0.26,-0.174 0.462,-0.421 0.582,-0.709c0.119,-0.289 0.151,-0.607 0.09,-0.913c-0.061,-0.307 -0.212,-0.588 -0.433,-0.809c-0.221,-0.221 -0.502,-0.372 -0.809,-0.433c-0.306,-0.061 -0.624,-0.029 -0.913,0.09c-0.288,0.12 -0.535,0.322 -0.709,0.582c-0.173,0.26 -0.266,0.566 -0.266,0.878c0,0.419 0.166,0.821 0.463,1.117c0.296,0.297 0.698,0.463 1.117,0.463l0,0z" opacity="0.6"/>
  <path id="svg_167" fill="black" d="m421.54,722.66c0.312,0 0.618,-0.093 0.878,-0.266c0.26,-0.174 0.462,-0.421 0.582,-0.709c0.119,-0.289 0.151,-0.607 0.09,-0.913c-0.061,-0.307 -0.212,-0.588 -0.433,-0.809c-0.221,-0.221 -0.502,-0.372 -0.809,-0.433c-0.306,-0.061 -0.624,-0.029 -0.913,0.09c-0.288,0.12 -0.535,0.322 -0.709,0.582c-0.173,0.26 -0.266,0.566 -0.266,0.878c0,0.419 0.166,0.821 0.463,1.117c0.296,0.297 0.698,0.463 1.117,0.463l0,0z" opacity="0.6"/>
  <path id="svg_168" fill="black" d="m499.8,663l7.5,74l6.56,6.48l6,-4l-13.11,-71.08c-1.34,-5.77 -6.95,-6.24 -6.95,-5.4z" opacity="0.2"/>
  <path id="svg_169" fill="black" d="m418.379,620.15c0,0 -0.79,3.23 1.73,4.81c2.85,1.66 13.82,9 29.3,4.35c3.421,-1.055 6.65,-2.655 9.56,-4.74c0.537,-0.375 0.991,-0.857 1.334,-1.414c0.344,-0.557 0.571,-1.178 0.666,-1.826l0,-1.5l4.35,1c-0.033,2.292 -0.971,4.477 -2.61,6.08c-1.26,1.26 -20,15.71 -43.83,2.37c-1.542,-0.683 -2.826,-1.842 -3.664,-3.306c-0.839,-1.464 -1.187,-3.158 -0.996,-4.834l4.16,-0.99z" opacity="0.6"/>
  <path id="svg_170" fill="#FC9D9D" d="m478.24,734.9l11.21,1.5l23.93,-2.14c2.079,0.049 4.06,0.898 5.53,2.37l14.77,13.19c0.457,0.405 0.739,0.973 0.787,1.582c0.048,0.609 -0.143,1.213 -0.532,1.685c-0.388,0.472 -0.945,0.774 -1.552,0.844c-0.607,0.069 -1.218,-0.099 -1.703,-0.471l-14,-10.27l9.08,10.74c0.24,0.28 0.41,0.614 0.493,0.973c0.083,0.36 0.078,0.734 -0.016,1.091c-0.093,0.357 -0.272,0.686 -0.521,0.959c-0.248,0.273 -0.559,0.481 -0.906,0.607c-0.399,0.145 -0.83,0.178 -1.246,0.095c-0.416,-0.083 -0.801,-0.278 -1.114,-0.565l-12.15,-11.93l9.24,9.09c0.253,0.246 0.441,0.551 0.545,0.888c0.105,0.338 0.122,0.696 0.051,1.042c-0.07,0.346 -0.227,0.668 -0.456,0.937c-0.228,0.27 -0.52,0.477 -0.85,0.603c-0.333,0.143 -0.698,0.196 -1.057,0.154c-0.36,-0.042 -0.702,-0.178 -0.993,-0.394l-12.95,-9.48l8.76,6.47c0.239,0.17 0.434,0.395 0.569,0.656c0.135,0.261 0.205,0.55 0.205,0.844c0,0.294 -0.07,0.583 -0.205,0.844c-0.135,0.261 -0.33,0.486 -0.569,0.656c-0.256,0.191 -0.557,0.314 -0.874,0.356c-0.317,0.042 -0.639,0.002 -0.936,-0.116l-11.78,-4.89c-0.564,-0.24 -1.172,-0.356 -1.784,-0.343c-0.612,0.014 -1.214,0.158 -1.766,0.423l-4.45,2.21c-3.654,1.818 -7.679,2.766 -11.76,2.77l-7.35,0c-10.55,0 6.35,-22.98 6.35,-22.98z"/>
  <path id="svg_171" fill="black" d="m408.58,726l-3.95,-0.31c-0.266,-0.025 -0.522,-0.114 -0.746,-0.26c-0.225,-0.145 -0.41,-0.343 -0.542,-0.576c-0.132,-0.232 -0.205,-0.493 -0.214,-0.76c-0.009,-0.268 0.046,-0.533 0.162,-0.774l4.19,-8.45l1.1,11.13z" opacity="0.15"/>
  <path id="svg_172" fill="black" d="m512.59,754.88c-0.042,0.006 -0.085,0.001 -0.125,-0.013c-0.04,-0.013 -0.076,-0.037 -0.105,-0.067l-8.06,-5.92c-0.085,-0.064 -0.141,-0.158 -0.156,-0.263c-0.015,-0.105 0.012,-0.212 0.076,-0.297c0.063,-0.085 0.158,-0.141 0.263,-0.156c0.105,-0.015 0.212,0.012 0.297,0.076l8.05,5.93c0.043,0.03 0.079,0.068 0.106,0.112c0.028,0.045 0.046,0.094 0.053,0.146c0.008,0.051 0.005,0.104 -0.009,0.154c-0.014,0.05 -0.038,0.097 -0.07,0.138c-0.089,0.084 -0.2,0.14 -0.32,0.16l0,0z" opacity="0.15"/>
  <path id="svg_173" fill="black" d="m519.46,754.64c-0.07,0 -0.23,0 -0.23,-0.08l-8.69,-8.56c-0.064,-0.074 -0.098,-0.171 -0.094,-0.269c0.003,-0.098 0.044,-0.191 0.114,-0.261c0.069,-0.07 0.162,-0.11 0.261,-0.114c0.098,-0.004 0.194,0.03 0.269,0.094l8.69,8.53c0.037,0.036 0.067,0.078 0.087,0.125c0.02,0.048 0.03,0.099 0.03,0.15c0,0.052 -0.01,0.102 -0.03,0.15c-0.02,0.047 -0.05,0.09 -0.087,0.125c-0.09,0.074 -0.204,0.113 -0.32,0.11l0,0z" opacity="0.15"/>
  <path id="svg_174" fill="black" d="m501.62,751.4c2.68,1.35 7.18,3.64 8.76,4.5c2.21,1.27 2.85,-0.39 2.85,-0.39c0.089,0.367 0.068,0.752 -0.06,1.108c-0.128,0.356 -0.357,0.666 -0.66,0.892c-0.256,0.191 -0.557,0.314 -0.874,0.356c-0.317,0.042 -0.639,0.002 -0.936,-0.116l-11.77,-4.9c-0.564,-0.24 -1.172,-0.356 -1.784,-0.343c-0.612,0.014 -1.214,0.158 -1.766,0.423l2.29,-1.34c0.597,-0.34 1.266,-0.534 1.952,-0.567c0.686,-0.033 1.371,0.096 1.998,0.377l0,0z" opacity="0.15"/>
  <path id="svg_175" fill="rgb(77, 97, 252)" class="change-color-in-svg" d="m476.419,735.84l-67.84,-10l-4.42,-43l-42.33,2.13l8.61,55.03c0.781,4.992 3.319,9.541 7.156,12.828c3.837,3.287 8.722,5.096 13.774,5.102l77.16,0l7.89,-22.09z"/>
  <path id="svg_176" fill="rgb(77, 97, 252)" class="change-color-in-svg" d="m485.659,735.84l-77.08,-9.84l-4.42,-43l-42.33,2.13l8.61,54.87c0.766,5.005 3.297,9.57 7.136,12.871c3.838,3.301 8.731,5.12 13.794,5.129l86.63,0l7.66,-22.16z"/>
  <path id="svg_177" fill="black" d="m478,734.9l7.66,0.94l-7.58,22l-9.48,0l9.4,-22.94z" opacity="0.6"/>
  <g id="svg_178" opacity="0.2">
   <path id="svg_179" fill="black" d="m478.79,734.34c-0.021,0.132 -0.088,0.252 -0.188,0.34c-0.101,0.087 -0.229,0.137 -0.362,0.14l-0.08,0l-69.66,-10.11l-0.15,-1.26l70,10.18c0.148,0.042 0.276,0.139 0.357,0.27c0.082,0.131 0.111,0.288 0.083,0.44l0,0z" opacity="0.2"/>
  </g>
  <path id="svg_180" fill="white" d="m391.11,717c-0.302,-0.002 -0.592,-0.117 -0.812,-0.322c-0.221,-0.206 -0.356,-0.487 -0.378,-0.788l-0.39,-3.87c-0.022,-0.161 -0.009,-0.326 0.036,-0.482c0.045,-0.157 0.121,-0.303 0.225,-0.428c0.104,-0.126 0.232,-0.229 0.377,-0.303c0.145,-0.075 0.304,-0.118 0.466,-0.128c0.163,-0.011 0.326,0.012 0.479,0.068c0.154,0.055 0.294,0.141 0.412,0.253c0.119,0.112 0.213,0.246 0.278,0.396c0.064,0.15 0.097,0.311 0.097,0.474l0.39,3.87c0.021,0.157 0.008,0.317 -0.037,0.469c-0.045,0.151 -0.123,0.292 -0.227,0.411c-0.104,0.119 -0.233,0.215 -0.377,0.281c-0.144,0.065 -0.301,0.099 -0.459,0.099l-0.08,0z"/>
  <path id="svg_181" fill="white" d="m407.79,745c-0.11,0.01 -0.22,-0.018 -0.31,-0.08l-3.87,-1.19c-0.291,-0.105 -0.53,-0.317 -0.668,-0.594c-0.137,-0.276 -0.163,-0.595 -0.072,-0.89c0.092,-0.295 0.293,-0.544 0.563,-0.694c0.27,-0.15 0.588,-0.19 0.887,-0.112l3.87,1.19c0.301,0.097 0.553,0.308 0.701,0.589c0.148,0.28 0.18,0.607 0.089,0.911c-0.072,0.258 -0.229,0.484 -0.445,0.641c-0.215,0.158 -0.478,0.239 -0.745,0.229l0,0z"/>
  <path id="svg_182" fill="white" d="m441.52,746.19c-0.258,0.008 -0.51,-0.077 -0.71,-0.24c-0.235,-0.203 -0.382,-0.489 -0.412,-0.798c-0.03,-0.309 0.06,-0.618 0.252,-0.862l2.45,-3c0.207,-0.21 0.486,-0.334 0.78,-0.348c0.295,-0.015 0.584,0.082 0.811,0.27c0.227,0.188 0.376,0.454 0.416,0.746c0.041,0.293 -0.03,0.589 -0.197,0.832l-2.45,3c-0.264,0.229 -0.593,0.369 -0.94,0.4l0,0z"/>
  <path id="svg_183" fill="black" d="m425.8,737.42c0.312,0 0.618,-0.093 0.878,-0.266c0.259,-0.174 0.462,-0.421 0.581,-0.709c0.12,-0.289 0.151,-0.607 0.09,-0.913c-0.061,-0.307 -0.211,-0.588 -0.432,-0.809c-0.221,-0.221 -0.503,-0.372 -0.809,-0.433c-0.307,-0.061 -0.624,-0.029 -0.913,0.09c-0.289,0.12 -0.535,0.322 -0.709,0.582c-0.174,0.26 -0.266,0.566 -0.266,0.878c0,0.419 0.166,0.821 0.462,1.117c0.297,0.297 0.699,0.463 1.118,0.463l0,0z" opacity="0.6"/>
  <path id="svg_184" fill="black" d="m402.8,718.42c0.312,0 0.618,-0.093 0.878,-0.266c0.259,-0.174 0.462,-0.421 0.581,-0.709c0.12,-0.289 0.151,-0.607 0.09,-0.913c-0.061,-0.307 -0.211,-0.588 -0.432,-0.809c-0.221,-0.221 -0.503,-0.372 -0.809,-0.433c-0.307,-0.061 -0.624,-0.029 -0.913,0.09c-0.289,0.12 -0.535,0.322 -0.709,0.582c-0.174,0.26 -0.266,0.566 -0.266,0.878c0,0.419 0.166,0.821 0.462,1.117c0.297,0.297 0.699,0.463 1.118,0.463l0,0z" opacity="0.6"/>
  <path id="svg_185" fill="black" d="m378.8,732.42c0.312,0 0.618,-0.093 0.878,-0.266c0.259,-0.174 0.462,-0.421 0.581,-0.709c0.12,-0.289 0.151,-0.607 0.09,-0.913c-0.061,-0.307 -0.211,-0.588 -0.432,-0.809c-0.221,-0.221 -0.503,-0.372 -0.809,-0.433c-0.307,-0.061 -0.624,-0.029 -0.913,0.09c-0.289,0.12 -0.535,0.322 -0.709,0.582c-0.174,0.26 -0.266,0.566 -0.266,0.878c0,0.419 0.166,0.821 0.462,1.117c0.297,0.297 0.699,0.463 1.118,0.463z" opacity="0.6"/>
  <path id="svg_186" fill="black" d="m454.47,754.8c0.312,0 0.618,-0.093 0.877,-0.266c0.26,-0.174 0.463,-0.421 0.582,-0.709c0.12,-0.289 0.151,-0.607 0.09,-0.913c-0.061,-0.307 -0.211,-0.588 -0.432,-0.809c-0.221,-0.221 -0.503,-0.372 -0.809,-0.433c-0.307,-0.061 -0.624,-0.029 -0.913,0.09c-0.289,0.12 -0.535,0.322 -0.709,0.582c-0.174,0.26 -0.266,0.566 -0.266,0.878c0,0.207 0.041,0.413 0.12,0.605c0.079,0.191 0.196,0.366 0.342,0.512c0.147,0.147 0.321,0.263 0.513,0.343c0.192,0.079 0.397,0.12 0.605,0.12l0,0z" opacity="0.6"/>
  <path id="svg_187" fill="black" d="m479.35,753.93l-1.27,3.87l-86.63,0c-5.056,0.006 -9.947,-1.799 -13.787,-5.088c-3.839,-3.289 -6.373,-7.845 -7.143,-12.842l-12.4,-79.37c-1.028,-6.85 0.552,-13.836 4.428,-19.576c3.875,-5.741 9.764,-9.817 16.502,-11.424l7.34,-1.74c-5.534,2.455 -10.108,6.66 -13.019,11.968c-2.911,5.308 -3.997,11.426 -3.091,17.412l11.45,73.13c0.783,4.99 3.322,9.536 7.159,12.821c3.837,3.285 8.72,5.093 13.771,5.099l76.69,5.74z" opacity="0.15"/>
  <path id="svg_188" fill="black" d="m486.999,754c-0.435,-0.012 -0.864,-0.113 -1.259,-0.297c-0.395,-0.184 -0.748,-0.448 -1.036,-0.774c-0.289,-0.327 -0.508,-0.709 -0.643,-1.123c-0.135,-0.414 -0.183,-0.852 -0.142,-1.286l1.73,-14.69l-7.66,22l1.11,0c4.086,0.004 8.115,-0.945 11.77,-2.77l5.37,-2.52c-1.24,0.21 -4.57,1.46 -9.24,1.46z" opacity="0.15"/>
  <path id="svg_189" fill="#FC9D9D" d="m464.5,573.16c0,0 -36.17,-26.54 -39.73,2.37l-1,7.58l-5.37,37l0,0.08l-0.08,0.78c-0.078,0.516 -0.048,1.043 0.088,1.548c0.136,0.504 0.375,0.975 0.702,1.382l0,0.1l0.08,0.08c0.254,0.346 0.573,0.638 0.94,0.86c2.254,1.477 4.665,2.698 7.19,3.64c5.39,2.055 11.217,2.698 16.926,1.869c5.709,-0.83 11.111,-3.105 15.694,-6.609c0.723,-0.888 1.08,-2.018 1,-3.16l-0.63,-19.27c0.653,-2.16 1.078,-4.382 1.27,-6.63c1.18,-11.36 2.92,-21.62 2.92,-21.62z"/>
  <path id="svg_190" fill="black" d="m376,701.56c0.312,0 0.618,-0.093 0.878,-0.266c0.26,-0.174 0.462,-0.421 0.582,-0.709c0.119,-0.289 0.151,-0.607 0.09,-0.913c-0.061,-0.307 -0.212,-0.588 -0.433,-0.809c-0.221,-0.221 -0.502,-0.372 -0.809,-0.433c-0.306,-0.061 -0.624,-0.029 -0.913,0.09c-0.288,0.12 -0.535,0.322 -0.709,0.582c-0.173,0.26 -0.266,0.566 -0.266,0.878c0,0.419 0.166,0.821 0.463,1.117c0.296,0.297 0.698,0.463 1.117,0.463l0,0z" opacity="0.6"/>
  <path id="svg_191" fill="#21252B" d="m468.599,575.21c2.549,0.002 5.04,-0.752 7.16,-2.166c2.12,-1.415 3.772,-3.426 4.748,-5.78c0.976,-2.354 1.232,-4.945 0.735,-7.444c-0.496,-2.5 -1.723,-4.796 -3.525,-6.597c-1.802,-1.802 -4.098,-3.029 -6.597,-3.526c-2.5,-0.497 -5.09,-0.241 -7.444,0.735c-2.354,0.977 -4.365,2.629 -5.78,4.749c-1.415,2.119 -2.168,4.611 -2.167,7.159c0.003,3.413 1.36,6.685 3.773,9.098c2.413,2.413 5.685,3.769 9.097,3.772l0,0z"/>
  <path id="svg_192" fill="white" d="m388.44,686.89c-0.11,0.01 -0.219,-0.018 -0.31,-0.08l-3.87,-1.18c-0.291,-0.105 -0.53,-0.317 -0.667,-0.594c-0.138,-0.276 -0.164,-0.595 -0.072,-0.89c0.091,-0.295 0.293,-0.544 0.563,-0.694c0.27,-0.15 0.587,-0.19 0.886,-0.112l3.87,1.18c0.3,0.099 0.551,0.311 0.698,0.59c0.147,0.28 0.18,0.606 0.092,0.91c-0.091,0.246 -0.252,0.46 -0.464,0.615c-0.211,0.155 -0.464,0.244 -0.726,0.255l0,0z"/>
  <path id="svg_193" fill="#FC9D9D" d="m470.259,553c0,0 9.32,57.41 -20,59.07c-25.35,1.5 -25.19,-37.75 -25.19,-37.75l3.08,-25.27l42.11,3.95z"/>
  <path id="svg_194" fill="#21252B" d="m468.37,556.41l-25.75,0c-0.768,-0.001 -1.529,0.149 -2.239,0.443c-0.71,0.293 -1.355,0.724 -1.897,1.268c-0.543,0.544 -0.973,1.189 -1.265,1.899c-0.293,0.711 -0.442,1.472 -0.439,2.24c0.001,0.768 -0.149,1.529 -0.443,2.239c-0.294,0.709 -0.725,1.354 -1.268,1.897c-0.544,0.543 -1.19,0.973 -1.9,1.265c-0.71,0.292 -1.471,0.442 -2.239,0.439c-0.419,0 -0.821,0.166 -1.118,0.463c-0.296,0.296 -0.462,0.698 -0.462,1.117l0,5.69c0.001,0.176 -0.033,0.351 -0.1,0.514c-0.066,0.163 -0.165,0.312 -0.29,0.436c-0.125,0.125 -0.273,0.224 -0.436,0.291c-0.163,0.067 -0.338,0.1 -0.514,0.099c-0.309,0 -0.608,-0.113 -0.84,-0.317c-0.232,-0.204 -0.381,-0.486 -0.42,-0.793l-0.79,-5.44l-1,-1.9l-6.32,3.32c0,0 -8.68,-15.8 -3,-29.15c3.24,-7.66 11.22,-9.79 14.85,-10c0.589,-0.049 1.161,-0.222 1.678,-0.508c0.517,-0.286 0.967,-0.679 1.322,-1.152c1.66,-2.45 5.61,-6.56 13.66,-5.61c2.278,0.172 4.475,0.923 6.382,2.181c1.908,1.258 3.463,2.982 4.518,5.009c0.473,0.81 1.21,1.432 2.088,1.761c0.878,0.33 1.843,0.347 2.732,0.049c1.776,-0.674 3.695,-0.882 5.575,-0.605c1.88,0.276 3.657,1.028 5.165,2.185c8.18,5.67 3.76,19.96 -5.24,20.67z"/>
  <path id="svg_195" fill="black" d="m423.43,585c0,0 2.37,0.4 3.71,-0.55l-4.5,6l0.79,-5.45z" opacity="0.15"/>
  <path id="svg_196" fill="#FC9D9D" d="m468.449,557.6l-3,0.08c-0.083,0.015 -0.168,0.012 -0.25,-0.008c-0.082,-0.02 -0.159,-0.058 -0.225,-0.11c-0.067,-0.052 -0.121,-0.117 -0.161,-0.191c-0.039,-0.075 -0.063,-0.157 -0.068,-0.241c-0.006,-0.084 0.006,-0.169 0.035,-0.248c0.029,-0.079 0.075,-0.151 0.134,-0.212c0.059,-0.06 0.13,-0.107 0.208,-0.138c0.079,-0.031 0.163,-0.046 0.247,-0.042l3,-0.08c0.372,-0.005 0.741,-0.055 1.1,-0.15c1.243,-0.322 2.44,-0.802 3.56,-1.43c0.067,-0.039 0.141,-0.065 0.218,-0.074c0.077,-0.009 0.156,-0.002 0.23,0.02c0.074,0.023 0.143,0.061 0.202,0.111c0.059,0.051 0.107,0.113 0.14,0.183c0.041,0.066 0.068,0.141 0.078,0.218c0.01,0.078 0.003,0.157 -0.019,0.231c-0.023,0.075 -0.061,0.144 -0.113,0.203c-0.051,0.059 -0.115,0.106 -0.186,0.138c-1.207,0.692 -2.512,1.197 -3.87,1.5c-0.398,0.17 -0.827,0.252 -1.26,0.24l0,0z"/>
  <path id="svg_197" fill="black" d="m460.94,617.46l-0.31,-9.16c-2.61,2.37 -9.87,5.45 -17.53,3c-3.871,-1.259 -7.245,-3.709 -9.64,-7c-0.092,-0.115 -0.222,-0.194 -0.366,-0.223c-0.145,-0.029 -0.294,-0.007 -0.424,0.063c-0.117,0.091 -0.197,0.221 -0.226,0.366c-0.029,0.144 -0.006,0.295 0.066,0.424c3.103,4.213 7.668,7.116 12.8,8.14c2.175,1.748 4.68,3.038 7.366,3.792c2.686,0.755 5.497,0.958 8.264,0.598l0,0z" opacity="0.15"/>
  <path id="svg_198" fill="black" d="m453.36,600.8l-3.55,0c-0.21,0 -0.411,-0.083 -0.559,-0.231c-0.148,-0.148 -0.231,-0.349 -0.231,-0.559c0,-0.209 0.083,-0.41 0.231,-0.559c0.148,-0.148 0.349,-0.231 0.559,-0.231l3.47,0c0.104,-0.001 0.207,0.018 0.303,0.057c0.097,0.04 0.185,0.098 0.258,0.171c0.074,0.074 0.132,0.162 0.171,0.258c0.039,0.097 0.059,0.2 0.058,0.304c-0.033,0.185 -0.116,0.357 -0.242,0.497c-0.125,0.14 -0.288,0.241 -0.468,0.293l0,0z" opacity="0.3"/>
  <path id="svg_199" fill="black" d="m454.779,597.56c-6.39,0.47 -9,-3.16 -9.87,-5c-0.077,-0.168 -0.087,-0.359 -0.028,-0.534c0.06,-0.175 0.184,-0.32 0.348,-0.406c0.169,-0.076 0.36,-0.087 0.535,-0.03c0.176,0.058 0.324,0.179 0.415,0.34c0.86,1.74 3.71,5.61 11.53,3.64c0.093,-0.022 0.189,-0.025 0.283,-0.009c0.094,0.016 0.184,0.05 0.264,0.102c0.08,0.051 0.149,0.118 0.203,0.197c0.054,0.078 0.091,0.167 0.11,0.26c0.042,0.188 0.008,0.385 -0.095,0.548c-0.103,0.163 -0.267,0.279 -0.455,0.322c-1.059,0.296 -2.144,0.487 -3.24,0.57l0,0z" opacity="0.3"/>
  <path id="svg_200" fill="#21252B" d="m447.439,581.76c0.453,0 0.896,-0.134 1.273,-0.386c0.376,-0.251 0.67,-0.609 0.843,-1.028c0.173,-0.418 0.219,-0.878 0.13,-1.323c-0.088,-0.444 -0.306,-0.852 -0.626,-1.172c-0.321,-0.32 -0.729,-0.539 -1.173,-0.627c-0.444,-0.088 -0.904,-0.043 -1.323,0.13c-0.418,0.174 -0.776,0.467 -1.028,0.844c-0.251,0.376 -0.386,0.819 -0.386,1.272c0,0.301 0.06,0.599 0.175,0.876c0.115,0.278 0.284,0.531 0.496,0.743c0.213,0.213 0.465,0.382 0.743,0.497c0.278,0.115 0.576,0.174 0.876,0.174l0,0z"/>
  <path id="svg_201" fill="white" d="m448.55,580.5c0.063,-0.003 0.124,-0.018 0.181,-0.044c0.056,-0.027 0.107,-0.065 0.149,-0.111c0.042,-0.047 0.074,-0.101 0.095,-0.16c0.02,-0.06 0.029,-0.122 0.025,-0.185c0.01,-0.068 0.005,-0.138 -0.014,-0.204c-0.02,-0.066 -0.053,-0.127 -0.098,-0.179c-0.045,-0.052 -0.101,-0.094 -0.163,-0.123c-0.063,-0.028 -0.131,-0.043 -0.2,-0.043c-0.069,0 -0.137,0.015 -0.2,0.043c-0.062,0.029 -0.118,0.071 -0.163,0.123c-0.045,0.052 -0.078,0.113 -0.098,0.179c-0.019,0.066 -0.024,0.136 -0.014,0.204c-0.004,0.067 0.005,0.134 0.029,0.196c0.024,0.063 0.06,0.12 0.108,0.167c0.047,0.048 0.104,0.084 0.166,0.108c0.063,0.024 0.13,0.033 0.197,0.029l0,0z"/>
  <path id="svg_202" fill="#21252B" d="m465.76,583.19c0.453,0 0.895,-0.134 1.272,-0.386c0.377,-0.252 0.67,-0.609 0.843,-1.028c0.174,-0.418 0.219,-0.879 0.131,-1.323c-0.089,-0.444 -0.307,-0.852 -0.627,-1.172c-0.32,-0.321 -0.728,-0.539 -1.173,-0.627c-0.444,-0.088 -0.904,-0.043 -1.323,0.13c-0.418,0.174 -0.776,0.467 -1.027,0.844c-0.252,0.376 -0.386,0.819 -0.386,1.272c0,0.607 0.241,1.19 0.67,1.619c0.43,0.43 1.012,0.671 1.62,0.671z"/>
  <path id="svg_203" fill="white" d="m466.869,581.84c0.125,0 0.245,-0.05 0.333,-0.138c0.088,-0.088 0.137,-0.207 0.137,-0.332c0,-0.125 -0.049,-0.244 -0.137,-0.332c-0.088,-0.088 -0.208,-0.138 -0.333,-0.138c-0.124,0 -0.244,0.05 -0.332,0.138c-0.088,0.088 -0.138,0.207 -0.138,0.332c0,0.125 0.05,0.244 0.138,0.332c0.088,0.088 0.208,0.138 0.332,0.138z"/>
  <path id="svg_204" fill="black" d="m456.92,592l-3.16,0c-0.188,0 -0.369,-0.075 -0.502,-0.208c-0.133,-0.133 -0.208,-0.314 -0.208,-0.502c0,-0.188 0.075,-0.369 0.208,-0.502c0.133,-0.133 0.314,-0.208 0.502,-0.208l3.16,0c0.376,0 0.738,-0.15 1.004,-0.416c0.266,-0.266 0.416,-0.627 0.416,-1.004c0,-0.377 -0.15,-0.738 -0.416,-1.004c-0.266,-0.266 -0.628,-0.416 -1.004,-0.416c-0.093,0 -0.186,-0.018 -0.272,-0.054c-0.086,-0.036 -0.164,-0.088 -0.23,-0.154c-0.066,-0.066 -0.118,-0.144 -0.154,-0.23c-0.036,-0.086 -0.054,-0.179 -0.054,-0.272c0,-0.093 0.018,-0.185 0.054,-0.272c0.036,-0.086 0.088,-0.164 0.154,-0.23c0.066,-0.066 0.144,-0.118 0.23,-0.154c0.086,-0.036 0.179,-0.054 0.272,-0.054c0.753,0 1.475,0.299 2.008,0.832c0.533,0.532 0.832,1.255 0.832,2.008c0,0.753 -0.299,1.476 -0.832,2.008c-0.533,0.533 -1.255,0.832 -2.008,0.832l0,0z" opacity="0.3"/>
  <path id="svg_205" fill="#21252B" d="m472.87,575.29l-10.11,-0.71l-1.34,-0.08l-8.85,-0.63l-0.08,0l-11.37,-0.79c-0.436,-0.035 -0.875,0.017 -1.291,0.153c-0.416,0.136 -0.801,0.354 -1.131,0.641c-0.331,0.287 -0.601,0.637 -0.795,1.029c-0.193,0.393 -0.307,0.82 -0.333,1.257l-0.16,2.6c-0.082,1.192 0.073,2.389 0.454,3.522c0.381,1.133 0.981,2.179 1.767,3.08c0.785,0.901 1.741,1.638 2.811,2.17c1.071,0.531 2.235,0.847 3.428,0.928c1.192,0.081 2.389,-0.073 3.522,-0.454c1.133,-0.381 2.179,-0.981 3.08,-1.767c0.901,-0.786 1.638,-1.741 2.169,-2.811c0.532,-1.071 0.847,-2.236 0.929,-3.428l0.16,-2.61c0.06,-0.711 -0.135,-1.42 -0.55,-2l3.55,0.23c-0.493,0.559 -0.797,1.259 -0.87,2l-0.15,2.6c-0.084,1.192 0.069,2.39 0.448,3.523c0.379,1.134 0.978,2.181 1.762,3.084c0.784,0.902 1.739,1.64 2.808,2.174c1.07,0.533 2.234,0.851 3.427,0.934c1.192,0.083 2.389,-0.069 3.523,-0.448c1.133,-0.379 2.181,-0.978 3.083,-1.762c0.902,-0.785 1.641,-1.739 2.175,-2.809c0.533,-1.069 0.85,-2.234 0.934,-3.426l0.16,-2.61c0.024,-0.887 -0.288,-1.75 -0.874,-2.417c-0.586,-0.666 -1.403,-1.085 -2.286,-1.173zm-18.56,2.13l-0.16,2.61c-0.159,2.044 -1.12,3.943 -2.673,5.281c-1.554,1.338 -3.574,2.006 -5.619,1.86c-2.045,-0.147 -3.949,-1.097 -5.296,-2.643c-1.347,-1.546 -2.027,-3.562 -1.892,-5.608l0.16,-2.6c0.013,-0.265 0.078,-0.526 0.192,-0.766c0.115,-0.239 0.276,-0.454 0.474,-0.631c0.198,-0.177 0.43,-0.312 0.681,-0.399c0.252,-0.086 0.518,-0.122 0.783,-0.104l11.38,0.79l0.07,0c0.541,0.051 1.041,0.31 1.396,0.722c0.354,0.412 0.535,0.945 0.504,1.488l0,0zm20.14,4c-0.018,1.057 -0.251,2.099 -0.686,3.063c-0.434,0.964 -1.061,1.829 -1.842,2.541c-0.781,0.713 -1.7,1.258 -2.699,1.603c-1,0.345 -2.059,0.482 -3.113,0.403c-1.054,-0.079 -2.081,-0.373 -3.018,-0.863c-0.937,-0.49 -1.763,-1.167 -2.429,-1.988c-0.666,-0.821 -1.157,-1.77 -1.443,-2.788c-0.286,-1.018 -0.361,-2.083 -0.22,-3.131l0.16,-2.6c0.013,-0.265 0.078,-0.526 0.192,-0.766c0.115,-0.239 0.276,-0.454 0.474,-0.631c0.199,-0.177 0.43,-0.312 0.681,-0.399c0.252,-0.086 0.518,-0.122 0.783,-0.104l1.34,0.08l10.11,0.71c0.265,0.013 0.525,0.078 0.765,0.193c0.24,0.114 0.455,0.275 0.632,0.473c0.177,0.199 0.312,0.43 0.399,0.681c0.086,0.252 0.121,0.518 0.104,0.783l-0.19,2.74z"/>
  <path id="svg_206" fill="#FC9D9D" d="m426,570.08c-0.191,-0.734 -0.54,-1.418 -1.024,-2.002c-0.484,-0.585 -1.09,-1.056 -1.776,-1.38c-0.686,-0.324 -1.434,-0.494 -2.193,-0.497c-0.759,-0.003 -1.509,0.16 -2.197,0.479c-6.47,2.29 -6.32,16.74 4.35,18.32c5.6,0.87 4.65,-2.45 4,-6.87l-1.16,-8.05z"/>
  <path id="svg_207" fill="black" d="m418.22,570.31c0.458,-0.309 0.976,-0.518 1.521,-0.613c0.545,-0.095 1.103,-0.073 1.639,0.063c0.505,0.183 0.968,0.466 1.362,0.832c0.393,0.366 0.709,0.807 0.928,1.298c0.593,1.247 0.864,2.622 0.79,4l0,1.26c-0.001,0.09 -0.021,0.179 -0.058,0.26c-0.037,0.082 -0.09,0.156 -0.157,0.216c-0.067,0.06 -0.145,0.105 -0.23,0.134c-0.086,0.028 -0.176,0.038 -0.265,0.03c-0.09,-0.001 -0.178,-0.02 -0.259,-0.057c-0.082,-0.038 -0.154,-0.091 -0.214,-0.158c-0.059,-0.067 -0.104,-0.146 -0.131,-0.231c-0.027,-0.085 -0.036,-0.175 -0.026,-0.264l0,-1.27c0.028,-1.137 -0.19,-2.266 -0.64,-3.31c-0.137,-0.339 -0.341,-0.647 -0.598,-0.906c-0.258,-0.259 -0.564,-0.465 -0.902,-0.604c-0.745,-0.113 -1.506,0.058 -2.13,0.48c-0.073,0.043 -0.153,0.07 -0.236,0.081c-0.084,0.011 -0.169,0.005 -0.25,-0.017c-0.081,-0.023 -0.157,-0.061 -0.223,-0.113c-0.066,-0.052 -0.121,-0.117 -0.161,-0.191c-0.045,-0.076 -0.075,-0.16 -0.087,-0.248c-0.012,-0.087 -0.007,-0.176 0.015,-0.262c0.023,-0.085 0.062,-0.166 0.115,-0.236c0.054,-0.07 0.12,-0.129 0.197,-0.174l0,0z" opacity="0.3"/>
  <path id="svg_208" fill="#21252B" d="m466.08,757.35l77.92,0c0.311,0.008 0.608,0.134 0.829,0.353c0.222,0.22 0.35,0.516 0.361,0.827l0,2c-0.011,0.312 -0.139,0.607 -0.361,0.827c-0.221,0.219 -0.518,0.346 -0.829,0.353l-77.92,0c-0.311,-0.008 -0.607,-0.134 -0.826,-0.354c-0.22,-0.22 -0.347,-0.515 -0.354,-0.826l0,-2c-0.003,-0.156 0.026,-0.31 0.084,-0.455c0.058,-0.144 0.145,-0.275 0.255,-0.385c0.11,-0.11 0.241,-0.197 0.386,-0.256c0.144,-0.058 0.299,-0.087 0.455,-0.084z"/>
  <path id="svg_209" fill="black" d="m466.08,757.35l77.92,0c0.311,0.008 0.608,0.134 0.829,0.353c0.222,0.22 0.35,0.516 0.361,0.827l0,2c-0.011,0.312 -0.139,0.607 -0.361,0.827c-0.221,0.219 -0.518,0.346 -0.829,0.353l-77.92,0c-0.311,-0.008 -0.607,-0.134 -0.826,-0.354c-0.22,-0.22 -0.347,-0.515 -0.354,-0.826l0,-2c-0.003,-0.156 0.026,-0.31 0.084,-0.455c0.058,-0.144 0.145,-0.275 0.255,-0.385c0.11,-0.11 0.241,-0.197 0.386,-0.256c0.144,-0.058 0.299,-0.087 0.455,-0.084z" opacity="0.6"/>
  <path id="svg_210" fill="#21252B" d="m518.6,757.35l135.76,0c0.31,0.008 0.606,0.134 0.826,0.354c0.22,0.22 0.346,0.515 0.354,0.826l0,2c-0.008,0.311 -0.134,0.606 -0.354,0.826c-0.22,0.22 -0.516,0.346 -0.826,0.354l-135.76,0c-0.311,-0.008 -0.606,-0.134 -0.826,-0.354c-0.22,-0.22 -0.346,-0.515 -0.354,-0.826l0,-2c0.021,-0.306 0.152,-0.594 0.369,-0.811c0.217,-0.217 0.505,-0.348 0.811,-0.369l0,0z"/>
  <g id="svg_211" opacity="0.6">
   <path id="svg_212" fill="black" d="m652.62,758.14l-138.2,0c-0.057,0.009 -0.116,0.006 -0.171,-0.01c-0.056,-0.016 -0.108,-0.043 -0.152,-0.081c-0.044,-0.037 -0.079,-0.084 -0.103,-0.136c-0.024,-0.053 -0.037,-0.11 -0.037,-0.168c0,-0.058 0.013,-0.115 0.037,-0.168c0.024,-0.052 0.059,-0.099 0.103,-0.136c0.044,-0.038 0.096,-0.065 0.152,-0.081c0.055,-0.016 0.114,-0.019 0.171,-0.01l138.2,0c0.052,-0.003 0.105,0.005 0.154,0.024c0.049,0.018 0.094,0.047 0.131,0.083c0.038,0.037 0.068,0.081 0.087,0.13c0.02,0.048 0.03,0.101 0.028,0.153c-0.007,0.104 -0.051,0.201 -0.125,0.275c-0.073,0.074 -0.171,0.118 -0.275,0.125l0,0z" opacity="0.6"/>
  </g>
  <path id="svg_213" fill="#21252B" d="m518.29,757.35l20.45,0c0.768,-0.001 1.513,-0.27 2.104,-0.761c0.592,-0.491 0.993,-1.173 1.136,-1.929l17.14,-90.11c0.09,-0.474 0.074,-0.963 -0.048,-1.431c-0.121,-0.467 -0.345,-0.902 -0.655,-1.272c-0.31,-0.37 -0.699,-0.667 -1.138,-0.869c-0.438,-0.202 -0.916,-0.304 -1.399,-0.298l-20.46,0c-0.768,0.001 -1.511,0.271 -2.101,0.762c-0.59,0.491 -0.989,1.173 -1.129,1.928l-17.14,90.11c-0.085,0.474 -0.065,0.96 0.059,1.425c0.123,0.466 0.347,0.898 0.656,1.267c0.309,0.369 0.696,0.666 1.132,0.869c0.436,0.204 0.911,0.309 1.393,0.309l0,0z"/>
  <path id="svg_214" fill="black" d="m518.29,757.35l20.45,0c0.768,-0.001 1.513,-0.27 2.104,-0.761c0.592,-0.491 0.993,-1.173 1.136,-1.929l17.14,-90.11c0.09,-0.474 0.074,-0.963 -0.048,-1.431c-0.121,-0.467 -0.345,-0.902 -0.655,-1.272c-0.31,-0.37 -0.699,-0.667 -1.138,-0.869c-0.438,-0.202 -0.916,-0.304 -1.399,-0.298l-20.46,0c-0.768,0.001 -1.511,0.271 -2.101,0.762c-0.59,0.491 -0.989,1.173 -1.129,1.928l-17.14,90.11c-0.085,0.474 -0.065,0.96 0.059,1.425c0.123,0.466 0.347,0.898 0.656,1.267c0.309,0.369 0.696,0.666 1.132,0.869c0.436,0.204 0.911,0.309 1.393,0.309l0,0z" opacity="0.6"/>
  <path id="svg_215" fill="#21252B" d="m521.209,757.35l131.33,0c0.769,-0.001 1.514,-0.27 2.105,-0.761c0.592,-0.491 0.993,-1.173 1.135,-1.929l17.14,-90.11c0.091,-0.474 0.075,-0.963 -0.047,-1.431c-0.121,-0.467 -0.345,-0.902 -0.655,-1.272c-0.31,-0.37 -0.699,-0.667 -1.138,-0.869c-0.438,-0.202 -0.917,-0.304 -1.4,-0.298l-131.26,0c-0.767,0.001 -1.51,0.271 -2.1,0.762c-0.59,0.491 -0.99,1.173 -1.13,1.928l-17.14,90.11c-0.1,0.469 -0.094,0.955 0.019,1.421c0.112,0.466 0.328,0.902 0.632,1.273c0.303,0.372 0.686,0.67 1.121,0.874c0.434,0.203 0.909,0.307 1.388,0.302l0,0z"/>
  <path id="svg_216" fill="black" d="m596.23,706.49c-0.79,1.81 0.08,3.39 1.9,3.39l0.32,0c-1.024,1.193 -2.282,2.164 -3.696,2.852c-1.414,0.688 -2.954,1.079 -4.524,1.148c-3.87,-0.08 -5.68,-3.24 -4,-7.11c1.68,-3.87 6.24,-6.87 10.11,-6.79c2.45,0.08 4.11,1.35 4.5,3.32c-0.978,0.09 -1.916,0.431 -2.724,0.99c-0.807,0.559 -1.457,1.317 -1.886,2.2l0,0z" opacity="0.6"/>
  <path id="svg_217" fill="#868A91" d="m245.18,963.3l104.51,0l5.31,-214.3l-102.45,-0.13c-1.955,0 -3.83,0.776 -5.212,2.159c-1.382,1.382 -2.158,3.256 -2.158,5.211l0,207.06z"/>
  <path id="svg_218" fill="#B2B6BB" d="m407.109,963.3l-57.42,0l0,-207.06c0,-1.955 0.777,-3.829 2.159,-5.211c1.382,-1.383 3.257,-2.159 5.211,-2.159l42.68,0c1.955,0 3.83,0.776 5.212,2.159c1.382,1.382 2.158,3.256 2.158,5.211l0,207.06z"/>
  <path id="svg_219" fill="#868A91" d="m408.57,956.5c-0.133,0 -0.26,-0.053 -0.354,-0.146c-0.094,-0.094 -0.146,-0.221 -0.146,-0.354l-1,-201c-0.008,-1.421 -0.57,-2.784 -1.568,-3.796c-0.998,-1.013 -2.351,-1.595 -3.772,-1.624l-27.68,-0.58c-0.066,-0.001 -0.131,-0.015 -0.191,-0.042c-0.06,-0.026 -0.114,-0.064 -0.16,-0.111c-0.045,-0.048 -0.081,-0.104 -0.105,-0.165c-0.024,-0.061 -0.036,-0.126 -0.034,-0.192c0,-0.066 0.013,-0.131 0.039,-0.192c0.026,-0.061 0.064,-0.116 0.111,-0.162c0.048,-0.045 0.104,-0.081 0.166,-0.105c0.062,-0.023 0.128,-0.034 0.194,-0.031l28.62,0.6c1.412,0.036 2.755,0.62 3.746,1.627c0.99,1.007 1.551,2.36 1.564,3.773l1.05,202c0,0.133 -0.053,0.26 -0.147,0.354c-0.094,0.093 -0.221,0.146 -0.353,0.146l0.02,0z"/>
  <path id="svg_220" fill="#B2B6BB" d="m1370.42,1019l-1141.841,0c-0.398,0 -0.779,0.16 -1.061,0.44c-0.281,0.28 -0.439,0.66 -0.439,1.06c0,0.4 0.158,0.78 0.439,1.06c0.282,0.28 0.663,0.44 1.061,0.44l1141.841,0c0.4,0 0.78,-0.16 1.06,-0.44c0.28,-0.28 0.44,-0.66 0.44,-1.06c0,-0.4 -0.16,-0.78 -0.44,-1.06c-0.28,-0.28 -0.66,-0.44 -1.06,-0.44l0,0z"/>
  <path id="svg_221" fill="#B2B6BB" d="m581.309,387c0.001,-12.684 -4.678,-24.923 -13.14,-34.372c-8.462,-9.449 -20.112,-15.444 -32.72,-16.838l0,-0.34l-5.7,0c-13.672,0 -26.784,5.431 -36.451,15.099c-9.668,9.667 -15.099,22.779 -15.099,36.451c0,13.672 5.431,26.784 15.099,36.451c9.667,9.668 22.779,15.099 36.451,15.099l5.7,0l0,-0.34c12.608,-1.393 24.258,-7.389 32.72,-16.838c8.462,-9.449 13.141,-21.688 13.14,-34.372z"/>
  <path id="svg_222" fill="#868A91" d="m535.45,438.55c10.195,-0.002 20.161,-3.027 28.637,-8.693c8.476,-5.665 15.081,-13.717 18.981,-23.137c3.901,-9.419 4.92,-19.784 2.93,-29.783c-1.99,-9.999 -6.901,-19.184 -14.111,-26.392c-7.209,-7.208 -16.395,-12.117 -26.394,-14.105c-10,-1.988 -20.364,-0.967 -29.783,2.935c-9.419,3.902 -17.469,10.509 -23.133,18.986c-5.664,8.477 -8.687,18.444 -8.687,28.639c0,6.77 1.333,13.475 3.925,19.73c2.591,6.255 6.389,11.938 11.177,16.725c4.788,4.787 10.472,8.584 16.727,11.174c6.256,2.59 12.96,3.922 19.731,3.921l0,0z"/>
  <path id="svg_223" fill="white" d="m535.449,432.86c9.07,-0.002 17.936,-2.693 25.476,-7.734c7.54,-5.04 13.417,-12.203 16.886,-20.583c3.47,-8.38 4.376,-17.601 2.606,-26.496c-1.771,-8.895 -6.139,-17.066 -12.554,-23.478c-6.414,-6.413 -14.585,-10.78 -23.481,-12.549c-8.895,-1.768 -18.116,-0.859 -26.495,2.612c-8.379,3.471 -15.541,9.349 -20.58,16.891c-5.038,7.541 -7.728,16.407 -7.728,25.477c0,6.023 1.187,11.988 3.492,17.552c2.305,5.565 5.684,10.621 9.944,14.88c4.259,4.258 9.316,7.636 14.881,9.94c5.565,2.304 11.53,3.489 17.553,3.488l0,0z"/>
  <path id="svg_224" fill="#868A91" d="m535.449,432.86c9.07,-0.002 17.936,-2.693 25.476,-7.734c7.54,-5.04 13.417,-12.203 16.886,-20.583c3.47,-8.38 4.376,-17.601 2.606,-26.496c-1.771,-8.895 -6.139,-17.066 -12.554,-23.478c-6.414,-6.413 -14.585,-10.78 -23.481,-12.549c-8.895,-1.768 -18.116,-0.859 -26.495,2.612c-8.379,3.471 -15.541,9.349 -20.58,16.891c-5.038,7.541 -7.728,16.407 -7.728,25.477c0,6.023 1.187,11.988 3.492,17.552c2.305,5.565 5.684,10.621 9.944,14.88c4.259,4.258 9.316,7.636 14.881,9.94c5.565,2.304 11.53,3.489 17.553,3.488l0,0z"/>
  <path id="svg_225" fill="white" d="m535.449,432.86c9.07,-0.002 17.936,-2.693 25.476,-7.734c7.54,-5.04 13.417,-12.203 16.886,-20.583c3.47,-8.38 4.376,-17.601 2.606,-26.496c-1.771,-8.895 -6.139,-17.066 -12.554,-23.478c-6.414,-6.413 -14.585,-10.78 -23.481,-12.549c-8.895,-1.768 -18.116,-0.859 -26.495,2.612c-8.379,3.471 -15.541,9.349 -20.58,16.891c-5.038,7.541 -7.728,16.407 -7.728,25.477c0,6.023 1.187,11.988 3.492,17.552c2.305,5.565 5.684,10.621 9.944,14.88c4.259,4.258 9.316,7.636 14.881,9.94c5.565,2.304 11.53,3.489 17.553,3.488l0,0z" opacity="0.9"/>
  <path id="svg_226" fill="#B2B6BB" d="m535.449,341.14c-0.838,-0.016 -1.676,0.021 -2.51,0.11c11.696,0.647 22.7,5.75 30.751,14.258c8.051,8.509 12.538,19.778 12.538,31.492c0,11.714 -4.487,22.983 -12.538,31.492c-8.051,8.509 -19.055,13.611 -30.751,14.258c0.8,0 1.59,0.11 2.51,0.11c12.163,0 23.828,-4.832 32.428,-13.432c8.601,-8.6 13.432,-20.265 13.432,-32.428c0,-12.163 -4.831,-23.827 -13.432,-32.428c-8.6,-8.6 -20.265,-13.432 -32.428,-13.432z"/>
  <path id="svg_227" fill="rgb(77, 97, 252)" class="change-color-in-svg" d="m535.899,390.53l-15.25,-30.27c-0.259,-0.555 -0.293,-1.189 -0.095,-1.768c0.198,-0.58 0.613,-1.06 1.157,-1.341c0.544,-0.281 1.176,-0.339 1.763,-0.164c0.587,0.175 1.083,0.57 1.385,1.103l13.14,26.06l17.41,-8.53c0.288,-0.166 0.607,-0.27 0.937,-0.306c0.33,-0.036 0.664,-0.003 0.98,0.097c0.317,0.1 0.609,0.265 0.858,0.485c0.249,0.219 0.45,0.488 0.59,0.789c0.139,0.302 0.214,0.629 0.22,0.961c0.007,0.332 -0.057,0.661 -0.185,0.968c-0.128,0.306 -0.319,0.582 -0.56,0.81c-0.241,0.229 -0.527,0.404 -0.84,0.516l-21.51,10.59z"/>
  <path id="svg_228" fill="white" d="m574.709,410.56c4.206,-6.955 6.487,-14.904 6.609,-23.032c0.122,-8.127 -1.919,-16.141 -5.914,-23.219c-3.995,-7.079 -9.801,-12.968 -16.822,-17.064c-7.021,-4.096 -15.004,-6.251 -23.133,-6.245c-1.26,0 -2.51,0.12 -3.76,0.12l43.02,69.44z" opacity="0.5"/>
  <path id="svg_229" fill="white" d="m524.75,342.39c-2.205,0.545 -4.373,1.23 -6.49,2.05l47.46,76.93c1.851,-1.639 3.563,-3.429 5.12,-5.35l-46.09,-73.63z" opacity="0.5"/>
  <path id="svg_230" fill="#DADDDF" d="m1023.8,946.5l-175.5,0l0,71.5l175.5,0l0,-71.5z"/>
  <path id="svg_231" fill="black" d="m1023.8,946.5l-111.8,0l0,71.5l111.8,0l0,-71.5z" opacity="0.1"/>
  <path id="svg_232" fill="#DADDDF" d="m1032.9,940l-193.701,0l0,16.9l193.701,0l0,-16.9z"/>
  <path id="svg_233" fill="black" d="m1032.9,940l-120.9,0l0,16.9l120.9,0l0,-16.9z" opacity="0.1"/>
  <path id="svg_234" fill="black" d="m1023.8,956.9l-175.5,0l0,2.6l175.5,0l0,-2.6z" opacity="0.1"/>
  <path id="svg_235" fill="white" d="m900.299,990.7l-41.6,0l0,15.6l41.6,0l0,-15.6z"/>
  <path id="svg_236" fill="black" d="m893.8,971.2l-31.2,0l0,6.5l31.2,0l0,-6.5z" opacity="0.1"/>
  <path id="svg_237" fill="#DADDDF" d="m1137.7,946.5l-175.501,0l0,71.5l175.501,0l0,-71.5z"/>
  <path id="svg_238" fill="black" d="m1137.7,946.5l-111.8,0l0,71.5l111.8,0l0,-71.5z" opacity="0.1"/>
  <path id="svg_239" fill="#DADDDF" d="m1146.8,940l-193.7,0l0,16.9l193.7,0l0,-16.9z"/>
  <path id="svg_240" fill="black" d="m1146.8,940l-120.9,0l0,16.9l120.9,0l0,-16.9z" opacity="0.1"/>
  <path id="svg_241" fill="black" d="m1137.7,956.9l-175.501,0l0,2.6l175.501,0l0,-2.6z" opacity="0.1"/>
  <path id="svg_242" fill="white" d="m1014.2,990.7l-41.6,0l0,15.6l41.6,0l0,-15.6z"/>
  <path id="svg_243" fill="black" d="m1007.7,971.2l-31.2,0l0,6.5l31.2,0l0,-6.5z" opacity="0.1"/>
  <path id="svg_244" fill="rgb(77, 97, 252)" class="change-color-in-svg" d="m1234.43,953.57c-0.58,-14.74 5.06,-29 12.27,-41.51c5,-8.69 10.77,-16.81 16.15,-25.26c0.44,-0.695 1.09,-1.225 1.87,-1.509c0.77,-0.283 1.61,-0.304 2.4,-0.059c0.78,0.245 1.46,0.743 1.93,1.415c0.48,0.672 0.71,1.482 0.68,2.303c-0.16,7.768 -1.24,15.489 -3.23,23c-2.07,7.54 -5.3,14.58 -8.54,21.63c-3.81,8.28 -7.54,16.57 -11.35,24.85"/>
  <g id="svg_245" opacity="0.3">
   <g id="svg_246" opacity="0.3">
    <path id="svg_247" fill="black" d="m1234.43,953.57c-0.58,-14.74 5.06,-29 12.27,-41.51c5,-8.69 10.77,-16.81 16.15,-25.26c0.44,-0.695 1.09,-1.225 1.87,-1.509c0.77,-0.283 1.61,-0.304 2.4,-0.059c0.78,0.245 1.46,0.743 1.93,1.415c0.48,0.672 0.71,1.482 0.68,2.303c-0.16,7.768 -1.24,15.489 -3.23,23c-2.07,7.54 -5.3,14.58 -8.54,21.63c-3.81,8.28 -7.54,16.57 -11.35,24.85" opacity="0.3"/>
   </g>
  </g>
  <path id="svg_248" fill="rgb(77, 97, 252)" class="change-color-in-svg" d="m1199.89,951.83c-8.04,-24.108 -11.47,-49.513 -10.11,-74.89c0.05,-0.845 0.39,-1.648 0.95,-2.279c0.57,-0.63 1.33,-1.052 2.16,-1.197c0.83,-0.145 1.69,-0.003 2.44,0.401c0.74,0.403 1.33,1.047 1.66,1.825c10.57,25.534 16.89,52.625 18.72,80.2"/>
  <g id="svg_249" opacity="0.3">
   <g id="svg_250" opacity="0.3">
    <path id="svg_251" fill="black" d="m1199.89,951.83c-8.04,-24.108 -11.47,-49.513 -10.11,-74.89c0.05,-0.845 0.39,-1.648 0.95,-2.279c0.57,-0.63 1.33,-1.052 2.16,-1.197c0.83,-0.145 1.69,-0.003 2.44,0.401c0.74,0.403 1.33,1.047 1.66,1.825c10.57,25.534 16.89,52.625 18.72,80.2" opacity="0.3"/>
   </g>
  </g>
  <path id="svg_252" fill="#21252B" d="m1242.8,951l-0.66,-0.25c5.56,-16.407 12.18,-32.44 19.8,-48l0.66,0.33c-7.64,15.523 -14.26,31.531 -19.8,47.92z"/>
  <path id="svg_253" fill="#21252B" d="m1205.85,948c-5.45,-23.509 -9.46,-47.33 -12,-71.33l0.66,-0.08c2.51,23.978 6.51,47.775 12,71.25l-0.66,0.16z"/>
  <path id="svg_254" fill="rgb(77, 97, 252)" class="change-color-in-svg" d="m1195.25,959c-12.53,-19.832 -20.44,-42.233 -23.12,-65.54c-0.09,-0.793 0.08,-1.592 0.48,-2.282c0.4,-0.691 1.01,-1.237 1.74,-1.56c0.72,-0.322 1.54,-0.405 2.32,-0.236c0.77,0.169 1.48,0.582 2.01,1.178c6.54,7.38 11.6,16.33 15.49,25.69c5.22,12.59 8.45,26 11.68,39.35"/>
  <path id="svg_255" fill="rgb(77, 97, 252)" class="change-color-in-svg" d="m1209.41,956.31c-6.87,-27.67 -5.63,-69.93 0.92,-96.44c0.2,-0.829 0.68,-1.565 1.35,-2.084c0.68,-0.52 1.51,-0.793 2.36,-0.773c0.86,0.02 1.68,0.331 2.33,0.882c0.65,0.551 1.09,1.308 1.25,2.145c5.3,29.24 5.63,64.37 5.88,95.94"/>
  <path id="svg_256" fill="rgb(77, 97, 252)" class="change-color-in-svg" d="m1225.4,962.94c-5.22,-14.76 -7.09,-30.498 -5.46,-46.07c1.65,-14.66 4.55,-29.16 7.45,-43.58c0.5,-2.32 0.91,-4.64 1.41,-7c0.17,-0.84 0.63,-1.596 1.29,-2.138c0.67,-0.542 1.5,-0.839 2.35,-0.839c0.86,0 1.69,0.297 2.36,0.839c0.66,0.542 1.12,1.298 1.29,2.138c4.39,23.2 5.06,58.24 2.9,81.44"/>
  <g id="svg_257" opacity="0.3">
   <g id="svg_258" opacity="0.3">
    <path id="svg_259" fill="black" d="m1225.4,962.94c-5.22,-14.76 -7.09,-30.498 -5.46,-46.07c1.65,-14.66 4.55,-29.16 7.45,-43.58c0.5,-2.32 0.91,-4.64 1.41,-7c0.17,-0.84 0.63,-1.596 1.29,-2.138c0.67,-0.542 1.5,-0.839 2.35,-0.839c0.86,0 1.69,0.297 2.36,0.839c0.66,0.542 1.12,1.298 1.29,2.138c4.39,23.2 5.06,58.24 2.9,81.44" opacity="0.3"/>
   </g>
  </g>
  <path id="svg_260" fill="#21252B" d="m1226.73,953.91c-2.07,-14.09 5.39,-79 5.47,-79.62l0.66,0.08c-0.08,0.66 -7.54,65.45 -5.47,79.45l-0.66,0.09z"/>
  <path id="svg_261" fill="rgb(77, 97, 252)" class="change-color-in-svg" d="m1231.37,946.45c0,-27.34 7,-57.5 13.75,-78c0.25,-0.801 0.77,-1.493 1.47,-1.963c0.69,-0.469 1.53,-0.688 2.37,-0.621c0.83,0.068 1.62,0.417 2.24,0.992c0.61,0.575 1.01,1.341 1.13,2.172c1.99,11.262 2.82,22.698 2.49,34.13c-0.67,15.91 -4.23,31.82 -11.77,45.57"/>
  <path id="svg_262" fill="#21252B" d="m1199,964c-5.46,-29.49 -21.12,-66.86 -21.29,-67.19l0.66,-0.25c0.17,0.42 15.91,37.78 21.38,67.36l-0.75,0.08z"/>
  <path id="svg_263" fill="#21252B" d="m1213.72,874.62l-0.74,0l0.24,88.32l0.75,0l-0.25,-88.32z"/>
  <path id="svg_264" fill="#21252B" d="m1238,945.7l-0.67,-0.25c5.9,-18.853 9.21,-38.417 9.86,-58.16l0.75,0c-0.72,19.823 -4.07,39.464 -9.94,58.41z"/>
  <path id="svg_265" fill="#84888F" d="m1187,951.83l1,20.88l3.47,41.18c0.17,2.01 1.08,3.88 2.57,5.24c1.48,1.36 3.42,2.12 5.43,2.13l46.4,0c2.01,-0.03 3.93,-0.8 5.41,-2.16c1.47,-1.36 2.4,-3.21 2.59,-5.21l3.48,-41.18l1.08,-21.29l-71.43,0.41z"/>
  <g id="svg_266" opacity="0.2">
   <g id="svg_267" opacity="0.2">
    <path id="svg_268" fill="black" d="m1245.37,951.42l-1.08,21.21l-3.48,41.18c-0.16,2.01 -1.07,3.89 -2.56,5.25c-1.48,1.37 -3.42,2.13 -5.44,2.12l12.84,0c2.01,-0.03 3.93,-0.8 5.4,-2.16c1.48,-1.36 2.4,-3.21 2.6,-5.21l3.48,-41.18l1.07,-21.29l-12.83,0.08z" opacity="0.2"/>
   </g>
  </g>
  <path id="svg_269" fill="#61656D" d="m1186.88,950.51l0.58,11.1l70.34,0l0.5,-10.19l-71.42,-0.91z"/>
  <path id="svg_270" fill="#84888F" d="m1188.29,960.28l68.71,0c1.56,0 3.05,-0.619 4.16,-1.722c1.1,-1.103 1.72,-2.599 1.72,-4.158c0,-1.559 -0.62,-3.055 -1.72,-4.158c-1.11,-1.103 -2.6,-1.722 -4.16,-1.722l-68.68,0c-1.56,0.005 -3.05,0.626 -4.16,1.727c-1.1,1.102 -1.72,2.594 -1.73,4.153c-0.01,0.776 0.13,1.546 0.43,2.265c0.29,0.719 0.72,1.372 1.27,1.92c0.55,0.549 1.2,0.981 1.92,1.272c0.72,0.291 1.49,0.435 2.27,0.423"/>
  <g id="svg_271" opacity="0.2">
   <g id="svg_272" opacity="0.2">
    <path id="svg_273" fill="black" d="m1257,948.44l-11.43,0c0.77,0 1.54,0.152 2.25,0.448c0.71,0.295 1.36,0.728 1.91,1.274c0.54,0.546 0.98,1.194 1.27,1.908c0.3,0.713 0.45,1.478 0.45,2.25c0,0.772 -0.15,1.537 -0.45,2.25c-0.29,0.714 -0.73,1.362 -1.27,1.908c-0.55,0.546 -1.2,0.979 -1.91,1.274c-0.71,0.296 -1.48,0.448 -2.25,0.448l11.43,0c1.56,0 3.05,-0.62 4.16,-1.722c1.1,-1.103 1.72,-2.599 1.72,-4.158c0,-1.56 -0.62,-3.055 -1.72,-4.158c-1.11,-1.103 -2.6,-1.722 -4.16,-1.722" opacity="0.2"/>
   </g>
  </g>
 </g>
</svg>